<svg xmlns="http://www.w3.org/2000/svg" width="24" height="24" viewBox="0 0 24 24"><title>-gl-logging</title><g id="Layer_2" data-name="Layer 2"><g id="_icons"><rect width="24" height="24" fill="none"/><path d="M19,3H5A1,1,0,0,0,4,4V20a1,1,0,0,0,1,1H19a1,1,0,0,0,1-1V4A1,1,0,0,0,19,3ZM18,19H6V5H18Z" fill="#7b7d80"/><rect x="11" y="14" width="5" height="2" fill="#7b7d80"/><rect x="11" y="11" width="5" height="2" fill="#7b7d80"/><rect x="11" y="8" width="5" height="2" fill="#7b7d80"/><rect x="8" y="14" width="2" height="2" fill="#7b7d80"/><rect x="8" y="11" width="2" height="2" fill="#7b7d80"/><rect x="8" y="8" width="2" height="2" fill="#7b7d80"/></g></g></svg>