<svg xmlns="http://www.w3.org/2000/svg" width="24" height="24" viewBox="0 0 24 24"><title>-gl-global error</title><g id="Layer_2" data-name="Layer 2"><g id="_icons"><rect width="24" height="24" fill="none"/><rect x="18" y="7" width="6" height="2" fill="#7b7d80"/><rect x="19" y="11" width="5" height="2" fill="#7b7d80"/><rect x="18" y="15" width="6" height="2" fill="#7b7d80"/><polygon points="10.29 9.09 8.71 10.69 7.13 9.09 5.7 10.49 7.3 12.11 5.7 13.73 7.13 15.14 8.71 13.54 10.29 15.14 11.71 13.73 10.11 12.11 11.71 10.49 10.29 9.09" fill="#7b7d80"/><path d="M8.62,4a8,8,0,1,0,8,8A8,8,0,0,0,8.62,4Zm0,14a6,6,0,1,1,6-6A6,6,0,0,1,8.62,18Z" fill="#7b7d80"/></g></g></svg>