<svg xmlns="http://www.w3.org/2000/svg" width="24" height="24" viewBox="0 0 24 24"><title>-gl-file transfer</title><g id="Layer_2" data-name="Layer 2"><g id="_icons"><rect width="24" height="24" fill="none"/><polygon points="10.38 14.1 6.52 17.96 10.38 21.82 11.79 20.41 9.35 17.96 11.79 15.52 10.38 14.1" fill="#7b7d80"/><polygon points="13.58 15.52 16.03 17.96 13.58 20.41 15 21.82 18.86 17.96 15 14.1 13.58 15.52" fill="#7b7d80"/><polygon points="1 2 1 18 5 18 5 16 3 16 3 4 21 4 21 16 20 16 20 18 23 18 23 2 1 2" fill="#7b7d80"/><rect x="5" y="6" width="5" height="2" fill="#7b7d80"/><rect x="12" y="6" width="6" height="2" fill="#7b7d80"/><rect x="7" y="10" width="3" height="2" fill="#7b7d80"/><rect x="12" y="10" width="7" height="2" fill="#7b7d80"/></g></g></svg>