<svg xmlns="http://www.w3.org/2000/svg" width="24" height="24" viewBox="0 0 24 24"><title>-gl-resource control</title><g id="Layer_2" data-name="Layer 2"><g id="_icons"><rect width="24" height="24" fill="none"/><path d="M12,5H11a9,9,0,1,0,9,9V13H12Zm5.93,10A7.06,7.06,0,0,1,11,21.14,7.15,7.15,0,0,1,10,6.93V15Z" fill="#7b7d80"/><path d="M13.81,2H13V12H23V11a9,9,0,0,0-4-7.53A9.19,9.19,0,0,0,13.81,2Zm4.84,4.18a7.14,7.14,0,0,1,.69.9L16.42,10H14.83ZM15,8.92V7.34l2.49-2.49a6.94,6.94,0,0,1,.93.66Zm1.54-4.54L15,5.92v-2A6.93,6.93,0,0,1,16.54,4.38ZM17.83,10l2-2a7.2,7.2,0,0,1,.59,2Z" fill="#7b7d80"/></g></g></svg>