<?xml version="1.0" encoding="utf-8"?>
<!-- Generator: Adobe Illustrator 15.1.0, SVG Export Plug-In . SVG Version: 6.00 Build 0)  -->
<!DOCTYPE svg PUBLIC "-//W3C//DTD SVG 1.1//EN" "http://www.w3.org/Graphics/SVG/1.1/DTD/svg11.dtd">
<svg version="1.1" id="Layer_2" xmlns="http://www.w3.org/2000/svg" xmlns:xlink="http://www.w3.org/1999/xlink" x="0px" y="0px"
	 width="20px" height="20px" viewBox="0 0 20 20" enable-background="new 0 0 20 20" xml:space="preserve">
<g>
	<path fill="#58595B" d="M13.874,8.84l-3.199-2.92c-0.406-0.373-1.039-0.346-1.412,0.064C8.89,6.392,8.919,7.024,9.327,7.396
		L10.536,8.5H7.038c-0.553,0-1,0.447-1,1s0.447,1,1,1h3.67l-1.381,1.261c-0.408,0.372-0.438,1.005-0.064,1.412
		c0.197,0.217,0.468,0.326,0.738,0.326c0.241,0,0.482-0.086,0.674-0.262l3.199-2.921c0.208-0.189,0.326-0.457,0.326-0.738
		S14.082,9.029,13.874,8.84z"/>
	<path fill="#58595B" d="M10.001,1.779c-4.265,0-7.734,3.499-7.734,7.799c0,4.302,3.47,7.801,7.734,7.801
		c4.264,0,7.732-3.499,7.732-7.801C17.733,5.278,14.265,1.779,10.001,1.779z M10.001,15.379c-3.162,0-5.734-2.603-5.734-5.801
		c0-3.197,2.572-5.799,5.734-5.799c3.161,0,5.732,2.602,5.732,5.799C15.733,12.776,13.162,15.379,10.001,15.379z"/>
</g>
</svg>
