<?xml version="1.0" encoding="utf-8"?>
<!-- Generator: Adobe Illustrator 15.1.0, SVG Export Plug-In . SVG Version: 6.00 Build 0)  -->
<!DOCTYPE svg PUBLIC "-//W3C//DTD SVG 1.1//EN" "http://www.w3.org/Graphics/SVG/1.1/DTD/svg11.dtd">
<svg version="1.1" id="Layer_1" xmlns="http://www.w3.org/2000/svg" xmlns:xlink="http://www.w3.org/1999/xlink" x="0px" y="0px"
	 width="100%" height="100%" viewBox="0 0 25 25" enable-background="new 0 0 25 25" xml:space="preserve">
<path fill="#0099CC" d="M21,5h-4V3.667C17,2.861,16.387,2,14.667,2h-3.334C9.613,2,9,2.861,9,3.667V5H5C4.447,5,4,5.448,4,6
	s0.447,1,1,1h1.186C6.072,7.314,6,7.648,6,8v10c0,1.65,1.35,3,3,3h8c1.65,0,3-1.35,3-3V8c0-0.352-0.072-0.686-0.186-1H21
	c0.553,0,1-0.448,1-1S21.553,5,21,5z M11,4.021C11.085,4.009,11.195,4,11.333,4h3.334C14.805,4,14.915,4.009,15,4.021V5h-4V4.021z
	 M12,15c0,0.553-0.447,1-1,1s-1-0.447-1-1v-4c0-0.553,0.447-1,1-1s1,0.447,1,1V15z M16,15c0,0.553-0.447,1-1,1s-1-0.447-1-1v-4
	c0-0.553,0.447-1,1-1s1,0.447,1,1V15z"/>
</svg>
