<?xml version="1.0" encoding="utf-8"?>
<!-- Generator: Adobe Illustrator 15.1.0, SVG Export Plug-In . SVG Version: 6.00 Build 0)  -->
<!DOCTYPE svg PUBLIC "-//W3C//DTD SVG 1.1//EN" "http://www.w3.org/Graphics/SVG/1.1/DTD/svg11.dtd">
<svg version="1.1" id="Layer_1" xmlns="http://www.w3.org/2000/svg" xmlns:xlink="http://www.w3.org/1999/xlink" x="0px" y="0px"
	 width="100%" height="100%" viewBox="0 0 25 25" enable-background="new 0 0 25 25" xml:space="preserve">
<g>
	<path fill="#f5881f" d="M23,20.406C23,21.839,21.839,23,20.406,23H5.594C4.161,23,3,21.839,3,20.406V4.594C3,3.161,4.161,2,5.594,2
		h14.813C21.839,2,23,3.161,23,4.594V20.406z M5.994,4C5.446,4,5,4.446,5,4.994v15.012C5,20.554,5.446,21,5.994,21h14.012
		C20.554,21,21,20.554,21,20.006V4.994C21,4.446,20.554,4,20.006,4H5.994z"/>
	<path fill="#f5881f" d="M17.979,15.088c0-2.257-1.829-4.087-4.087-4.087c-0.413,0-0.812,0.061-1.188,0.175l2.361,2.361
		c0.353,0.354,0.353,0.932,0,1.285l-1.44,1.439c-0.354,0.354-0.932,0.354-1.284,0L9.979,13.9c-0.113,0.376-0.175,0.773-0.175,1.188
		c0,2.258,1.83,4.087,4.088,4.087c0.692,0,1.345-0.172,1.917-0.478L19,22.199l2.4-1.1L21.8,20.69l-4.298-3.685
		C17.806,16.434,17.979,15.781,17.979,15.088z"/>
	<rect x="4" y="4" fill="#f5881f" width="18" height="5"/>
	<circle fill="#f5881f" cx="19.4" cy="5.201" r="1.2"/>
	<circle fill="#f5881f" cx="15.4" cy="5.201" r="1.2"/>
</g>
</svg>
