<svg xmlns="http://www.w3.org/2000/svg" viewBox="0 0 99.53 51.73">
  <defs>
    <style>
      .cls-1 {
        fill: #e25a1c;
      }

      .cls-2 {
        fill: #3b3b3b;
      }
    </style>
  </defs>
  <title>spark</title>
  <g id="Layer_2" data-name="Layer 2">
    <g id="Icons">
      <g id="spark">
        <path class="cls-1" d="M99.53,8.4c-.54,1.77-1.94,2.93-3.06,4.29C95,14.48,93.5,16.21,92,18a.75.75,0,0,0-.11,1c1.24,2.33,2.46,4.67,3.7,7a3.74,3.74,0,0,1,.55,2.64,3,3,0,0,1-3.56,2.3c-1.47-.32-2.92-.79-4.37-1.2-.9-.26-1.8-.56-2.7-.82a.52.52,0,0,1-.42-.48c-.22-1.33-.45-2.65-.69-4.06l6.71,1.84a5.58,5.58,0,0,0-.25-.57l-3.51-6.67c-.31-.58-.31-.58.11-1.08L93,11.35a1.42,1.42,0,0,0,.32-.57c-.11,0-.23,0-.34.06-2.77.73-5.55,1.46-8.32,2.21a.59.59,0,0,1-.78-.32C82.59,10.61,81.31,8.49,80,6.38c-.12-.2-.26-.38-.39-.57l-.11,0c-.07.38-.16.76-.23,1.14-.45,2.54-.9,5.09-1.34,7.63a.63.63,0,0,1-.53.53l-8,2.51a5.72,5.72,0,0,0-.68.28V18l6.84,2.72a2,2,0,0,1-.26.22l-4.07,2.64a.67.67,0,0,1-.72.06c-1.7-.77-3.4-1.52-5.1-2.28a5.14,5.14,0,0,1-2.1-1.62,2.59,2.59,0,0,1,.68-3.94,11.57,11.57,0,0,1,3.11-1.27l6.87-2.17a.79.79,0,0,0,.63-.69c.44-2.61.91-5.21,1.38-7.82a6.07,6.07,0,0,1,1.22-2.74A3.42,3.42,0,0,1,79.08,0h.55a3.26,3.26,0,0,1,1.66,1,16,16,0,0,1,1,1.44c1.21,2,2.39,3.94,3.57,5.92a.65.65,0,0,0,.86.35c.51-.15,1-.28,1.54-.41,2.64-.7,5.29-1.41,7.94-2.08,1.22-.31,2.83-.07,3.28,1.41Z"/>
        <path class="cls-2" d="M0,41.29l4.47-2.36c.23.47.43.92.66,1.35a3.21,3.21,0,0,0,2.56,1.91,3.81,3.81,0,0,0,3.49-1.9,2.24,2.24,0,0,0-.25-2.36,17.91,17.91,0,0,0-1.29-1.59C8.39,35,7.1,33.6,5.88,32.19a5.91,5.91,0,0,1-1.11-6.77,8.48,8.48,0,0,1,9.43-4.65,5.23,5.23,0,0,1,2.74,1.54c.65.68,1.22,1.43,1.86,2.18l-4.15,3.09c-.21-.33-.4-.64-.61-.94a3.26,3.26,0,0,0-2.29-1.57,2.65,2.65,0,0,0-2.52,1,1.5,1.5,0,0,0,0,2.06c1.09,1.27,2.22,2.5,3.34,3.73.46.5.92,1,1.39,1.47a6.84,6.84,0,0,1,.93,8.89,9,9,0,0,1-7,4.37,8.68,8.68,0,0,1-3-.18A5.83,5.83,0,0,1,.72,43C.47,42.45.24,41.91,0,41.37Z"/>
        <path class="cls-2" d="M20.82,44.79c-.13.94-.26,1.85-.38,2.76L20,51.36c0,.2-.06.37-.34.37H16.08a1.59,1.59,0,0,1-.23,0c.07-.62.14-1.22.22-1.81.43-3.29.84-6.58,1.29-9.86a38.37,38.37,0,0,1,.77-4.66,11.21,11.21,0,0,1,9.36-8.06,8.39,8.39,0,0,1,8.11,3.3,8.29,8.29,0,0,1,1.53,5.27c0,4.94-4.37,9.68-9.2,10.46A9,9,0,0,1,21.18,45L21,44.83Zm5.95-2.47A5.89,5.89,0,0,0,30.42,41a5.88,5.88,0,0,0,2.46-5.48A4.5,4.5,0,0,0,29,31.44a5.81,5.81,0,0,0-4.68,1.33,6,6,0,0,0-2.39,5.34A4.66,4.66,0,0,0,26.77,42.32Z"/>
        <path class="cls-2" d="M52.82,46c.19-1.47.4-2.9.57-4.34a31.41,31.41,0,0,0,.5-5.56,5.9,5.9,0,0,0-.77-2.62,3.93,3.93,0,0,0-3.19-2,6.37,6.37,0,0,0-6.88,5,4.76,4.76,0,0,0,5.82,5.72,6.93,6.93,0,0,0,3.4-1.88c-.06.52-.12,1-.18,1.41-.15,1.14-.29,2.29-.46,3.43a.57.57,0,0,1-.27.41c-3,1.26-6,1.39-8.82-.39a7.86,7.86,0,0,1-3.77-7.83,11.19,11.19,0,0,1,8.55-9.83,8.54,8.54,0,0,1,7.41,1.24,7.82,7.82,0,0,1,3.37,7.53c-.35,3.13-.79,6.26-1.17,9.4,0,.21-.08.32-.33.32H53Z"/>
        <path class="cls-2" d="M87.22,46c-1.75,0-3.47,0-5.19,0a.9.9,0,0,1-.58-.43c-2-3-3.93-5.94-5.89-8.91l-.5-.73c-.1.67-.18,1.23-.26,1.8q-.51,4-1,7.93c0,.17,0,.35-.3.35H69.39l-.21,0c.07-.62.14-1.23.22-1.84.35-2.71.71-5.42,1.06-8.13l1.14-8.54c.11-.86.21-1.72.35-2.58a.74.74,0,0,1,.27-.51c1.52-1,3.06-2,4.59-3l.15-.05q-.72,5.43-1.42,10.82l.1.06L83.1,24c.2,1.13.39,2.18.56,3.24.25,1.54.4,1-.68,2.18q-2,2.13-4,4.22c-.27.27-.27.44,0,.74q4.16,5.79,8.29,11.6A.32.32,0,0,0,87.22,46Z"/>
        <path class="cls-2" d="M63.11,46H58.93c0-.39.07-.77.12-1.15q.72-5.56,1.46-11.12a7.13,7.13,0,0,1,1-3.35,5.78,5.78,0,0,1,4.86-2.67h3.12L69,31.88H66.8c-1.32,0-1.87.47-2,1.77Q64,39.56,63.2,45.47C63.18,45.63,63.14,45.8,63.11,46Z"/>
        <path class="cls-2" d="M49.15,18.54h1l-.34,2h2.25c.1-.52.22-1.06.29-1.61,0-.31.16-.42.47-.38s.41,0,.64,0c-.29,1.66-.57,3.27-.87,4.89,0,.08-.16.19-.25.2a7.14,7.14,0,0,1-.81,0l.35-2.07c-.74,0-1.43,0-2.12,0-.07,0-.16.18-.18.29-.12.58-.22,1.17-.32,1.75h-1Z"/>
        <path class="cls-2" d="M27,23.6H25.89c0-.27-.11-.53-.13-.8s-.12-.28-.32-.27c-.42,0-.83,0-1.24,0a.51.51,0,0,0-.38.23c-.23.86-.83,1-1.61.82a3.54,3.54,0,0,1,.16-.34c.77-1.45,1.56-2.89,2.32-4.35a.61.61,0,0,1,.65-.39c.74,0,.73,0,.86.75.24,1.33.49,2.67.73,4C27,23.36,27,23.46,27,23.6Zm-1.43-2.09L25.32,20h-.1l-.75,1.5Z"/>
        <path class="cls-2" d="M38.79,18.52l.93,5.08H38.61l-.18-1.07c-.56,0-1.09,0-1.62,0a.38.38,0,0,0-.26.22c-.22.86-.82,1-1.63.83.07-.13.12-.25.18-.37.78-1.45,1.56-2.89,2.32-4.35a.54.54,0,0,1,.6-.35A6.58,6.58,0,0,0,38.79,18.52Zm-.51,3L38,20h-.09l-.75,1.5Z"/>
        <path class="cls-2" d="M59.54,18.52l-.17,1c-.47,0-.94,0-1.4,0-.3,0-.42.09-.44.39a6,6,0,0,1-.1.64H59l-.17,1c-.44,0-.86,0-1.27,0-.25,0-.39.05-.41.32s-.07.45-.12.75h1.75c-.05.32-.08.58-.14.82a.26.26,0,0,1-.2.18H55.84c.23-1.27.44-2.51.66-3.74.06-.37.12-.74.2-1.11,0-.09.14-.23.22-.24Z"/>
        <path class="cls-2" d="M30.61,23.6h-1l.89-5.07c.63,0,1.22,0,1.81,0a1.23,1.23,0,0,1,1.23,1.05,1.73,1.73,0,0,1-.9,1.92,4.24,4.24,0,0,1-1,.23,4.69,4.69,0,0,1-.65,0c-.06.33-.12.63-.18.93S30.67,23.28,30.61,23.6Zm.52-2.85a5.52,5.52,0,0,0,.86-.06.64.64,0,0,0,.46-.75c0-.35-.29-.42-.59-.42h-.52Z"/>
        <path class="cls-2" d="M45.91,19.81a1.78,1.78,0,0,0-2.72,1,1.44,1.44,0,0,0,.32,1.55,1.36,1.36,0,0,0,1.52.17,2.67,2.67,0,0,0,.44-.2c0,.36-.06.69-.12,1,0,.09-.15.18-.24.22A2.2,2.2,0,0,1,42,21.66a3,3,0,0,1,3.49-3.15c.54.12.57.16.48.69C46,19.39,45.94,19.58,45.91,19.81Z"/>
        <path class="cls-2" d="M92.64,43.9c0,.64,0,1.26,0,1.88,0,.07-.1.14-.15.22-.06-.09-.15-.17-.16-.25a9.6,9.6,0,0,0-.08-1.41L91.56,46l-.14,0-.69-1.66-.09,0c0,.43,0,.86,0,1.3,0,.1-.09.2-.14.3-.06-.11-.17-.21-.18-.31,0-.59,0-1.19,0-1.77.36-.11.57-.05.68.31s.31.79.5,1.29L92,44.25C92.14,43.86,92.14,43.86,92.64,43.9Z"/>
        <path class="cls-2" d="M88.84,44.16c-.2,0-.35,0-.5,0s-.1-.09-.15-.13.1-.12.15-.12q.66,0,1.32,0c.06,0,.1.08.15.12s-.1.12-.15.13a4,4,0,0,1-.49,0c0,.53,0,1,0,1.53A1.88,1.88,0,0,1,89,46c-.07-.12-.18-.23-.18-.35C88.83,45.16,88.84,44.67,88.84,44.16Z"/>
      </g>
    </g>
  </g>
</svg>
