<svg xmlns="http://www.w3.org/2000/svg" width="23.22" height="30.03" viewBox="0 0 23.22 30.03">
	<defs>
		<style>.a{fill:#f5881f;}</style>
	</defs>
	<title>License</title>
	<path class="a" d="M18.45,17.77a10,10,0,1,0-13.3-.66L0,26l5.26-1.12L6.93,30l4.68-8.11L16.29,30,18,24.92,23.22,26ZM4.17,10a8,8,0,1,1,8,8A8,8,0,0,1,4.17,10ZM7.44,25.15l-.83-2.56L4,23.15l2.43-4.2,3.46,2Zm9.17-2.56-.83,2.56-2.43-4.2,3.46-2,2.43,4.2Z"/>
	<path class="a" d="M12.17,15.5v-2a3.5,3.5,0,1,1,0-7v-2a5.5,5.5,0,1,0,0,11Z"/>
</svg>