<?xml version="1.0" encoding="utf-8"?>
<!-- Generator: Adobe Illustrator 19.1.0, SVG Export Plug-In . SVG Version: 6.00 Build 0)  -->
<svg version="1.1" id="Layer_1" xmlns="http://www.w3.org/2000/svg" xmlns:xlink="http://www.w3.org/1999/xlink" x="0px" y="0px"
	 viewBox="0 0 24 24" style="enable-background:new 0 0 24 24;" xml:space="preserve">
<style type="text/css">
	.st0{fill:#58595B;}
</style>
<path id="resize_window_1_" class="st0" d="M17.5,16c0,0.8-0.7,1.5-1.5,1.5c-0.8,0-1.5-0.7-1.5-1.5c0-0.8,0.7-1.5,1.5-1.5
	C16.8,14.5,17.5,15.2,17.5,16z M12,14.5c-0.8,0-1.5,0.7-1.5,1.5c0,0.8,0.7,1.5,1.5,1.5s1.5-0.7,1.5-1.5C13.5,15.2,12.8,14.5,12,14.5
	z M12,10.5c-0.8,0-1.5,0.7-1.5,1.5s0.7,1.5,1.5,1.5s1.5-0.7,1.5-1.5S12.8,10.5,12,10.5z M8,14.5c-0.8,0-1.5,0.7-1.5,1.5
	c0,0.8,0.7,1.5,1.5,1.5s1.5-0.7,1.5-1.5C9.5,15.2,8.8,14.5,8,14.5z M16,10.5c-0.8,0-1.5,0.7-1.5,1.5s0.7,1.5,1.5,1.5
	c0.8,0,1.5-0.7,1.5-1.5S16.8,10.5,16,10.5z M16,6.5c-0.8,0-1.5,0.7-1.5,1.5s0.7,1.5,1.5,1.5c0.8,0,1.5-0.7,1.5-1.5S16.8,6.5,16,6.5z
	"/>
</svg>
