<?xml version="1.0" encoding="utf-8"?>
<!-- Generator: Adobe Illustrator 15.1.0, SVG Export Plug-In . SVG Version: 6.00 Build 0)  -->
<!DOCTYPE svg PUBLIC "-//W3C//DTD SVG 1.1//EN" "http://www.w3.org/Graphics/SVG/1.1/DTD/svg11.dtd">
<svg version="1.1" id="Layer_1" xmlns="http://www.w3.org/2000/svg" xmlns:xlink="http://www.w3.org/1999/xlink" x="0px" y="0px"
	 width="100%" height="100%" viewBox="0 0 25 25" enable-background="new 0 0 25 25" xml:space="preserve">
<g>
	<g>
		<path fill="#595959" d="M18.953,18H5.047C3.367,18,2,16.633,2,14.953V5.047C2,3.367,3.367,2,5.047,2h13.906
			C20.633,2,22,3.367,22,5.047v9.906C22,16.633,20.633,18,18.953,18z M5.047,4C4.47,4,4,4.47,4,5.047v9.906
			C4,15.53,4.47,16,5.047,16h13.906C19.53,16,20,15.53,20,14.953V5.047C20,4.47,19.53,4,18.953,4H5.047z"/>
	</g>
	<g>
		<g>
			<rect x="3" y="12" fill="#595959" width="17" height="5"/>
		</g>
	</g>
	<g>
		<circle fill="#595959" cx="11.6" cy="15.801" r="1.2"/>
	</g>
	<g>
		<rect x="8" y="6" fill="#595959" width="2" height="9"/>
	</g>
	<g>
		<rect x="11" y="8" fill="#595959" width="2" height="6"/>
	</g>
	<g>
		<rect x="14" y="8" fill="#595959" width="2" height="7"/>
	</g>
	<g>
		<path fill="#595959" d="M17.162,21.788c-1.678,0-3.162-1.281-3.162-2.958c0-0.008,0-0.83,0-0.83h-2.4H9c0,0,0,0.822,0,0.83
			c0,1.677-1.484,2.958-3.162,2.958C5.799,21.788,4,21.8,4,21.8V23h2h5.6H17.4H19v-1.2C19,21.8,17.201,21.788,17.162,21.788z"/>
	</g>
</g>
</svg>
