<?xml version="1.0" encoding="utf-8"?>
<!-- Generator: Adobe Illustrator 15.1.0, SVG Export Plug-In . SVG Version: 6.00 Build 0)  -->
<!DOCTYPE svg PUBLIC "-//W3C//DTD SVG 1.0//EN" "http://www.w3.org/TR/2001/REC-SVG-20010904/DTD/svg10.dtd">
<svg version="1.0" id="Layer_1" xmlns="http://www.w3.org/2000/svg" xmlns:xlink="http://www.w3.org/1999/xlink" x="0px" y="0px"
	 width="100%" height="100%" viewBox="0 0 25 25" enable-background="new 0 0 25 25" xml:space="preserve">
<g id="folder_4_">
	<g>
		<path fill="#FFFFFF" d="M9.485,11c-0.55,0-1.108,0.568-1.24,1.102L6.392,19.81C6.259,20.344,6.602,21,7.151,21h12.984
			c0.55,0,1.108-0.591,1.24-1.125l1.855-7.696c0.132-0.534-0.21-1.179-0.76-1.179H9.485z"/>
		<path fill="#FFFFFF" d="M9.485,11c-0.55,0-1.108,0.568-1.24,1.102L6.392,19.81C6.259,20.344,6.602,21,7.151,21h12.984
			c0.55,0,1.108-0.591,1.24-1.125l1.855-7.696c0.132-0.534-0.21-1.179-0.76-1.179H9.485z"/>
		<path fill="#FFFFFF" d="M4.779,17.386c0-0.001,0.109-0.438,0.243-0.972l1.479-5.912c0.133-0.534,0.363-1.047,0.51-1.236
			S8.157,9,8.707,9h9.871C19.128,9,20,8.395,20,7.845V5.897C20,5.348,19.128,5,18.578,5H5.594C5.044,5,5,5.348,5,5.897v2.094
			c0,0.55,0,1.45,0,2v6.401c0,0.55-0.161,1-0.11,1S4.779,17.387,4.779,17.386z"/>
		<path fill="#FFFFFF" d="M4.779,17.386c0-0.001,0.109-0.438,0.243-0.972l1.479-5.912c0.133-0.534,0.363-1.047,0.51-1.236
			S8.157,9,8.707,9h9.871C19.128,9,20,8.395,20,7.845V5.897C20,5.348,19.128,5,18.578,5H5.594C5.044,5,5,5.348,5,5.897v2.094
			c0,0.55,0,1.45,0,2v6.401c0,0.55-0.161,1-0.11,1S4.779,17.387,4.779,17.386z"/>
		<path fill="#FFFFFF" d="M9.485,11c-0.55,0-1.108,0.568-1.24,1.102L6.392,19.81C6.259,20.344,6.602,21,7.151,21h12.984
			c0.55,0,1.108-0.591,1.24-1.125l1.855-7.696c0.132-0.534-0.21-1.179-0.76-1.179H9.485z"/>
		<path fill="#FFFFFF" d="M4.779,17.386c0-0.001,0.109-0.438,0.243-0.972l1.479-5.912c0.133-0.534,0.363-1.047,0.51-1.236
			S8.157,9,8.707,9h9.871C19.128,9,20,8.395,20,7.845V5.897C20,5.348,19.128,5,18.578,5H5.594C5.044,5,5,5.348,5,5.897v2.094
			c0,0.55,0,1.45,0,2v6.401c0,0.55-0.161,1-0.11,1S4.779,17.387,4.779,17.386z"/>
	</g>
	<g opacity="0.3">
		<g>
			<g>
				<path fill="#58595B" d="M8.485,10c-0.55,0-1.108,0.568-1.24,1.102L5.392,18.81C5.259,19.344,5.602,20,6.151,20h12.984
					c0.55,0,1.108-0.591,1.24-1.125l1.855-7.696c0.132-0.534-0.21-1.179-0.76-1.179H8.485z"/>
				<path fill="#58595B" d="M8.485,10c-0.55,0-1.108,0.568-1.24,1.102L5.392,18.81C5.259,19.344,5.602,20,6.151,20h12.984
					c0.55,0,1.108-0.591,1.24-1.125l1.855-7.696c0.132-0.534-0.21-1.179-0.76-1.179H8.485z"/>
			</g>
			<g>
				<path fill="#58595B" d="M3.779,16.386c0-0.001,0.109-0.438,0.243-0.972l1.479-5.912c0.133-0.534,0.363-1.047,0.51-1.236
					S7.157,8,7.707,8h9.871C18.128,8,19,7.395,19,6.845V4.897C19,4.348,18.128,4,17.578,4H4.594C4.044,4,4,4.348,4,4.897v2.094
					c0,0.55,0,1.45,0,2v6.401c0,0.55-0.161,1-0.11,1S3.779,16.387,3.779,16.386z"/>
				<path fill="#58595B" d="M3.779,16.386c0-0.001,0.109-0.438,0.243-0.972l1.479-5.912c0.133-0.534,0.363-1.047,0.51-1.236
					S7.157,8,7.707,8h9.871C18.128,8,19,7.395,19,6.845V4.897C19,4.348,18.128,4,17.578,4H4.594C4.044,4,4,4.348,4,4.897v2.094
					c0,0.55,0,1.45,0,2v6.401c0,0.55-0.161,1-0.11,1S3.779,16.387,3.779,16.386z"/>
			</g>
		</g>
		<g>
			<g>
				<path fill="#58595B" d="M8.485,10c-0.55,0-1.108,0.568-1.24,1.102L5.392,18.81C5.259,19.344,5.602,20,6.151,20h12.984
					c0.55,0,1.108-0.591,1.24-1.125l1.855-7.696c0.132-0.534-0.21-1.179-0.76-1.179H8.485z"/>
			</g>
			<g>
				<path fill="#58595B" d="M3.779,16.386c0-0.001,0.109-0.438,0.243-0.972l1.479-5.912c0.133-0.534,0.363-1.047,0.51-1.236
					S7.157,8,7.707,8h9.871C18.128,8,19,7.395,19,6.845V4.897C19,4.348,18.128,4,17.578,4H4.594C4.044,4,4,4.348,4,4.897v2.094
					c0,0.55,0,1.45,0,2v6.401c0,0.55-0.161,1-0.11,1S3.779,16.387,3.779,16.386z"/>
			</g>
		</g>
	</g>
</g>
</svg>
