<?xml version="1.0" encoding="utf-8"?>
<!-- Generator: Adobe Illustrator 15.1.0, SVG Export Plug-In . SVG Version: 6.00 Build 0)  -->
<!DOCTYPE svg PUBLIC "-//W3C//DTD SVG 1.1//EN" "http://www.w3.org/Graphics/SVG/1.1/DTD/svg11.dtd">
<svg version="1.1" id="Layer_1" xmlns="http://www.w3.org/2000/svg" xmlns:xlink="http://www.w3.org/1999/xlink" x="0px" y="0px"
	 width="100%" height="100%" viewBox="0 0 25 25" enable-background="new 0 0 25 25" xml:space="preserve">
<g id="save_8_" opacity="0.3">
	<g>
		<g>
			<path fill-rule="evenodd" clip-rule="evenodd" fill="#58595B" d="M17.729,4.684C17.328,4.308,16.55,4,16,4H6C5.45,4,5,4.45,5,5
				v15c0,0.55,0.45,1,1,1h14c0.55,0,1-0.45,1-1V8.75c0-0.55-0.328-1.308-0.729-1.684L17.729,4.684z M17,11c0,0.55-0.45,1-1,1H8
				c-0.55,0-1-0.45-1-1V7c0-0.55,0.45-1,1-1h8c0.55,0,1,0.45,1,1V11z"/>
		</g>
	</g>
	<g>
		<g>
			<path fill="#58595B" d="M14,11c-0.553,0-1-0.447-1-1V8c0-0.552,0.447-1,1-1s1,0.448,1,1v2C15,10.553,14.553,11,14,11z"/>
		</g>
	</g>
</g>
</svg>
