<?xml version="1.0" encoding="utf-8"?>
<!DOCTYPE svg PUBLIC "-//W3C//DTD SVG 1.1//EN" "http://www.w3.org/Graphics/SVG/1.1/DTD/svg11.dtd">
<svg version="1.1" id="Layer_2" xmlns="http://www.w3.org/2000/svg" xmlns:xlink="http://www.w3.org/1999/xlink" x="0px" y="0px"
	 width="100%" height="100%" viewBox="0 0 20 20" enable-background="new 0 0 20 20" xml:space="preserve">
<path id="settings_1_" fill="#0099CC" d="M16.5,11c0.828,0,1.5-0.672,1.5-1.5C18,8.671,17.328,8,16.5,8h-0.502
	c-0.109,0-0.299-0.834-0.552-1.323l0.659-0.534c0.586-0.585,0.586-1.473,0-2.059c-0.585-0.587-1.535-0.555-2.121,0.03l-0.283,0.549
	C13.115,4.271,12,3.999,12,3.831V3.5C12,2.671,11.329,2,10.5,2C9.671,2,9,2.671,9,3.5v0.389C8,4.041,7.693,4.269,7.222,4.56
	L6.684,4.146C6.098,3.561,5.085,3.56,4.5,4.147c-0.585,0.586-0.617,1.536-0.03,2.121L4.906,6.47C4.597,7.017,4.354,8,4.229,8H3.5
	C2.671,8,2,8.671,2,9.5C2,10.328,2.671,11,3.5,11h0.903c0.173,1,0.418,1.29,0.727,1.749l-0.692,0.817
	c-0.586,0.586-0.586,1.598-0.001,2.184c0.293,0.294,0.677,0.472,1.061,0.472c0.384,0,0.768-0.131,1.06-0.423l1.069-0.811
	C7.982,15.171,8,15.326,9,15.436V16.5c0,0.828,0.671,1.5,1.5,1.5c0.829,0,1.5-0.672,1.5-1.5v-1.006c0-0.132,0.824-0.337,1.307-0.609
	l0.804,0.93c0.292,0.292,0.613,0.438,0.996,0.438c0.385,0,0.738-0.146,1.031-0.44c0.586-0.586,0.568-1.535-0.018-2.121l-0.896-1.138
	C15.476,12.147,15.674,12,15.822,11H16.5z M10.112,11.662c-1.102,0-1.999-0.897-1.999-1.999c0-1.104,0.897-2.001,1.999-2.001
	c1.104,0,2.001,0.897,2.001,2.001C12.113,10.765,11.216,11.662,10.112,11.662z"/>
</svg>
