<?xml version="1.0" encoding="utf-8"?>
<!-- Generator: Adobe Illustrator 15.1.0, SVG Export Plug-In . SVG Version: 6.00 Build 0)  -->
<!DOCTYPE svg PUBLIC "-//W3C//DTD SVG 1.1//EN" "http://www.w3.org/Graphics/SVG/1.1/DTD/svg11.dtd">
<svg version="1.1" id="Layer_1" xmlns="http://www.w3.org/2000/svg" xmlns:xlink="http://www.w3.org/1999/xlink" x="0px" y="0px"
	 width="100%" height="100%" viewBox="0 0 25 25" enable-background="new 0 0 25 25" xml:space="preserve">
<path fill="#0099CC" d="M12.311,22C12.31,22,12.311,22,12.311,22h-0.085C5.066,22,0.81,18.18,0.84,11.789
	c0.027-6.16,4.393-9.96,11.393-9.96c3.379,0.016,6.167,0.882,8.147,2.48c2.189,1.768,3.339,4.358,3.323,7.579
	C23.675,18.248,19.415,22,12.311,22z M12.308,4c-2.89,0-9.436,0.707-9.468,7.922c-0.034,7.143,5.717,8.2,9.24,8.217L12,21.103v-1
	c4,0,9.517-1.061,9.548-8.166c0.013-2.628-0.778-4.593-2.501-5.985C17.422,4.641,15.104,4,12.27,4H12.308z"/>
<path fill="#0099CC" d="M10,7.646c0-0.55,0.218-0.754,0.678-0.452l6.428,4.258c0.459,0.302,0.42,0.794-0.04,1.096l-6.368,4.257
	C10.237,17.106,10,16.902,10,16.353V7.646z"/>
</svg>
