<svg xmlns="http://www.w3.org/2000/svg" width="18" height="18" viewBox="0 0 18 18"><title>tools</title><g id="Layer_2" data-name="Layer 2"><g id="Icons"><rect width="18" height="18" fill="none"/><path d="M16.51,12.27l-4.1-4.11A6,6,0,0,0,3.82,1.31a1,1,0,0,0-.52,1,.51.51,0,0,0,.13.42l.13.12A.86.86,0,0,0,3.69,3L7,6.26A.5.5,0,1,1,6.26,7L3,3.72a1,1,0,0,0-.24-.25l0,0,0,0h0a.55.55,0,0,0-.32-.1,1,1,0,0,0-1,.51,6,6,0,0,0,6.85,8.61l4.11,4.1a3,3,0,1,0,4.24-4.24ZM15.1,15.1a1,1,0,0,1-1.41,0l-5-5-.61.24A4,4,0,0,1,2.94,5.06L5.55,7.68A1.51,1.51,0,0,0,7.68,5.55L5.06,2.94a4,4,0,0,1,5.27,5.13l-.23.61,5,5a1,1,0,0,1,0,1.41Z" fill="#58595b"/></g></g></svg>