<?xml version="1.0" encoding="utf-8"?>
<!-- Generator: Adobe Illustrator 15.1.0, SVG Export Plug-In . SVG Version: 6.00 Build 0)  -->
<!DOCTYPE svg PUBLIC "-//W3C//DTD SVG 1.1//EN" "http://www.w3.org/Graphics/SVG/1.1/DTD/svg11.dtd">
<svg version="1.1" id="Layer_2" xmlns="http://www.w3.org/2000/svg" xmlns:xlink="http://www.w3.org/1999/xlink" x="0px" y="0px"
	 width="20px" height="20px" viewBox="0 0 20 20" enable-background="new 0 0 20 20" xml:space="preserve">
<g>
	<g>
		<path fill="#FD8C13" d="M2.26,16.5c-0.55,0-0.762-0.255-0.471-0.722L9.971,2.7c0.291-0.467,0.767-0.436,1.057,0.032l8.184,13.031
			c0.29,0.467,0.078,0.737-0.472,0.737H2.26z"/>
	</g>
	<path fill="#FFFFFF" d="M11.5,11.144c0,0.443-0.145,0.81-1,0.81c-0.858,0-1-0.366-1-0.81v-3.86c0-0.443,0.142-0.809,1-0.809
		c0.855,0,1,0.365,1,0.809V11.144z"/>
	<path fill="#FFFFFF" d="M11.5,14.144c0,0.443-0.145,0.81-1,0.81c-0.858,0-1-0.366-1-0.81v-0.86c0-0.443,0.142-0.809,1-0.809
		c0.855,0,1,0.365,1,0.809V14.144z"/>
</g>
</svg>
