<?xml version="1.0" encoding="utf-8"?>
<!-- Generator: Adobe Illustrator 15.1.0, SVG Export Plug-In . SVG Version: 6.00 Build 0)  -->
<!DOCTYPE svg PUBLIC "-//W3C//DTD SVG 1.1//EN" "http://www.w3.org/Graphics/SVG/1.1/DTD/svg11.dtd">
<svg version="1.1" id="Layer_2" xmlns="http://www.w3.org/2000/svg" xmlns:xlink="http://www.w3.org/1999/xlink" x="0px" y="0px"
	 width="20px" height="20px" viewBox="0 0 20 20" enable-background="new 0 0 20 20" xml:space="preserve">
<g>
	<path fill="#12A01F" d="M5.307,6.538c-0.006-0.007-0.109,0.081-0.209,0.18c-2.332,2.331-2.283,6.064,0.049,8.397
		c2.332,2.332,6.041,2.405,8.373,0.073c0.099-0.099,0.211-0.228,0.204-0.233L5.307,6.538z"/>
	<g>
		
			<rect x="2.602" y="14.242" transform="matrix(0.7071 -0.7071 0.7071 0.7071 -9.0466 8.2914)" fill="#12A01F" width="5.767" height="1.648"/>
	</g>
	<path fill="#12A01F" d="M14.629,14.049c0.008,0.007,0.143-0.113,0.242-0.213c2.332-2.331,2.301-6.081-0.031-8.413
		c-2.334-2.332-6.066-2.381-8.398-0.05c-0.1,0.1-0.234,0.252-0.229,0.259L14.629,14.049z"/>
	<g>
		
			<rect x="11.632" y="4.631" transform="matrix(-0.7071 0.7071 -0.7071 -0.7071 28.6367 -0.9525)" fill="#12A01F" width="5.766" height="1.648"/>
	</g>
	<line display="none" fill="none" stroke="#0E6312" stroke-miterlimit="10" x1="5.714" y1="6.038" x2="13.49" y2="13.816"/>
</g>
</svg>
