<svg xmlns="http://www.w3.org/2000/svg" viewBox="0 0 21 12">
<defs>
<style>.a{fill:#cccccc;}</style>
</defs>
<title>Disabled</title>
<path class="a" d="M529.77,2636.2L528,2638h0.52a2.5,2.5,0,0,1,0,5h-0.55a4.5,4.5,0,0,0-1.83-3.13l-1.43,1.44a2.5,2.5,0,0,1,1.25,1.69H523l-1.95,2c0.14,0,.28,0,0.43,0h4a2.49,2.49,0,0,1-2,1H520l-2,2h5.45a4.49,4.49,0,0,0,4.22-3h0.78A4.49,4.49,0,0,0,529.77,2636.2Z" transform="translate(-512 -2636)"/><path class="a" d="M517.18,2646H516.5a2.5,2.5,0,0,1,0-5h0.55a4.51,4.51,0,0,0,1.92,3.2l1.45-1.45a2.5,2.5,0,0,1-1.37-1.75h3.11l1.93-1.94a4.41,4.41,0,0,0-.59-0.06h-4a2.49,2.49,0,0,1,2-1h3.65l2-2H521.5a4.49,4.49,0,0,0-4.22,3H516.5a4.49,4.49,0,0,0-1.14,8.83Z" transform="translate(-512 -2636)"/>
</svg>