<svg width="48" height="48" viewBox="0 0 48 48" fill="none" xmlns="http://www.w3.org/2000/svg">
<path fill-rule="evenodd" clip-rule="evenodd" d="M31.9996 17.0298C31.9999 17.0199 32 17.0099 32 17C32 15.3431 28.4183 14 24 14C19.5817 14 16 15.3431 16 17V31.1541L16.0873 31.8991C16.1382 32.6887 17.0036 33.4709 18.5091 34.0669C22.1635 35.311 26.1128 35.311 29.7673 34.0669C31.3236 33.456 32 32.644 32 31.832L31.9996 17.0298Z" fill="#177FE6"/>
<path fill-rule="evenodd" clip-rule="evenodd" d="M31.9996 17.0298C31.9999 17.0199 32 17.0099 32 17C32 15.3431 28.4183 14 24 14C19.5817 14 16 15.3431 16 17V31.1541L16.0873 31.8991C16.1382 32.6887 17.0036 33.4709 18.5091 34.0669C22.1635 35.311 26.1128 35.311 29.7673 34.0669C31.3236 33.456 32 32.644 32 31.832L31.9996 17.0298Z" fill="white" fill-opacity="0.7"/>
<path d="M32 26.0298V31.832C32 32.644 31.3236 33.456 29.7673 34.0669C26.1128 35.311 22.1635 35.311 18.5091 34.0669C17.0036 33.4709 16.1382 32.6887 16.0873 31.8991L16 31.1541V26" fill="#177FE6"/>
<path fill-rule="evenodd" clip-rule="evenodd" d="M30.1052 16.6113C30.1053 16.6113 30.1043 16.6125 30.1022 16.615C30.104 16.6125 30.1051 16.6113 30.1052 16.6113ZM28.9546 16.7513C29.1815 16.8364 29.3715 16.9207 29.5283 17C29.3715 17.0793 29.1815 17.1636 28.9546 17.2487C27.7841 17.6876 26.0328 18 24 18C21.9672 18 20.2159 17.6876 19.0454 17.2487C18.8185 17.1636 18.6285 17.0793 18.4717 17C18.6285 16.9207 18.8185 16.8364 19.0454 16.7513C20.2159 16.3124 21.9672 16 24 16C26.0328 16 27.7841 16.3124 28.9546 16.7513ZM17.8948 16.6113C17.8949 16.6113 17.896 16.6125 17.8978 16.615C17.8957 16.6125 17.8947 16.6113 17.8948 16.6113ZM31.9996 17.0298C31.9999 17.0199 32 17.0099 32 17C32 15.3431 28.4183 14 24 14C19.5817 14 16 15.3431 16 17V31.1541L16.0873 31.8991C16.1382 32.6887 17.0036 33.4709 18.5091 34.0669C22.1635 35.311 26.1128 35.311 29.7673 34.0669C31.3236 33.456 32 32.644 32 31.832V17.0298L31.9996 17.0298ZM30 18.9844C28.5341 19.6072 26.3894 20 24 20C21.6106 20 19.4659 19.6072 18 18.9844V31.0374L18.0588 31.5396C18.0676 31.548 18.0775 31.5572 18.0885 31.5671C18.2622 31.723 18.6115 31.952 19.2012 32.1897C22.4093 33.2704 25.8695 33.2701 29.0775 32.1889C29.6212 31.971 29.8887 31.7721 30 31.6646V18.9844ZM17.9985 31.4739C17.9987 31.4739 18.0008 31.4765 18.0042 31.4818C18 31.4766 17.9983 31.474 17.9985 31.4739Z" fill="#404040"/>
<mask id="mask0" mask-type="alpha" maskUnits="userSpaceOnUse" x="16" y="14" width="16" height="21">
<path d="M31.9996 17.0298C31.9999 17.0199 32 17.0099 32 17C32 15.3431 28.4183 14 24 14C19.5817 14 16 15.3431 16 17V31.1541L16.0873 31.8991C16.1382 32.6887 17.0036 33.4709 18.5091 34.0669C22.1635 35.311 26.1128 35.311 29.7673 34.0669C31.3236 33.456 32 32.644 32 31.832L31.9996 17.0298Z" fill="white"/>
</mask>
<g mask="url(#mask0)">
<path d="M16 25C16 26.1046 17.1939 27 18.6667 27C20.1394 27 21.3333 26.1046 21.3333 25C21.3333 26.1046 22.5272 27 24 27C25.4728 27 26.6667 26.1046 26.6667 25C26.6667 26.1046 27.8606 27 29.3333 27C30.8061 27 32 26.1046 32 25" stroke="#404040" stroke-width="2" stroke-miterlimit="10" stroke-linecap="round" stroke-linejoin="round"/>
</g>
</svg>
