<?xml version="1.0" encoding="utf-8"?>
<!-- Generator: Adobe Illustrator 19.2.1, SVG Export Plug-In . SVG Version: 6.00 Build 0)  -->
<svg version="1.1" id="Layer_1" xmlns="http://www.w3.org/2000/svg" xmlns:xlink="http://www.w3.org/1999/xlink" x="0px" y="0px"
	 viewBox="0 0 18 18" style="enable-background:new 0 0 18 18;" xml:space="preserve">
<style type="text/css">
	.st0{fill:#58595B;}
</style>
<g>
	<g>
		<path class="st0" d="M5,10V8V7V5h4h2V1H1v11h4V10z M5,3h4v1H5V3z M4,10H3V8h1V10z M4,7H3V5h1V7z M3,4V3h1v1H3z"/>
	</g>
	<g>
		<path class="st0" d="M6,6v11h10V6H6z M14,9h-4V8h4V9z M10,10h4v2h-4V10z M9,12H8v-2h1V12z M9,8v1H8V8H9z M8,13h1v2H8V13z M10,15
			v-2h4v2H10z"/>
	</g>
	<polygon class="st0" points="5,18 0,18 0,13 2,13 2,16 5,16 	"/>
</g>
</svg>
