<?xml version="1.0" encoding="utf-8"?>
<!-- Generator: Adobe Illustrator 19.2.1, SVG Export Plug-In . SVG Version: 6.00 Build 0)  -->
<svg version="1.1" id="Layer_1" xmlns="http://www.w3.org/2000/svg" xmlns:xlink="http://www.w3.org/1999/xlink" x="0px" y="0px"
	 viewBox="0 0 18 18" style="enable-background:new 0 0 18 18;" xml:space="preserve">
<style type="text/css">
	.st0{display:none;fill-rule:evenodd;clip-rule:evenodd;fill:none;}
	.st1{fill-rule:evenodd;clip-rule:evenodd;fill:#33B5E5;}
	.st2{fill:#FFFFFF;}
	.st3{display:none;fill:none;}
</style>
<symbol  id="New_Symbol_2" viewBox="0 -18 18 18">
	<g id="New_Symbol_67_1_">
		<rect id="XMLID_5503_" y="-18" class="st0" width="18" height="18"/>
		<circle id="XMLID_5495_" class="st1" cx="9" cy="-9" r="9"/>
		<g>
			<path class="st2" d="M9-5C8.45-5,8-4.55,8-4v2c0,0.55,0.45,1,1,1s1-0.45,1-1v-2C10-4.55,9.55-5,9-5z"/>
			<path class="st2" d="M5.88-6.9c-0.26,0-0.52,0.1-0.71,0.3L3.26-4.65c-0.39,0.4-0.38,1.03,0.02,1.41c0.4,0.39,1.03,0.38,1.41-0.02
				L6.6-5.2c0.39-0.4,0.38-1.03-0.02-1.41C6.39-6.81,6.13-6.9,5.88-6.9z"/>
			<path class="st2" d="M4-10H2c-0.55,0-1,0.45-1,1s0.45,1,1,1h2c0.55,0,1-0.45,1-1S4.55-10,4-10z"/>
			<path class="st2" d="M3.97-15.38c-0.25,0-0.5,0.09-0.7,0.29c-0.39,0.39-0.4,1.02-0.02,1.41l1.91,1.96
				c0.39,0.39,1.02,0.4,1.41,0.02c0.39-0.39,0.4-1.02,0.02-1.41l-1.91-1.96C4.49-15.28,4.23-15.38,3.97-15.38z"/>
			<path class="st2" d="M9-17c-0.55,0-1,0.45-1,1v2c0,0.55,0.45,1,1,1s1-0.45,1-1v-2C10-16.55,9.55-17,9-17z"/>
			<path class="st2" d="M14.16-15.38c-0.26,0-0.52,0.1-0.71,0.3l-1.91,1.96c-0.39,0.4-0.38,1.03,0.02,1.41
				c0.4,0.39,1.03,0.38,1.41-0.02l1.91-1.96c0.39-0.4,0.38-1.03-0.02-1.41C14.67-15.28,14.41-15.38,14.16-15.38z"/>
			<path class="st2" d="M16-10h-2c-0.55,0-1,0.45-1,1s0.45,1,1,1h2c0.55,0,1-0.45,1-1S16.55-10,16-10z"/>
			<path class="st2" d="M12.25-6.9c-0.25,0-0.5,0.09-0.7,0.29c-0.39,0.39-0.4,1.02-0.02,1.41l1.91,1.96
				c0.38,0.39,1.02,0.4,1.41,0.02s0.4-1.02,0.02-1.41L12.96-6.6C12.77-6.8,12.51-6.9,12.25-6.9z"/>
		</g>
	</g>
	<rect y="-18" class="st3" width="18" height="18"/>
</symbol>
<use xlink:href="#New_Symbol_2"  width="18" height="18" id="XMLID_209_" y="-18" transform="matrix(1 0 0 -1 0 0)" style="overflow:visible;"/>
</svg>
