<svg id="_status" xmlns="http://www.w3.org/2000/svg" viewBox="0 0 18 18"><defs><style>.cls-1{fill:#f5881f;}.cls-2{fill:#fff;}</style></defs><title>recovery</title><g id="New_Symbol_74" data-name="New Symbol 74"><circle class="cls-1" cx="643" cy="2081" r="9" transform="translate(-1917.21 -1007.73) rotate(-45)"/><path class="cls-2" d="M637.24,2079.31l-1.92-.56a8,8,0,0,1,.95-2.07l1.68,1.08A5.93,5.93,0,0,0,637.24,2079.31Zm0,3.38-1.92.56a8,8,0,0,0,.95,2.07l1.68-1.08A6,6,0,0,1,637.24,2082.69Zm11-7.74a8,8,0,0,0-1.91-1.23l-0.83,1.82a6,6,0,0,1,1.44.92ZM637,2081a6.17,6.17,0,0,1,.06-0.86l-2-.28a8.1,8.1,0,0,0,0,2.27l2-.28A6.16,6.16,0,0,1,637,2081Zm2.76-5-1.08-1.68a8,8,0,0,0-1.72,1.49l1.51,1.31A6.06,6.06,0,0,1,639.76,2076Zm5.49-2.63A8,8,0,0,0,643,2073v2a6,6,0,0,1,1.69.24Zm-5.58,15a8,8,0,0,0,2.19.64l0.28-2a5.9,5.9,0,0,1-1.64-.48Zm-1.21-3.35-1.51,1.31a8,8,0,0,0,1.72,1.49l1.08-1.68A6,6,0,0,1,638.46,2084.93Zm9.07,0,1.51,1.31a8,8,0,0,0,1.23-1.91l-1.82-.83A6,6,0,0,1,647.54,2084.93Zm-2,1.53,0.83,1.82a8,8,0,0,0,1.92-1.23l-1.31-1.51A6,6,0,0,1,645.49,2086.46ZM643,2087v2a8,8,0,0,0,2.25-.32l-0.56-1.92A6,6,0,0,1,643,2087Zm-3.33-13.28,0.83,1.82a5.91,5.91,0,0,1,1.63-.48l-0.28-2A8,8,0,0,0,639.67,2073.72ZM649,2078a2,2,0,1,0,2,2A2,2,0,0,0,649,2078Z" transform="translate(-634 -2072)"/></g></svg>