<?xml version="1.0" encoding="utf-8"?>
<!-- Generator: Adobe Illustrator 19.2.0, SVG Export Plug-In . SVG Version: 6.00 Build 0)  -->
<svg version="1.1" id="Layer_1" xmlns="http://www.w3.org/2000/svg" xmlns:xlink="http://www.w3.org/1999/xlink" x="0px" y="0px"
	 viewBox="0 0 16 16" style="enable-background:new 0 0 16 16;" xml:space="preserve">
<style type="text/css">
	.st0{fill:#F5881F;}
	.st1{fill:none;}
	.st2{display:none;}
	.st3{display:inline;}
	.st4{fill:none;stroke:#FFFFFF;stroke-width:1.5;stroke-linecap:round;stroke-miterlimit:10;}
	.st5{fill:#FFFFFF;}
</style>
<g id="New_Symbol_73">
	<ellipse transform="matrix(0.7071 -0.7071 0.7071 0.7071 -3.3003 8.0318)" class="st0" cx="8" cy="8" rx="8" ry="8"/>
	<rect class="st1" width="16" height="16"/>
	<g id="XMLID_2_" class="st2">
		<g class="st3">
			<path class="st4" d="M8.1,12.3c2.3,0,4.1-1.9,4.1-4.3s-1.8-4.3-4.1-4.3S4,5.7,4,8"/>
			<g>
				<polygon class="st5" points="7.6,8 0.3,8 4,11.6 				"/>
			</g>
		</g>
	</g>
	<path class="st5" d="M8.1,3.1C5.4,3.1,3.3,5.3,3.3,8H0.9L4,11.6L7.1,8H4.8c0-1.9,1.5-3.4,3.3-3.4c1.8,0,3.3,1.5,3.3,3.4
		c0,1.9-1.5,3.4-3.3,3.4c-0.4,0-0.8,0.3-0.8,0.8s0.3,0.8,0.8,0.8c2.7,0,4.8-2.2,4.8-4.9C12.9,5.3,10.8,3.1,8.1,3.1z"/>
</g>
</svg>
