<?xml version="1.0" encoding="utf-8"?>
<!-- Generator: Adobe Illustrator 19.0.0, SVG Export Plug-In . SVG Version: 6.00 Build 0)  -->
<svg version="1.1" id="Layer_1" xmlns="http://www.w3.org/2000/svg" xmlns:xlink="http://www.w3.org/1999/xlink" x="0px" y="0px"
	 viewBox="0 0 20 20" enable-background="new 0 0 20 20" xml:space="preserve">
<symbol  id="New_Symbol_44" viewBox="0 -18 18 18">
	<polygon id="XMLID_12_" fill-rule="evenodd" clip-rule="evenodd" fill="none" points="18,-18 0,-18 0,0 18,0 	"/>
	<path id="XMLID_9_" fill-rule="evenodd" clip-rule="evenodd" fill="lightgreen" d="M18-9c0-5-4-9-9-9s-9,4-9,9s4,9,9,9S18-4,18-9z"/>
	<path id="XMLID_5_" fill-rule="evenodd" clip-rule="evenodd" fill="#FFFFFF" d="M7.6-13.3l5,3.4c0.6,0.4,0.6,1.2,0,1.6l-5,3.5
		C6.9-4.3,6-4.8,6-5.6v-6.9C6-13.3,6.9-13.8,7.6-13.3z"/>
	<polygon id="XMLID_13_" display="none" fill="none" points="0,0 18,0 18,-18 0,-18 	"/>
</symbol>
<use xlink:href="#New_Symbol_44"  width="18" height="18" id="XMLID_308_" y="-18" transform="matrix(1 0 0 -1 1 1)" overflow="visible"/>
</svg>
