<svg width="20" height="20" viewBox="0 0 20 20" fill="none" xmlns="http://www.w3.org/2000/svg">
    <mask id="mask0" mask-type="alpha" maskUnits="userSpaceOnUse" x="0" y="0" width="20" height="20">
        <path fill-rule="evenodd" clip-rule="evenodd" d="M0 0V8.1C0.3 8 0.7 8 1 8C6 8 10 12 10 17C10 18.1 9.8 19.1 9.5 20H20V0H0Z" fill="#58595B"/>
    </mask>
    <g mask="url(#mask0)">
        <path d="M12.8286 1.28571H2.19995V14.6572H7.6857V17.0572H19V9.17146L14 3.5L12.8286 1.28571Z" fill="#89D5EB"/>
        <path d="M8.53237 7.91425H4.00151C3.89106 7.91425 3.80151 8.0038 3.80151 8.11425V10.2286C3.80151 10.339 3.89106 10.4286 4.00151 10.4286H7.90379C7.94861 10.4286 7.99212 10.4436 8.02736 10.4713L9.51858 11.643C9.55382 11.6707 9.59733 11.6857 9.64215 11.6857H12.2873C12.3977 11.6857 12.4873 11.7752 12.4873 11.8857L12.4873 13.7371C12.4873 13.9124 12.6967 14.0029 12.8243 13.8828L16.2229 10.6841C16.3051 10.6068 16.307 10.4769 16.2272 10.3971L12.8287 6.99853C12.7027 6.87253 12.4873 6.96177 12.4873 7.13995V8.9714C12.4873 9.08186 12.3977 9.1714 12.2873 9.1714H10.2707C10.2259 9.1714 10.1824 9.15635 10.1472 9.12867L8.65593 7.95699C8.62069 7.9293 8.57718 7.91425 8.53237 7.91425Z" fill="white"/>
        <path d="M7.25866 14.8287H1.91577V1H13.2301V3.20001" stroke="#595959" stroke-width="1.5" stroke-miterlimit="10"/>
        <path d="M7.57275 7.60008V3.51434H14.561L18.8871 8.21294V17.343H7.57275V11.0572" stroke="#595959" stroke-width="1.5" stroke-miterlimit="10"/>
        <path d="M3.80151 7.91425H8.53237C8.57718 7.91425 8.62069 7.9293 8.65593 7.95699L10.1472 9.12867C10.1824 9.15635 10.2259 9.1714 10.2707 9.1714H12.2873C12.3977 9.1714 12.4873 9.08186 12.4873 8.9714V7.13995C12.4873 6.96177 12.7027 6.87253 12.8287 6.99853L16.2272 10.3971C16.307 10.4769 16.3051 10.6068 16.2229 10.6841L12.8243 13.8828C12.6967 14.0029 12.4873 13.9124 12.4873 13.7371L12.4873 11.8857C12.4873 11.7752 12.3977 11.6857 12.2873 11.6857H9.64215C9.59733 11.6857 9.55382 11.6707 9.51858 11.643L8.02736 10.4713C7.99212 10.4436 7.94861 10.4286 7.90379 10.4286H3.80151" stroke="#595959" stroke-width="1.5" stroke-miterlimit="10"/>
        <path d="M0.25761 7.91432H3.17191M-1 10.4286H2.54288M3.48581 12.3143H4.74296M1.60054 5.40002H4.51485" stroke="#595959" stroke-width="1.5" stroke-miterlimit="10"/>
    </g>
</svg>