<?xml version="1.0" encoding="utf-8"?>
<!-- Generator: Adobe Illustrator 19.0.0, SVG Export Plug-In . SVG Version: 6.00 Build 0)  -->
<svg version="1.1" id="Layer_1" xmlns="http://www.w3.org/2000/svg" xmlns:xlink="http://www.w3.org/1999/xlink" x="0px" y="0px"
	 viewBox="0 0 20 20" enable-background="new 0 0 20 20" xml:space="preserve">
<g id="XMLID_2559_">
	<path id="XMLID_2661_" fill="#33b5e5" d="M14.9,2.8c-2.7-1-7.2-1-9.9,0C3.5,3.4,2.8,4.2,3.1,5H3v2.5c3.5,1.2,6,4.6,6,8.5
		c0,0.7-0.1,1.3-0.2,2c2.2,0.1,4.5-0.1,6.2-0.7c1.4-0.5,2-1.2,2.1-1.9V15V5h-0.1C17.2,4.2,16.5,3.4,14.9,2.8z"/>
	<path id="XMLID_2563_" fill="#59595B" d="M15.3,1.8c-3-1.1-7.6-1.1-10.6,0C2.3,2.7,2,4,2,4.7c0,0.1,0,0.2,0,0.2C2,4.9,2,5,2,5v2.2
		c0.7,0.2,1.4,0.4,2,0.7V7.2C4,7.3,4.4,7,4.7,7h0C6.2,8,8.1,8.1,10,8.1s3.8-0.2,5.3-0.7c0.3-0.1,0.5-0.1,0.7-0.2v2.1
		c-0.3,0.2-0.7,0.5-1.2,0.7c-2.1,0.8-5.2,0.9-7.8,0.5c0.3,0.4,0.5,0.7,0.8,1.1c0.7,0.1,1.5,0.1,2.2,0.1c1.9,0,3.7-0.3,5.1-0.8
		c0.3-0.1,0.6-0.3,0.9-0.4v2.1c-0.3,0.3-0.7,0.6-1.2,0.8c-1.6,0.6-3.9,0.9-6,0.7c0.1,0.3,0.1,0.7,0.2,1c0.4,0,0.7,0,1.1,0
		c1.9,0,3.7-0.4,5.1-0.9c0.3-0.1,0.6-0.3,0.9-0.4v1.6c0,0.1-0.2,0.5-1.4,1c-1.5,0.6-3.6,0.8-5.7,0.7c-0.1,0.7-0.2,1.3-0.4,2
		C9,19,9.5,19,10,19c1.9,0,3.8-0.3,5.3-0.8c2.3-0.9,2.7-2.1,2.7-2.8V5c0,0,0-0.1,0-0.1c0-0.1,0-0.2,0-0.2C18,4,17.7,2.7,15.3,1.8z
		 M14.6,5.6c-2.5,0.9-6.7,0.9-9.2,0C4.2,5.2,4,4.7,4,4.7s0.2-0.5,1.4-1c2.5-0.9,6.7-0.9,9.2,0c1.2,0.4,1.4,0.9,1.4,1
		S15.8,5.2,14.6,5.6z"/>
</g>
</svg>
