<svg width="60" height="60" viewBox="0 0 60 60" fill="none" xmlns="http://www.w3.org/2000/svg">
<g clip-path="url(#clip0)">
<g filter="url(#filter0_d)">
<path d="M30.5 3C15.2833 3 3 15.2833 3 30.5C3 34.625 3.91667 38.475 5.475 41.9583C6.48333 41.6833 7.49167 41.5 8.5 41.5C14.0917 41.5 18.5833 45.9917 18.5833 51.5833C18.5833 52.775 18.4 53.875 17.9417 54.975C21.7 56.9 26.0083 58 30.5 58C45.7167 58 58 45.7167 58 30.5C58 15.2833 45.7167 3 30.5 3Z" fill="#F7F7F7"/>
</g>
<path d="M29.8354 28.6666H22.8354V32.3333H28.9188L31.2521 34.1666H35.5021L35.5021 37.8333L41.1688 32.5L35.5021 26.8333V30.5H32.1688L29.8354 28.6666Z" fill="white"/>
<path d="M27.8774 38.75H20.0857V18.5833H36.5857V21.7916" stroke="#595959" stroke-width="2" stroke-miterlimit="10"/>
<path d="M28.3354 28.2083V22.25H38.5266L44.8354 29.1021V42.4167H28.3354V33.25" stroke="#595959" stroke-width="2" stroke-miterlimit="10"/>
<path d="M22.8357 28.6666H29.7665C29.8113 28.6666 29.8548 28.6816 29.8901 28.7093L32.1146 30.4572C32.1499 30.4849 32.1934 30.4999 32.2382 30.4999H35.3024C35.4128 30.4999 35.5024 30.4104 35.5024 30.2999V27.3161C35.5024 27.1379 35.7178 27.0487 35.8438 27.1747L41.0233 32.3541C41.103 32.4339 41.1011 32.5639 41.0189 32.6412L35.8394 37.516C35.7118 37.6361 35.5024 37.5456 35.5024 37.3704L35.5024 34.3666C35.5024 34.2561 35.4128 34.1666 35.3024 34.1666H31.3215C31.2767 34.1666 31.2332 34.1515 31.198 34.1238L28.9734 32.376C28.9382 32.3483 28.8947 32.3333 28.8499 32.3333H22.8357" stroke="#595959" stroke-width="2" stroke-miterlimit="10"/>
<path d="M17.6675 28.6666H21.9175M15.8335 32.3333H21.0002M22.3753 35.0833H24.2086M19.6259 24.9999H23.8759" stroke="#595959" stroke-width="2" stroke-miterlimit="10"/>
</g>
<defs>
<filter id="filter0_d" x="1" y="2" width="59" height="59" filterUnits="userSpaceOnUse" color-interpolation-filters="sRGB">
<feFlood flood-opacity="0" result="BackgroundImageFix"/>
<feColorMatrix in="SourceAlpha" type="matrix" values="0 0 0 0 0 0 0 0 0 0 0 0 0 0 0 0 0 0 127 0"/>
<feOffset dy="1"/>
<feGaussianBlur stdDeviation="1"/>
<feColorMatrix type="matrix" values="0 0 0 0 0 0 0 0 0 0 0 0 0 0 0 0 0 0 0.15 0"/>
<feBlend mode="normal" in2="BackgroundImageFix" result="effect1_dropShadow"/>
<feBlend mode="normal" in="SourceGraphic" in2="effect1_dropShadow" result="shape"/>
</filter>
<clipPath id="clip0">
<rect width="60" height="60" fill="white"/>
</clipPath>
</defs>
</svg>
