<svg width="60" height="60" viewBox="0 0 60 60" fill="none" xmlns="http://www.w3.org/2000/svg">
<g clip-path="url(#clip0)">
<g filter="url(#filter0_d)">
<path d="M30.5 3C15.2833 3 3 15.2833 3 30.5C3 34.625 3.91667 38.475 5.475 41.9583C6.48333 41.6833 7.49167 41.5 8.5 41.5C14.0917 41.5 18.5833 45.9917 18.5833 51.5833C18.5833 52.775 18.4 53.875 17.9417 54.975C21.7 56.9 26.0083 58 30.5 58C45.7167 58 58 45.7167 58 30.5C58 15.2833 45.7167 3 30.5 3Z" fill="#F7F7F7"/>
</g>
<path d="M36.0001 18.5695H20.4167V38.7361H28.6667V42.4028H44.2501V29.1111L38.2917 23.1528H36.0001V18.5695Z" fill="#81DDF2"/>
<path d="M29.8354 28.6528H22.8354V32.3195H28.9188L31.2521 34.1528H35.5021L35.5021 37.8195L41.1688 32.4861L35.5021 26.8195V30.4861H32.1688L29.8354 28.6528Z" fill="white"/>
<path d="M27.8774 38.7361H20.0857V18.5695H36.5857V21.7778" stroke="#595959" stroke-width="2" stroke-miterlimit="10"/>
<path d="M28.3352 28.1945V22.2361H38.5264L44.8352 29.0882V42.4028H28.3352V33.2361" stroke="#595959" stroke-width="2" stroke-miterlimit="10"/>
<path d="M22.8357 28.6528H29.7665C29.8113 28.6528 29.8548 28.6678 29.8901 28.6955L32.1146 30.4434C32.1499 30.4711 32.1934 30.4861 32.2382 30.4861H35.3024C35.4128 30.4861 35.5024 30.3966 35.5024 30.2861V27.3023C35.5024 27.1241 35.7178 27.0349 35.8438 27.1609L41.0233 32.3404C41.103 32.4201 41.1011 32.5501 41.0189 32.6274L35.8394 37.5022C35.7118 37.6223 35.5024 37.5318 35.5024 37.3566L35.5024 34.3528C35.5024 34.2423 35.4128 34.1528 35.3024 34.1528H31.3215C31.2767 34.1528 31.2332 34.1377 31.198 34.1101L28.9734 32.3622C28.9382 32.3345 28.8947 32.3195 28.8499 32.3195H22.8357" stroke="#595959" stroke-width="2" stroke-miterlimit="10"/>
<path d="M17.6675 28.6528H21.9175M15.8335 32.3195H21.0002M22.3753 35.0695H24.2086M19.6259 24.9861H23.8759" stroke="#595959" stroke-width="2" stroke-miterlimit="10"/>
</g>
<defs>
<filter id="filter0_d" x="1" y="2" width="59" height="59" filterUnits="userSpaceOnUse" color-interpolation-filters="sRGB">
<feFlood flood-opacity="0" result="BackgroundImageFix"/>
<feColorMatrix in="SourceAlpha" type="matrix" values="0 0 0 0 0 0 0 0 0 0 0 0 0 0 0 0 0 0 127 0"/>
<feOffset dy="1"/>
<feGaussianBlur stdDeviation="1"/>
<feColorMatrix type="matrix" values="0 0 0 0 0 0 0 0 0 0 0 0 0 0 0 0 0 0 0.15 0"/>
<feBlend mode="normal" in2="BackgroundImageFix" result="effect1_dropShadow"/>
<feBlend mode="normal" in="SourceGraphic" in2="effect1_dropShadow" result="shape"/>
</filter>
<clipPath id="clip0">
<rect width="60" height="60" fill="white"/>
</clipPath>
</defs>
</svg>
