<svg xmlns="http://www.w3.org/2000/svg" width="70" height="70" viewBox="0 0 70 70"><title>data set_menu</title><g id="Layer_2" data-name="Layer 2"><g id="Data_Platform" data-name="Data Platform"><rect width="70" height="70" fill="none"/><path d="M30.43,56.49,13.61,46.78a2,2,0,0,1-.73-2.73l12-20.73a7.52,7.52,0,0,1,3.79-2.92l6.54-1.77a5.13,5.13,0,0,1,1.36-.16,7.41,7.41,0,0,1,3.37.77l.87.5-3.5,6.06-3.47-2-1,1.74L42.33,31l1-1.74L39,26.8l3.5-6.06,2.6,1.5a7.63,7.63,0,0,1,3,3.8l1.8,6.25A7.17,7.17,0,0,1,49.28,37l-.82,1.42a14.38,14.38,0,0,1,2,.61L51,38a9.12,9.12,0,0,0,.77-6.26L50,25.48a9.68,9.68,0,0,0-2.52-3.92L51.58,15a3.46,3.46,0,0,0,.35-2.65,3.48,3.48,0,0,0-4.29-2.47,3.47,3.47,0,0,0-2.12,1.62L41.77,18l-.87-.5a9.22,9.22,0,0,0-6.25-.81l-6.54,1.77a9.4,9.4,0,0,0-5,3.85l-12,20.73a4,4,0,0,0,1.47,5.47L31.45,59.39A14.46,14.46,0,0,1,30.43,56.49Zm16.82-44a1.48,1.48,0,0,1,.91-.69A1.46,1.46,0,0,1,49.3,12a1.53,1.53,0,0,1,.7.91,1.48,1.48,0,0,1-.13,1.1l-4,6.39L43.5,19Z" fill="#33b5e5"/><path d="M45,69A16,16,0,1,1,61,53,16,16,0,0,1,45,69Zm0-30A14,14,0,1,0,59,53,14,14,0,0,0,45,39Z" fill="#f5881f"/><rect x="39" y="49" width="2" height="12" fill="#f5881f"/><path d="M56,49V61h1.67q.18-.27.33-.54V49Z" fill="#f5881f"/><path d="M49.5,49A4.51,4.51,0,0,0,45,53.5v4a4.5,4.5,0,0,0,9,0v-4A4.51,4.51,0,0,0,49.5,49ZM52,57.5a2.5,2.5,0,0,1-5,0v-4a2.5,2.5,0,0,1,5,0Z" fill="#f5881f"/><path d="M36,57.5v-4A4.51,4.51,0,0,0,31.5,49a4.44,4.44,0,0,0-1,.11,14,14,0,0,0-.45,2.34A2.47,2.47,0,0,1,31.5,51,2.5,2.5,0,0,1,34,53.5v4A2.5,2.5,0,0,1,31.73,60a15.77,15.77,0,0,0,1.12,1.79A4.49,4.49,0,0,0,36,57.5Z" fill="#f5881f"/><path d="M40,65v2.13a14.8,14.8,0,0,0,2,.57V65Z" fill="#f5881f"/><path d="M46,65v3a16.31,16.31,0,0,0,2-.25V65Z" fill="#f5881f"/><path d="M48,46V38.3a16.31,16.31,0,0,0-2-.25v8Z" fill="#f5881f"/><path d="M54,46V41a14.44,14.44,0,0,0-2-1.28V46Z" fill="#f5881f"/><path d="M58.26,46c-.08-.16-.17-.31-.26-.46V46Z" fill="#f5881f"/><path d="M39.5,47A4.51,4.51,0,0,0,44,42.5v-4a3.44,3.44,0,0,0,0-.45,15.82,15.82,0,0,0-2,.25,1.36,1.36,0,0,1,0,.2v4a2.5,2.5,0,0,1-5,0V40.33a14.77,14.77,0,0,0-2,1.51v.66A4.51,4.51,0,0,0,39.5,47Z" fill="#f5881f"/></g></g></svg>