<svg xmlns="http://www.w3.org/2000/svg" width="70" height="70" viewBox="0 0 70 70"><title>collections_menu</title><g id="Layer_2" data-name="Layer 2"><g id="Data_Platform" data-name="Data Platform"><rect width="70" height="70" fill="none"/><path d="M36.62,60.31l.79-.79c-.11-.17-.2-.35-.3-.52H13a2,2,0,0,1-2-2V48.93a30.26,30.26,0,0,1,.66-5.69,8.9,8.9,0,0,1,2.78-4.39l.1-.08A36.69,36.69,0,0,1,18.7,36c.82-.45,5-1,6.73-1h6.23a7.1,7.1,0,0,1,2.84.48,36.28,36.28,0,0,1,3.68,2.15,24,24,0,0,1,2.9,3,7.58,7.58,0,0,1,.5.71,13,13,0,0,1,1.78-.92,10.47,10.47,0,0,0-.74-1.07A26,26,0,0,0,39.38,36a37.63,37.63,0,0,0-4-2.32A8.43,8.43,0,0,0,31.66,33H25.43c-1.37,0-6.27.42-7.69,1.19a39,39,0,0,0-4.46,3l-.1.07a10.83,10.83,0,0,0-3.49,5.51A31.78,31.78,0,0,0,9,48.93V57a4,4,0,0,0,4,4H36.23A1.45,1.45,0,0,1,36.62,60.31Z" fill="#33b5e5"/><path d="M48.48,69.5a4.63,4.63,0,0,1-3.14-1.33,2.36,2.36,0,0,1-.73-1.75v-.34a14,14,0,0,1-3-1.26,3.85,3.85,0,0,1-3.8.57,4.28,4.28,0,0,1-2.6-4,2.4,2.4,0,0,1,.72-1.77l.24-.24a13.74,13.74,0,0,1-1.25-3,3.88,3.88,0,0,1-3.09-2.29,4.3,4.3,0,0,1,1-4.68,2.37,2.37,0,0,1,1.75-.74h.34a14.47,14.47,0,0,1,1.25-3,3.87,3.87,0,0,1-.56-3.81,4.27,4.27,0,0,1,4-2.6,2.41,2.41,0,0,1,1.77.72l.24.25a13.7,13.7,0,0,1,3-1.26,3.9,3.9,0,0,1,2.29-3.09,4.29,4.29,0,0,1,4.68,1,2.37,2.37,0,0,1,.74,1.75v.34a14.12,14.12,0,0,1,3,1.26,3.85,3.85,0,0,1,3.8-.57,4.28,4.28,0,0,1,2.6,4A2.36,2.36,0,0,1,61,45.4l-.24.24a14.22,14.22,0,0,1,1.25,3h.33a2.41,2.41,0,0,1,1.76.74,4.29,4.29,0,0,1,1,4.68A3.88,3.88,0,0,1,62,56.34a14.22,14.22,0,0,1-1.26,3,3.9,3.9,0,0,1,.57,3.81,4.29,4.29,0,0,1-4,2.6,2.37,2.37,0,0,1-1.76-.72l-.24-.25a14,14,0,0,1-3,1.26A3.88,3.88,0,0,1,50,69.18,4,4,0,0,1,48.48,69.5Zm-7.16-7.2.67.43a12.13,12.13,0,0,0,3.83,1.6l.79.17v1.92a.38.38,0,0,0,.09.28,2.3,2.3,0,0,0,2.52.64,1.85,1.85,0,0,0,1.12-1.71V64.5l.78-.17A12.13,12.13,0,0,0,55,62.73l.67-.43L57,63.66a.5.5,0,0,0,.27.14,2.33,2.33,0,0,0,2.23-1.33,1.88,1.88,0,0,0-.42-2l-.8-.8.43-.68a11.92,11.92,0,0,0,1.59-3.83l.18-.78h1.13a1.87,1.87,0,0,0,1.71-1.12,2.35,2.35,0,0,0-.64-2.53.48.48,0,0,0-.29-.09H60.46l-.18-.78A11.92,11.92,0,0,0,58.69,46l-.43-.68L59.62,44a.38.38,0,0,0,.13-.27,2.33,2.33,0,0,0-1.33-2.24,1.88,1.88,0,0,0-2,.42l-.81.81L55,42.27a12.13,12.13,0,0,0-3.83-1.6l-.78-.17V38.58a.38.38,0,0,0-.1-.28,2.28,2.28,0,0,0-2.51-.64,1.86,1.86,0,0,0-1.12,1.71V40.5l-.79.17A12.13,12.13,0,0,0,42,42.27l-.67.43L40,41.34a.53.53,0,0,0-.27-.14,2.33,2.33,0,0,0-2.23,1.33,1.88,1.88,0,0,0,.42,2l.8.8-.43.68a11.92,11.92,0,0,0-1.59,3.83l-.18.78H34.57a.38.38,0,0,0-.28.1,2.29,2.29,0,0,0-.64,2.52,1.85,1.85,0,0,0,1.7,1.12h1.13l.18.78A11.92,11.92,0,0,0,38.25,59l.43.68L37.33,61a.36.36,0,0,0-.14.27,2.33,2.33,0,0,0,1.33,2.24,1.86,1.86,0,0,0,2-.42Z" fill="#f5881f"/><path d="M48.48,59.81h0a5,5,0,0,1-5-5V50.19a5,5,0,0,1,10,0v4.62A5,5,0,0,1,48.48,59.81Zm0-12.62a3,3,0,0,0-3,3v4.62a3,3,0,0,0,3,3h0a3,3,0,0,0,3-3V50.19A3,3,0,0,0,48.48,47.19Z" fill="#f5881f"/><path d="M27,32a7.5,7.5,0,0,1-7.5-7.5v-7a7.5,7.5,0,0,1,15,0v7A7.5,7.5,0,0,1,27,32Zm0-20a5.51,5.51,0,0,0-5.5,5.5v7a5.5,5.5,0,0,0,11,0v-7A5.51,5.51,0,0,0,27,12Z" fill="#33b5e5"/><rect x="26" y="18" width="2" height="6" fill="#33b5e5"/></g></g></svg>