<svg xmlns="http://www.w3.org/2000/svg" viewBox="0 0 25 25"><defs><style>.a{fill:#b20814;}.b{fill:none;stroke:#fff;stroke-linecap:round;stroke-linejoin:round;stroke-width:2px;}</style></defs><title>3</title><path class="a" d="M683.55,2133a11.5,11.5,0,1,1,8.13-3.37A11.42,11.42,0,0,1,683.55,2133Z" transform="translate(-671.05 -2109)"/><path class="a" d="M683.56,2111a10.5,10.5,0,1,1-7.42,3.08,10.43,10.43,0,0,1,7.42-3.08m0-2a12.5,12.5,0,1,0,8.84,3.66,12.46,12.46,0,0,0-8.84-3.66h0Z" transform="translate(-671.05 -2109)"/><line class="b" x1="8.29" y1="8.33" x2="17.24" y2="17.27"/><line class="b" x1="8.29" y1="17.27" x2="17.24" y2="8.33"/></svg>