<?xml version="1.0" encoding="utf-8"?>
<!-- Generator: Adobe Illustrator 15.1.0, SVG Export Plug-In . SVG Version: 6.00 Build 0)  -->
<!DOCTYPE svg PUBLIC "-//W3C//DTD SVG 1.1//EN" "http://www.w3.org/Graphics/SVG/1.1/DTD/svg11.dtd">
<svg version="1.1" id="Layer_2" xmlns="http://www.w3.org/2000/svg" xmlns:xlink="http://www.w3.org/1999/xlink" x="0px" y="0px"
	 width="20px" height="20px" viewBox="0 0 20 20" enable-background="new 0 0 20 20" xml:space="preserve">
<g>
	<g>
		<path fill="#B20814" d="M10.297,16.25c-1.603,0-3.109-0.624-4.242-1.757c-2.339-2.34-2.339-6.146,0-8.486
			c1.133-1.133,2.64-1.757,4.243-1.757c1.603,0,3.11,0.624,4.243,1.757c2.34,2.34,2.34,6.146,0,8.486
			C13.406,15.626,11.899,16.25,10.297,16.25z"/>
		<path fill="#B20814" d="M10.297,5.25c1.335,0,2.591,0.52,3.536,1.464c1.949,1.95,1.949,5.122,0,7.072
			c-0.944,0.944-2.2,1.464-3.536,1.464c-1.335,0-2.591-0.52-3.535-1.464c-1.95-1.95-1.95-5.123,0-7.072
			C7.706,5.77,8.962,5.25,10.297,5.25 M10.297,3.25c-1.792,0-3.583,0.683-4.95,2.05c-2.734,2.734-2.733,7.167,0,9.9
			c1.367,1.366,3.158,2.05,4.949,2.05s3.583-0.684,4.95-2.05c2.733-2.733,2.733-7.167,0-9.9C13.881,3.933,12.089,3.25,10.297,3.25
			L10.297,3.25z"/>
	</g>
	
		<line fill="#FFFFFF" stroke="#FFFFFF" stroke-width="2" stroke-linecap="round" stroke-linejoin="round" stroke-miterlimit="10" x1="7.459" y1="8.057" x2="12.459" y2="12.386"/>
	
		<line fill="#FFFFFF" stroke="#FFFFFF" stroke-width="2" stroke-linecap="round" stroke-linejoin="round" stroke-miterlimit="10" x1="7.459" y1="12.385" x2="12.459" y2="8.056"/>
</g>
</svg>
