<svg xmlns="http://www.w3.org/2000/svg" viewBox="0 0 21.62 17.69"><defs><style>.a{fill:#f5881f;}.b{fill:#fff;}</style></defs><title>alert</title><path class="a" d="M20.81,160a0.58,0.58,0,0,1-.47-1l10.15-16.36a0.57,0.57,0,0,1,1.06,0l10.15,16.4a0.57,0.57,0,0,1-.47.95H20.81Z" transform="translate(-20.21 -142.31)"/><path class="b" d="M32,153c0,0.54,0,1-1,1s-1-.44-1-1v-4.68c0-.54,0-1,1-1s1,0.44,1,1V153Z" transform="translate(-20.21 -142.31)"/><path class="b" d="M32,157.72c0,0.43,0,.79-1,0.79s-1-.36-1-0.79v-0.84c0-.43,0-0.79,1-0.79s1,0.36,1,.79v0.84Z" transform="translate(-20.21 -142.31)"/></svg>