<?xml version="1.0" encoding="utf-8"?>
<!-- Generator: Adobe Illustrator 18.1.1, SVG Export Plug-In . SVG Version: 6.00 Build 0)  -->
<svg version="1.1" id="Layer_1" xmlns="http://www.w3.org/2000/svg" xmlns:xlink="http://www.w3.org/1999/xlink" x="0px" y="0px"
	 viewBox="0 0 7.7 7.2" enable-background="new 0 0 7.7 7.2" xml:space="preserve">
<path fill="#4B4B50" d="M4.9,3.4l1.9-1.9c0.3-0.3,0.3-0.8,0-1.1C6.5,0.1,6,0.1,5.7,0.4L3.9,2.3L2,0.4C1.7,0.1,1.2,0.1,1,0.4
	S0.7,1.2,1,1.5l1.9,1.9L1,5.2C0.7,5.5,0.7,6,1,6.3c0.1,0.1,0.3,0.2,0.5,0.2c0.2,0,0.4-0.1,0.5-0.2l1.9-1.9l1.9,1.9
	c0.1,0.1,0.3,0.2,0.5,0.2c0.2,0,0.4-0.1,0.5-0.2c0.3-0.3,0.3-0.8,0-1.1L4.9,3.4z"/>
</svg>
