<svg id="Layer_59" data-name="Layer 59" xmlns="http://www.w3.org/2000/svg" xmlns:xlink="http://www.w3.org/1999/xlink" viewBox="0 0 24 24"><defs><style>.cls-1,.cls-6{fill:#fff;}.cls-2{opacity:0.5;}.cls-3{opacity:0.3;}.cls-4{fill:none;}.cls-5{fill:#33b5e5;}.cls-6{stroke:#0d2d39;stroke-miterlimit:10;}</style><symbol id="New_Symbol_85" data-name="New Symbol 85" viewBox="0 0 16 16"><polygon class="cls-1" points="6 15 6 10 10 10 6 15"/><rect class="cls-1" x="2" y="2" width="12" height="9" rx="4.5" ry="4.5"/></symbol></defs><title>All_Icons and Objects_018</title><rect class="cls-4" y="3" width="18" height="18"/><circle class="cls-5" cx="9" cy="12" r="9"/><rect class="cls-4" y="3" width="18" height="18"/><use id="New_Symbol_85-3" data-name="New Symbol 85" width="16" height="16" transform="translate(1 4)" xlink:href="#New_Symbol_85"/><path class="cls-6" d="M23.5,8.6l-2-1.2V5.1c0-1.84-1-3.68-4.22-3.6S13.5,3.26,13.5,5.1V7.4l-2,1.2v1.9h4V11a1.81,1.81,0,0,0,2,1.5,1.81,1.81,0,0,0,2-1.5V10.5h4V8.6Z"/></svg>