<?xml version="1.0" encoding="utf-8"?>
<!-- Generator: Adobe Illustrator 19.2.1, SVG Export Plug-In . SVG Version: 6.00 Build 0)  -->
<svg version="1.1" id="Layer_1" xmlns="http://www.w3.org/2000/svg" xmlns:xlink="http://www.w3.org/1999/xlink" x="0px" y="0px"
	 viewBox="0 0 60 60" style="enable-background:new 0 0 60 60;" xml:space="preserve">
<style type="text/css">
	.st0{fill:#4A4B50;}
	.st1{fill:none;}
	.st2{display:none;fill:none;}
	.st3{opacity:0.15;}
	.st4{fill:#AD6FBC;}
	.st5{opacity:0.2;clip-path:url(#XMLID_2_);fill-rule:evenodd;clip-rule:evenodd;fill:#FFFFFF;}
	.st6{display:none;fill:#4A4B50;}
	.st7{display:none;fill:#DEC5E4;}
	.st8{fill:#EBDCEF;}
</style>
<symbol  id="New_Symbol_28" viewBox="0 -60 60 60">
	<circle class="st0" cx="30" cy="-30" r="30"/>
	<rect y="-60" class="st1" width="60" height="60"/>
	<rect y="-60" class="st2" width="60" height="60"/>
</symbol>
<g id="schemaType_x5F_Aggregated_1_">
	
		<use xlink:href="#New_Symbol_28"  width="60" height="60" id="XMLID_2022_" y="-60" transform="matrix(1 0 0 -1 0 0)" style="overflow:visible;"/>
	<g>
		<g class="st3">
			<path d="M49,19c0-1.1-0.9-2-2-2H19c-1.1,0-2,0.9-2,2v28c0,1.1,0.9,2,2,2h28c1.1,0,2-0.9,2-2V19z M27,30v4h-7v-4H27z M20,28v-4h7
				v4H20z M27,36v4h-7v-4H27z M27,42v4h-7v-4H27z M37,30v4h-8v-4H37z M29,28v-4h8v4H29z M37,36v4h-8v-4H37z M37,42v4h-8v-4H37z
				 M46,30v4h-7v-4H46z M39,28v-4h7v4H39z M46,36v4h-7v-4H46z M46,42v4h-7v-4H46z"/>
		</g>
		<g>
			<path class="st4" d="M46,16c0-1.1-0.9-2-2-2H16c-1.1,0-2,0.9-2,2v28c0,1.1,0.9,2,2,2h28c1.1,0,2-0.9,2-2V16z M24,27v4h-7v-4H24z
				 M17,25v-4h7v4H17z M24,33v4h-7v-4H24z M24,39v4h-7v-4H24z M34,27v4h-8v-4H34z M26,25v-4h8v4H26z M34,33v4h-8v-4H34z M34,39v4h-8
				v-4H34z M43,27v4h-7v-4H43z M36,25v-4h7v4H36z M43,33v4h-7v-4H43z M43,39v4h-7v-4H43z"/>
		</g>
	</g>
	<g id="XMLID_2027_">
		<defs>
			<path id="XMLID_2063_" d="M46,16c0-1.1-0.9-2-2-2H16c-1.1,0-2,0.9-2,2v28c0,1.1,0.9,2,2,2h28c1.1,0,2-0.9,2-2V16z M24,27v4h-7v-4
				H24z M17,25v-4h7v4H17z M24,33v4h-7v-4H24z M24,39v4h-7v-4H24z M34,27v4h-8v-4H34z M26,25v-4h8v4H26z M34,33v4h-8v-4H34z M34,39
				v4h-8v-4H34z M43,27v4h-7v-4H43z M36,25v-4h7v4H36z M43,33v4h-7v-4H43z M43,39v4h-7v-4H43z"/>
		</defs>
		<clipPath id="XMLID_2_">
			<use xlink:href="#XMLID_2063_"  style="overflow:visible;"/>
		</clipPath>
		<rect id="XMLID_2313_" x="30" y="13" class="st5" width="19" height="36"/>
	</g>
	<path class="st6" d="M32.74,25L32.74,25h-0.2c-1.36,0-3.05,0.59-3.73,2.1c-0.66,1.47-0.17,3.01,0.52,4.02
		c0.38,0.55,0.78,0.94,1.14,1.31l0.16,0.15c0.07,0.07,0.13,0.13,0.2,0.19c0.06,0.06,0.12,0.12,0.18,0.19l3.22,3.54l-3.22,3.55
		c-0.12,0.13-0.24,0.26-0.37,0.39c-0.42,0.44-0.89,0.92-1.31,1.55c-0.66,0.97-1.19,2.64-0.51,4.14c0.57,1.26,2.12,2.57,3.73,2.59
		c0.91,0.01,1.63,0.05,2.62,0.12c0.79,0.05,1.71,0.11,2.98,0.16l0.04,0h0.04h6.37h0.7c2.35,0,4.1-1.84,4.17-4.38
		c0.02-0.86,0.02-1.79,0-2.54c-0.07-2.33-1.76-4.11-3.93-4.13c-1.79,0-3.25,1.25-3.75,3.04h-0.8c0.22-0.24,0.45-0.49,0.67-0.73
		c0.22-0.24,0.45-0.49,0.67-0.73c0.66-0.72,1.12-1.66,1.28-2.57l0.06-0.34l-0.06-0.34c-0.18-1.05-0.76-1.69-1.28-2.26
		c-0.34-0.38-0.68-0.71-1-1.03H42c0.62,1.33,1.91,2.17,3.53,2.17c2.19-0.02,3.88-1.76,3.95-4.06c0.02-0.76,0.02-1.34,0-2.2
		C49.43,26.5,47.83,25,45.32,25h-0.7h-6.37c-1.02,0-1.99,0.05-2.92-0.01C34.43,24.94,33.59,25,32.74,25L32.74,25z"/>
	<path class="st7" d="M33,27c0,0,3.19,0,5.24,0h6.37h0.7c1.34,0,2.13,0.58,2.17,1.96c0.02,0.82,0.02,1.36,0,2.09
		c-0.03,1.21-0.83,2.11-1.95,2.12c-1.11,0-1.88-0.71-1.93-1.94C43.6,31.08,43.6,31,43.6,31h-6.75c1.33,2,2.67,2.9,4.01,4.37
		c0.45,0.49,0.71,0.78,0.79,1.25c-0.08,0.47-0.34,1.07-0.79,1.56C39.52,39.66,38.18,41,36.85,43h6.75c0,0,0-0.58,0.01-0.73
		c0.05-1.23,0.82-2.32,1.93-2.32c1.12,0.01,1.92,0.98,1.95,2.18c0.02,0.73,0.02,1.61,0,2.44C47.45,45.95,46.66,47,45.32,47h-0.7
		h-6.37c-2.87-0.13-3.97-0.26-5.68-0.28c-0.68-0.01-1.61-0.7-1.93-1.41c-0.36-0.8,0.07-1.78,0.35-2.19
		c0.33-0.48,0.71-0.88,1.09-1.27c0.14-0.15,0.28-0.29,0.42-0.45l3.98-4.39l0.46-0.5L36.48,36l-3.98-4.39
		c-0.14-0.15-0.28-0.28-0.42-0.43c-0.37-0.39-0.76-0.76-1.09-1.24c-0.28-0.41-0.71-1.22-0.35-2.02c0.32-0.71,1.25-0.93,1.93-0.93
		C32.63,27,33,27,33,27"/>
	<g>
		<path class="st8" d="M35.51,47c-1.07,0-1.92-0.51-2.31-1.41c-0.24-0.54-0.47-1.6,0.6-2.69l5.46-5.55l-3.48-3.94
			c-0.71-0.8-1.43-1.61-2.13-2.42c-0.58-0.68-0.79-1.54-0.56-2.31c0.22-0.75,0.82-1.32,1.63-1.55c0.34-0.1,0.68-0.11,0.99-0.11
			l12.46,0c1.77,0,2.83,1.03,2.83,2.74v0.53c0,0.54,0,1.08,0,1.62c-0.01,1.3-1,2.29-2.29,2.31c0,0,0,0,0,0
			c-1.36,0-2.34-0.74-2.36-2.07c0-0.12,0-0.13,0-0.13h-6.06c0,0,2.8,2.94,3.59,3.84c1.07,1.22,1.04,2.2-0.11,3.36L40.68,42h5.66
			c0,0,0-0.3,0-0.56c0.02-1.33,1.01-2.23,2.32-2.23c1.32,0,2.32,1.06,2.33,2.39C51,42.53,51,43.48,51,44.4
			c-0.01,1.51-1.08,2.58-2.6,2.58c-2.08,0.01-4.16,0.01-6.23,0.01L35.51,47z"/>
		<path class="st0" d="M42.96,28c1.74,0,3.48,0,5.21,0c1.23,0,1.82,0.57,1.83,1.74c0,0.71,0.01,1.33,0,2.04
			C49.99,32.55,49.45,33,48.7,33c-0.01,0-0.01,0-0.02,0c-0.77,0-1.31-0.21-1.33-0.99c-0.01-0.44,0-1.01,0-1.01
			c-3.09,0-6.14,0-9.27,0c0.54,0,1.05,0.96,1.55,1.54c1.17,1.32,2.34,2.53,3.5,3.85c0.72,0.82,0.7,1.5-0.07,2.28
			c-1.46,1.49-2.93,2.72-4.39,4.21c-0.1,0.11-0.2,0.12-0.35,0.12c3.04,0,6.01,0,9.03,0c0,0-0.01-1.13,0-1.71
			C47.36,40.5,47.91,40,48.67,40c0,0,0,0,0,0c0.76,0,1.32,0.73,1.32,1.51c0.01,0.92,0.01,1.91,0,2.83
			c-0.01,0.95-0.62,1.61-1.61,1.61c-2.04,0.01-4.07,0.03-6.11,0.03c-2.26,0-4.51,0.01-6.77,0.01c-0.64,0-1.14-0.23-1.39-0.81
			c-0.27-0.61-0.06-1.12,0.4-1.58c1.94-1.97,3.88-3.94,5.82-5.91c0.1-0.1,0.19-0.2,0.3-0.31c-1.08-1.22-2.14-2.43-3.21-3.63
			c-1-1.14-2.02-2.27-3.01-3.41c-0.74-0.86-0.45-1.95,0.59-2.25c0.23-0.06,0.48-0.07,0.72-0.07C38.13,28,40.55,28,42.96,28
			 M42.96,26c-2.41,0-4.83,0-7.24,0c-0.37,0-0.8,0.02-1.26,0.15c-1.13,0.32-2,1.16-2.32,2.23c-0.33,1.1-0.04,2.32,0.76,3.25
			c0.7,0.81,1.41,1.61,2.12,2.41l0.9,1.02l1.98,2.24c-1.6,1.63-3.21,3.26-4.81,4.89c-1.09,1.1-1.38,2.48-0.8,3.8
			c0.56,1.28,1.74,2.01,3.22,2.01l2.31,0l4.46,0c2.04,0,4.08,0,6.11-0.01c2.07-0.01,3.58-1.5,3.6-3.56c0.01-0.93,0.01-1.85,0-2.78
			c-0.01-1.87-1.48-3.55-3.32-3.55c-1.78,0-3.19,1.9-3.32,2.9h-2.28c0.47,0,0.94-0.73,1.41-1.21c1.49-1.52,1.55-3.12,0.14-4.72
			C43.92,34.27,43.21,33,42.5,33h2.91c0.3,1,1.61,2.43,3.26,2.43c1.89-0.02,3.3-1.55,3.32-3.41c0.01-0.55,0-1.15,0-1.7l0-0.55
			c0-2.27-1.5-3.75-3.82-3.75C46.44,26.01,44.7,26,42.96,26L42.96,26z"/>
	</g>
</g>
</svg>
