<svg xmlns="http://www.w3.org/2000/svg" xmlns:xlink="http://www.w3.org/1999/xlink" viewBox="0 0 60 60"><defs><style>.a{fill:none;}.b{fill:#4a4b50;}.c{isolation:isolate;}.d{opacity:0.15;}.e{fill:#ad6fbc;}.f{clip-path:url(#a);}.g{fill:#fff;opacity:0.2;mix-blend-mode:overlay;}.h{clip-path:url(#b);}.i{fill:#d9a8e5;}.j{clip-path:url(#c);}</style><clipPath id="a" transform="translate(-5086 -2139)"><path class="a" d="M5132,2155a2,2,0,0,0-2-2h-28a2,2,0,0,0-2,2v28a2,2,0,0,0,2,2h28a2,2,0,0,0,2-2v-28Zm-22,11v4h-7v-4h7Zm-7-2v-4h7v4h-7Zm7,8v4h-7v-4h7Zm0,6v4h-7v-4h7Zm10-12v4h-8v-4h8Zm-8-2v-4h8v4h-8Zm8,8v4h-8v-4h8Zm0,6v4h-8v-4h8Zm9-12v4h-7v-4h7Zm-7-2v-4h7v4h-7Zm7,8v4h-7v-4h7Zm0,6v4h-7v-4h7Z"/></clipPath><clipPath id="b" transform="translate(-5086 -2139)"><circle class="a" cx="5116" cy="2169" r="30"/></clipPath><clipPath id="c" transform="translate(-5086 -2139)"><path class="a" d="M5133,2177.46v-6.21h0l-6.5-3-6.5,3v6.22l-6,3v6.39l6,3,6-3v0l6.48,3,6.52-3v-6.39Zm-6.44-8.27,4.18,2.06-4.18,2.07-4.18-2.07Zm-6.09,13.37-4.18-2.07,4.18-2.06,4.18,2.06Zm12.15,0-4.18-2.07,4.18-2.06,4.18,2.06Z"/></clipPath><symbol id="d" viewBox="0 0 60 60"><circle class="b" cx="30" cy="30" r="30"/><rect class="a" width="60" height="60"/></symbol></defs><title>TypeDataWarehouse</title><g class="c"><use width="60" height="60" xlink:href="#d"/><g class="d"><path d="M5135,2158a2,2,0,0,0-2-2h-28a2,2,0,0,0-2,2v28a2,2,0,0,0,2,2h28a2,2,0,0,0,2-2v-28Zm-22,11v4h-7v-4h7Zm-7-2v-4h7v4h-7Zm7,8v4h-7v-4h7Zm0,6v4h-7v-4h7Zm10-12v4h-8v-4h8Zm-8-2v-4h8v4h-8Zm8,8v4h-8v-4h8Zm0,6v4h-8v-4h8Zm9-12v4h-7v-4h7Zm-7-2v-4h7v4h-7Zm7,8v4h-7v-4h7Zm0,6v4h-7v-4h7Z" transform="translate(-5086 -2139)"/></g><path class="e" d="M5132,2155a2,2,0,0,0-2-2h-28a2,2,0,0,0-2,2v28a2,2,0,0,0,2,2h28a2,2,0,0,0,2-2v-28Zm-22,11v4h-7v-4h7Zm-7-2v-4h7v4h-7Zm7,8v4h-7v-4h7Zm0,6v4h-7v-4h7Zm10-12v4h-8v-4h8Zm-8-2v-4h8v4h-8Zm8,8v4h-8v-4h8Zm0,6v4h-8v-4h8Zm9-12v4h-7v-4h7Zm-7-2v-4h7v4h-7Zm7,8v4h-7v-4h7Zm0,6v4h-7v-4h7Z" transform="translate(-5086 -2139)"/><g class="f"><rect class="g" x="30" y="12" width="27" height="47"/></g><g class="h"><path class="i" d="M5113,2187.8v-8.24l6-3v-6.26l7.5-3.71,7.5,3.72v6.24l6,3v8.27l-7.77,3.71-6.28-3-5.75,3Zm7.47-6.92,0.79-.39-0.79-.39-0.79.39Zm12.15,0,0.79-.39-0.79-.39-0.79.39Zm-6.06-9.21,0.79-.39-0.79-.39-0.79.39Z" transform="translate(-5086 -2139)"/><path class="b" d="M5126.5,2168.23l6.5,3v6.21l6,3v6.39l-6.52,3-6.48-3v0l-6,3-6-3v-6.39l6-3v-6.22l6.5-3m0.06,5.08,4.18-2.07-4.18-2.06-4.18,2.06,4.18,2.07m6.06,9.2,4.18-2.07-4.18-2.06-4.18,2.06,4.18,2.07m-12.15,0,4.18-2.07-4.18-2.06-4.18,2.06,4.18,2.07m6-17.63-1.27.6-6.46,3-1.76.81v6.29l-4.33,2.18-1.67.83v10.08l1.7,0.83,6,3,1.37,0.69,1.36-.69,4.66-2.36,5.08,2.37,1.27,0.59,1.27-.59,6.52-3,1.8-.81v-10.15l-1.68-.83-4.32-2.16v-6.27l-1.76-.81-6.45-3-1.29-.6h0Z" transform="translate(-5086 -2139)"/><g class="j"><rect class="g" x="40" y="26" width="16" height="28"/></g></g></g></svg>