<svg xmlns="http://www.w3.org/2000/svg" width="16" height="16" viewBox="0 0 16 16"><title>Asset 18</title><g id="Layer_2" data-name="Layer 2"><g id="_compose"><circle cx="8" cy="8" r="8" fill="#4a4b50"/><path d="M10.94,11.38c0-.33,0-.65,0-1a.73.73,0,1,1,1.46,0q0,.75,0,1.49a.82.82,0,0,1-.88.85H4.43a.76.76,0,0,1-.77-.44.73.73,0,0,1,.22-.86l3.2-3.21.16-.17-1.76-2C4.93,5.5,4.38,4.88,3.83,4.26A.71.71,0,0,1,4.16,3a1.48,1.48,0,0,1,.39,0h6.84c.68,0,1,.31,1,.94,0,.39,0,.78,0,1.16a.73.73,0,0,1-1.46,0c0-.24,0-.48,0-.73H5.84l.85,1L8.6,7.48a1,1,0,0,1,0,1.29l-2.4,2.41-.19.2Z" fill="#ebb2f9"/></g></g></svg>