<?xml version="1.0" encoding="utf-8"?>
<!-- Generator: Adobe Illustrator 19.2.1, SVG Export Plug-In . SVG Version: 6.00 Build 0)  -->
<svg version="1.1" id="Layer_1" xmlns="http://www.w3.org/2000/svg" xmlns:xlink="http://www.w3.org/1999/xlink" x="0px" y="0px"
	 viewBox="0 0 60 60" style="enable-background:new 0 0 60 60;" xml:space="preserve">
<style type="text/css">
	.st0{fill:#4A4B50;}
	.st1{fill:none;}
	.st2{display:none;fill:none;}
	.st3{opacity:0.15;}
	.st4{fill:#00C9FF;}
	.st5{opacity:0.2;clip-path:url(#XMLID_2_);fill-rule:evenodd;clip-rule:evenodd;fill:#FFFFFF;}
	.st6{display:none;}
	.st7{fill:#81DDF2;stroke:#4A4B50;stroke-width:2;stroke-miterlimit:10;}
	.st8{display:inline;fill:#81DDF2;}
	.st9{display:inline;fill:#4A4B50;}
	.st10{display:inline;fill:#66C2E0;stroke:#4A4B50;stroke-width:2;stroke-miterlimit:10;}
	.st11{display:inline;fill:#81DDF2;stroke:#4A4B50;stroke-width:2;stroke-miterlimit:10;}
	.st12{display:inline;}
	.st13{fill:#B3EBF7;}
	.st14{display:inline;fill:none;stroke:#4A4B50;stroke-width:2;stroke-miterlimit:10;}
	.st15{fill:#81DDF2;}
	.st16{fill:#4D4D4D;}
	.st17{fill:#6ED4E5;}
</style>
<symbol  id="New_Symbol_28" viewBox="0 -60 60 60">
	<circle class="st0" cx="30" cy="-30" r="30"/>
	<rect y="-60" class="st1" width="60" height="60"/>
	<rect y="-60" class="st2" width="60" height="60"/>
</symbol>
<g id="schemaType_x5F_StateOriented_4_">
	
		<use xlink:href="#New_Symbol_28"  width="60" height="60" id="XMLID_5553_" y="-60" transform="matrix(1 0 0 -1 0 0)" style="overflow:visible;"/>
	<g>
		<g class="st3">
			<path d="M49,18c0-1.1-0.9-2-2-2H19c-1.1,0-2,0.9-2,2v28c0,1.1,0.9,2,2,2h28c1.1,0,2-0.9,2-2V18z M27,29v4h-7v-4H27z M20,27v-4h7
				v4H20z M27,35v4h-7v-4H27z M27,41v4h-7v-4H27z M37,29v4h-8v-4H37z M29,27v-4h8v4H29z M37,35v4h-8v-4H37z M37,41v4h-8v-4H37z
				 M46,29v4h-7v-4H46z M39,27v-4h7v4H39z M46,35v4h-7v-4H46z M46,41v4h-7v-4H46z"/>
		</g>
		<g>
			<path class="st4" d="M46,15c0-1.1-0.9-2-2-2H16c-1.1,0-2,0.9-2,2v28c0,1.1,0.9,2,2,2h28c1.1,0,2-0.9,2-2V15z M24,26v4h-7v-4H24z
				 M17,24v-4h7v4H17z M24,32v4h-7v-4H24z M24,38v4h-7v-4H24z M34,26v4h-8v-4H34z M26,24v-4h8v4H26z M34,32v4h-8v-4H34z M34,38v4h-8
				v-4H34z M43,26v4h-7v-4H43z M36,24v-4h7v4H36z M43,32v4h-7v-4H43z M43,38v4h-7v-4H43z"/>
		</g>
	</g>
	<g id="XMLID_5477_">
		<defs>
			<path id="XMLID_5478_" d="M46,15c0-1.1-0.9-2-2-2H16c-1.1,0-2,0.9-2,2v28c0,1.1,0.9,2,2,2h28c1.1,0,2-0.9,2-2V15z M24,26v4h-7v-4
				H24z M17,24v-4h7v4H17z M24,32v4h-7v-4H24z M24,38v4h-7v-4H24z M34,26v4h-8v-4H34z M26,24v-4h8v4H26z M34,32v4h-8v-4H34z M34,38
				v4h-8v-4H34z M43,26v4h-7v-4H43z M36,24v-4h7v4H36z M43,32v4h-7v-4H43z"/>
		</defs>
		<clipPath id="XMLID_2_">
			<use xlink:href="#XMLID_5478_"  style="overflow:visible;"/>
		</clipPath>
		<rect id="XMLID_5516_" x="30" y="8" class="st5" width="27" height="47"/>
	</g>
	<g class="st6">
		<path class="st7" d="M32,26v15h10v5c0,2.21,1.79,4,4,4s4-1.79,4-4v-5V26H32z"/>
		<g>
			<path class="st8" d="M32.19,50C29.88,50,28,47.98,28,45.5s1.88-4.5,4.19-4.5H47v1.93c-2,0-2.43,1.12-2.43,2.5
				c0,1.38,0.85,2.51,2.1,2.54L46.53,50H32.19z"/>
			<path class="st9" d="M46.53,42c-1.77,0-3.19,1.57-3.19,3.5c0,1.93,1.42,3.5,3.19,3.5H32.19C30.42,49,29,47.43,29,45.5
				c0-1.93,1.42-3.5,3.19-3.5H47 M47,40H32.19C29.33,40,27,42.47,27,45.5s2.33,5.5,5.19,5.5h14.34l0.04-4.04
				c-0.69-0.02-1-0.69-1-1.52c0-0.81,0.43-1.52,1.43-1.52V40L47,40z"/>
		</g>
		<path class="st10" d="M51.5,34h-11c-1.92,0-3.5-1.57-3.5-3.5v0c0-1.92,1.57-3.5,3.5-3.5h11c1.92,0,3.5,1.57,3.5,3.5v0
			C55,32.43,53.43,34,51.5,34z"/>
		<path class="st11" d="M32,27v16h10l0,1.85c0,1.92,1.29,3.69,3.17,4.07C47.74,49.43,50,47.48,50,45v-2V27H32z"/>
		<g class="st12">
			<path class="st13" d="M30.19,49C27.88,49,26,47.43,26,45.5s1.88-3.5,4.19-3.5H45v1.93c-2,0-2.43,0.69-2.43,1.5
				c0,0.79,0.89,1.52,2.09,1.54L44.53,49H30.19z"/>
			<path class="st0" d="M44.53,43c-1.77,0-3.19,1.12-3.19,2.5c0,1.38,1.42,2.5,3.19,2.5H30.19C28.42,48,27,46.88,27,45.5
				c0-1.38,1.42-2.5,3.19-2.5H45 M45,41H30.19C27.33,41,25,43.02,25,45.5c0,2.48,2.33,4.5,5.19,4.5h14.34l0.03-4.04
				c-0.76-0.01-0.95-0.39-0.99-0.52C43.6,45.33,44,44.93,45,44.93V41L45,41z"/>
		</g>
		<line class="st14" x1="37" y1="33" x2="45" y2="33"/>
		<line class="st14" x1="37" y1="37" x2="45" y2="37"/>
	</g>
	<g class="st6">
		<g class="st12">
			<path class="st15" d="M31.96,46l0.01-2.44c0.02-3.07,0.06-10.27-0.01-13.54c-0.02-0.81,0.29-1.57,0.9-2.19
				c1.32-1.35,3.84-1.83,5.59-1.83H50.9c2.69,0,3.6,0.89,3.6,3.52V36h-4.33l0,10H31.96z"/>
			<path class="st0" d="M50.9,27c2.13,0,2.6,0.44,2.6,2.52c0,1.52,0,4.48,0,5.48c0,0-2.1,0-2.67,0c0-1,0-2.6,0-3.67
				c0-0.29,0.01-0.99-0.02-1.27c-0.05-0.46-0.36-0.67-0.81-0.67c-0.01,0-0.02,0-0.03,0c-0.45,0.01-0.74,0.39-0.8,0.85
				c-0.02,0.18-0.02,0.61-0.02,0.79c0,3.83,0,9.98,0,13.98h-16.2c0-1,0.08-10.95,0-15c-0.04-2.15,3.28-3,5.49-3
				C43.27,27,46.08,27,50.9,27 M50.9,25H38.46c-2.04,0-4.77,0.56-6.31,2.13c-0.8,0.81-1.21,1.82-1.19,2.91
				c0.07,3.25,0.02,10.44,0.01,13.52c0,0.74-0.01,1.25-0.01,1.44v2h2h16.2h2l0-2l0-8h2.33h2v-2v-5.48C55.5,26.35,54.12,25,50.9,25
				L50.9,25z"/>
		</g>
		<path class="st11" d="M46,44c0,2,0.02,0.91-0.02,2.78c0,0.25-0.22,0.67-0.44,0.78c-0.22,0.11-0.65,0.13-0.84-0.02
			c-0.21-0.16-0.34-0.51-0.35-0.8c-0.04-1.14-0.02-1.73-0.02-2.88c0-0.14-0.01,0.14-0.02,0.14C38.18,44,32.1,44,26,44
			c0,1-0.01,2.59,0,4.14c0.01,2,1.45,3.13,3.51,3.13c4.89,0,11.78-0.13,16.67-0.14c0.23,0,0.47-0.07,0.69-0.12
			c1.71-0.34,2.79-1.66,2.79-3.37c0-2.2,0-1.43,0-3.63L46,44z"/>
	</g>
	<g class="st6">
		<path class="st8" d="M32.56,50c-2.71,0-4.55-1.8-4.56-4.25c0-1.13,0-2.4,0-3.31V41h4v-1.5l-0.01-1.31
			c0.02-2.43,0.05-7.47-0.02-10.67c-0.02-0.81,0.29-1.32,0.9-1.94c1.32-1.35,3.84-1.58,5.59-1.58h12.75c0.91,0,1.52-0.25,1.97,0.23
			c0.43,0.45,0.14,0.88,0.1,1.47C53.27,25.95,53,26.13,53,26.52V34h-2.89C50.06,38,50,44.34,50,45.31c0,2.21-1.43,3.79-3.64,4.22
			l-0.17-0.03c-0.2,0.05-0.45,0.08-0.73,0.08c-2.43,0-4.39,0.17-6.34,0.21C37.14,49.83,35.16,50,32.71,50H32.56z"/>
		<path class="st9" d="M51.21,25c1.76,0,0.79-0.45,0.79,1.52c0,1.52,0,5.48,0,6.48c0,0-0.6,0-1.17,0c0-1,0-3.09,0-4.17
			c0-0.29,0.01-1.56-0.02-1.84C50.77,26.53,50.46,26,50.01,26c-0.01,0-0.02,0-0.03,0c-0.45,0-0.74,0.59-0.8,1.04
			C49.16,27.22,49,43.53,49,44.97c0,1.71-1.1,3.08-2.83,3.42c-0.23,0.04-0.47,0.3-0.7,0.3c-4.91,0-7.89,0.32-12.76,0.32
			c-0.05,0-0.1,0-0.14,0c-2.08,0-3.55-1.01-3.56-3.01C29,44.44,29,43,29,42c6.18,0,8.35,0,14.57,0c0,0,0.01-0.45,0.02-0.45
			c0,0,0-0.11,0-0.09c0,1.14-0.02,1.64,0.02,2.79c0.01,0.28,0.14,0.64,0.35,0.8c0.12,0.09,0.33,0.13,0.53,0.13
			c0.12,0,0.24-0.03,0.32-0.07c0.22-0.11,0.44-0.16,0.44-0.41c0.02-1.15,0.02-3.69,0.02-4.69H32.96c0-1,0.08-7.95,0-12
			c-0.04-2.15,3.28-3,5.49-3c4.81,0,7.63,0,12.44,0c0.11,0,0.1,0,0.1,0 M51.21,23h-0.15H50.9H38.46c-2.04,0-4.77,0.31-6.31,1.88
			c-0.8,0.81-1.21,1.7-1.19,2.78c0.06,3.19,0.03,8.41,0.01,10.83c0,0.64-0.01,0.5-0.01,1.5H29h-2v1.5v0.95c0,0.91,0,2.18,0,3.3
			C27.02,48.8,29.25,51,32.56,51h0.15c2.47,0,4.49-0.19,6.44-0.22c1.92-0.04,3.9-0.15,6.32-0.15c0.4,0,0.74-0.12,0.96-0.17
			c0.04-0.01,0.08-0.04,0.12-0.05c2.66-0.52,4.45-2.43,4.45-5.09C51,44.47,51.05,39,51.1,35h1.4H54v-2.5v-5.98
			c0-0.36,0.27-0.65,0.28-0.88c0.04-0.66,0.22-1.32-0.5-2.09C53.03,22.75,52.21,23,51.21,23L51.21,23z"/>
	</g>
</g>
<g>
	<path class="st0" d="M48.75,30.66l-10.7-0.1c-2.33-0.02-4.19-1.71-4.17-3.78v0c0.02-2.07,1.93-3.72,4.25-3.7l10.7,0.1
		c2.33,0.02,4.19,1.71,4.17,3.78v0C52.98,29.03,51.07,30.69,48.75,30.66z"/>
	<path class="st0" d="M46.01,48.49H33.21c-1.82,0-3.29-1.31-3.29-2.92v-1.23c0-0.85,0.78-1.54,1.74-1.54h14.36
		c0.96,0,1.74,0.69,1.74,1.54v2.61C47.75,47.8,46.97,48.49,46.01,48.49z"/>
	<g>
		<g>
			<g>
				<g>
					<path class="st16" d="M44.33,48.76c0.76,0,3.32-0.08,4.1-1.17c0.59-0.82,0.92-1.78,1.03-3.02c0.16-1.79-0.13-3.62-0.95-5.94
						c-0.41-1.17-0.86-2.33-1.31-3.49c-0.39-1.02-0.79-2.04-1.16-3.07c-0.64-1.76-0.75-3.12-0.38-4.39
						c0.24-0.83,0.67-1.46,1.38-2.03l1.92-1.55h-7.29l-3.45,0.01c-0.8,0-1.59,0-2.39-0.02l-0.11,0c-1.27,0-2.28,0.5-3.01,1.49
						c-0.95,1.29-1.27,2.84-1,4.71c0.22,1.53,0.8,2.95,1.36,4.32c0.15,0.37,0.3,0.74,0.45,1.11c0.14,0.37,0.28,0.73,0.42,1.08
						c0.8,2.02,1.49,3.77,1.67,5.92l0.01,0.19l0.13,0.23l0.28,0.47l0.65,0.08c0,0,1.91,0,2.61,0.01c0.72,0,1.45,0.01,2.18,0.01
						c0.95,0,1.88-0.01,2.77-0.03l0,0c0.15,0,0.5,0.14,0.89,0.54c0.51,0.52,0.73,1.1,0.7,1.32c-0.03,0.21-0.24,0.37-0.5,0.37h-3.25
						l0.86,1.11c-0.2,0.18-0.5,0.53-0.33,1.01c0.1,0.28,0.36,0.62,1.08,0.7C43.86,48.75,44.07,48.76,44.33,48.76z"/>
					<path class="st16" d="M35.71,24.1l0.11,0c0.8,0.02,1.59,0.02,2.39,0.02l3.45-0.01h7.29l-1.92,1.55
						c-0.71,0.57-1.13,1.2-1.38,2.03c-0.37,1.27-0.25,2.62,0.38,4.39c0.37,1.03,0.77,2.05,1.16,3.07c0.45,1.16,0.9,2.32,1.31,3.49
						c0.82,2.32,1.11,4.15,0.95,5.94c-0.11,1.24-0.44,2.2-1.03,3.02c-0.78,1.09-3.34,1.17-4.1,1.17c-0.25,0-0.47-0.01-0.64-0.03
						c-0.72-0.08-0.98-0.42-1.08-0.7c-0.17-0.48,0.12-0.82,0.33-1.01l-0.86-1.11h3.25c0.26,0,0.46-0.15,0.5-0.37
						c0.03-0.22-0.19-0.81-0.7-1.32c-0.39-0.4-0.75-0.54-0.89-0.54c-0.89,0.03-1.83,0.03-2.77,0.03c-0.73,0-1.46,0-2.18-0.01
						c-0.7,0-2.61-0.01-2.61-0.01l-0.65-0.08l-0.28-0.47l-0.13-0.23l-0.01-0.19c-0.18-2.15-0.87-3.9-1.67-5.92
						c-0.14-0.35-0.28-0.71-0.42-1.08c-0.14-0.37-0.29-0.74-0.45-1.11c-0.56-1.37-1.14-2.79-1.36-4.32c-0.27-1.87,0.05-3.41,1-4.71
						C33.43,24.61,34.44,24.1,35.71,24.1 M35.72,23.1L35.72,23.1c-1.59,0-2.91,0.66-3.82,1.9c-1.11,1.52-1.49,3.3-1.18,5.44
						c0.24,1.65,0.84,3.12,1.42,4.55c0.15,0.37,0.3,0.73,0.44,1.1c0.12,0.32,0.25,0.64,0.37,0.95l0.05,0.14
						c0.77,1.95,1.44,3.63,1.6,5.63L34.63,43l0.02,0.22l0.1,0.19l0.13,0.23l0.3,0.5l0.25,0.42l0.49,0.06l0.65,0.08l0.06,0.01l0.06,0
						c0,0,1.91,0,2.6,0.01c0.72,0,1.46,0.01,2.19,0.01c1.04,0,1.89-0.01,2.66-0.03c0.06,0.04,0.16,0.11,0.29,0.23l-2.33,0h-2.03
						l1.24,1.61l0.41,0.53c-0.17,0.41-0.19,0.86-0.03,1.31c0.12,0.36,0.56,1.21,1.92,1.36c0.21,0.02,0.46,0.03,0.74,0.03
						c1.41,0,3.92-0.21,4.91-1.59c0.7-0.97,1.08-2.08,1.21-3.51c0.17-1.94-0.14-3.9-1.01-6.36c-0.42-1.18-0.88-2.37-1.32-3.52
						l-0.03-0.08c-0.38-0.97-0.76-1.97-1.12-2.96c-0.56-1.55-0.67-2.72-0.37-3.77c0.19-0.63,0.5-1.09,1.04-1.53l1.92-1.55l2.21-1.78
						h-2.84h-7.29l-3.45,0.01c-0.79,0-1.58,0-2.36-0.02L35.72,23.1L35.72,23.1L35.72,23.1z"/>
				</g>
				<path class="st16" d="M35.71,24.99c-0.98,0-1.66,0.38-2.17,1.09c-0.92,1.27-1.06,2.66-0.85,4.11c0.27,1.83,1.09,3.53,1.76,5.26
					c0.96,2.49,1.93,4.56,2.15,7.22c0,0.03,0.03,0.06,0.08,0.14c0.17,0,0.36,0,0.56,0c1.35,0,2.79,0.02,4.22,0.02
					c0.94,0,1.86-0.01,2.75-0.03c0.01,0,0.02,0,0.04,0c1.26,0,2.74,1.82,2.58,2.87c-0.1,0.66-0.73,1.13-1.48,1.14
					c-0.13,0-0.27,0-0.41,0c-0.29,0-0.6,0-0.95,0c0.51,0.67-0.98,0.96-0.17,1.05c0.13,0.01,0.31,0.02,0.51,0.02
					c1.06,0,2.86-0.21,3.26-0.76c0.57-0.79,0.79-1.69,0.87-2.61c0.17-1.93-0.27-3.79-0.91-5.6c-0.77-2.2-1.68-4.36-2.47-6.55
					c-0.57-1.59-0.89-3.21-0.4-4.88c0.27-0.92,0.76-1.73,1.67-2.46c-1.12,0-2.16,0-3.18,0c-0.51,0-1.01,0-1.52,0
					c-1.15,0-2.3,0.01-3.44,0.01c-0.81,0-1.61-0.01-2.42-0.02C35.77,24.99,35.74,24.99,35.71,24.99L35.71,24.99z M35.71,23.21
					l0.13,0c0.79,0.02,1.58,0.02,2.37,0.02c0.57,0,1.14,0,1.71-0.01c0.58,0,1.16-0.01,1.73-0.01h1.52h1.52h1.66l3.9,0.41l-2.56,2.69
					c-0.56,0.45-0.89,0.93-1.08,1.59c-0.32,1.1-0.21,2.3,0.37,3.89c0.36,1.01,0.76,2.04,1.15,3.04c0.44,1.15,0.9,2.33,1.32,3.52
					c0.86,2.44,1.17,4.37,1,6.28c-0.12,1.39-0.5,2.48-1.18,3.43c-0.99,1.38-3.52,1.58-4.94,1.58c-0.29,0-0.54-0.01-0.76-0.04
					c-1.36-0.15-1.79-0.97-1.91-1.32c-0.1-0.28-0.18-0.75,0.08-1.26l-1.55-2.01h3.8l0.53,0l0.06,0c-0.15-0.19-0.32-0.37-0.47-0.45
					c-0.75,0.02-1.6,0.03-2.64,0.03c-0.73,0-1.46,0-2.19-0.01c-0.69,0-1.37-0.01-2.03-0.01l-0.56,0h-1.27l-0.54-1.02
					c-0.06-0.1-0.23-0.38-0.26-0.77c-0.17-2.03-0.84-3.73-1.62-5.69c-0.14-0.35-0.28-0.71-0.43-1.08c-0.14-0.37-0.29-0.73-0.44-1.09
					c-0.58-1.42-1.18-2.88-1.41-4.51c-0.31-2.09,0.07-3.83,1.15-5.31C33.01,23.54,34.59,23.21,35.71,23.21L35.71,23.21z"/>
			</g>
			<g>
				<g>
					<path class="st13" d="M44.33,48.76c0.76,0,3.32-0.08,4.1-1.17c0.59-0.82,0.92-1.78,1.03-3.02c0.16-1.79-0.13-3.62-0.95-5.94
						c-0.41-1.17-0.86-2.33-1.31-3.49c-0.39-1.02-0.79-2.04-1.16-3.07c-0.64-1.76-0.75-3.12-0.38-4.39
						c0.24-0.83,0.67-1.46,1.38-2.03l1.92-1.55h-7.29l-3.45,0.01c-0.8,0-1.59,0-2.39-0.02l-0.11,0c-1.27,0-2.28,0.5-3.01,1.49
						c-0.95,1.29-1.27,2.84-1,4.71c0.22,1.53,0.8,2.95,1.36,4.32c0.15,0.37,0.3,0.74,0.45,1.11c0.14,0.37,0.28,0.73,0.42,1.08
						c0.8,2.02,1.49,3.77,1.67,5.92l0.01,0.19l0.13,0.23l0.28,0.47l0.65,0.08c0,0,1.91,0,2.61,0.01c0.72,0,1.45,0.01,2.18,0.01
						c0.95,0,1.88-0.01,2.77-0.03l0,0c0.15,0,0.5,0.14,0.89,0.54c0.51,0.52,0.73,1.1,0.7,1.32c-0.03,0.21-0.24,0.37-0.5,0.37h-3.25
						l0.86,1.11c-0.2,0.18-0.5,0.53-0.33,1.01c0.1,0.28,0.36,0.62,1.08,0.7C43.86,48.75,44.07,48.76,44.33,48.76z"/>
				</g>
				<path class="st0" d="M35.71,24.99c-0.98,0-1.66,0.38-2.17,1.09c-0.92,1.27-1.06,2.66-0.85,4.11c0.27,1.83,1.09,3.53,1.76,5.26
					c0.96,2.49,1.93,4.56,2.15,7.22c0,0.03,0.03,0.06,0.08,0.14c0.17,0,0.36,0,0.56,0c1.35,0,2.79,0.02,4.22,0.02
					c0.94,0,1.86-0.01,2.75-0.03c0.01,0,0.02,0,0.04,0c1.26,0,2.74,1.82,2.58,2.87c-0.1,0.66-0.73,1.13-1.48,1.14
					c-0.13,0-0.27,0-0.41,0c-0.29,0-0.6,0-0.95,0c0.51,0.67-0.98,0.96-0.17,1.05c0.13,0.01,0.31,0.02,0.51,0.02
					c1.06,0,2.86-0.21,3.26-0.76c0.57-0.79,0.79-1.69,0.87-2.61c0.17-1.93-0.27-3.79-0.91-5.6c-0.77-2.2-1.68-4.36-2.47-6.55
					c-0.57-1.59-0.89-3.21-0.4-4.88c0.27-0.92,0.76-1.73,1.67-2.46c-1.12,0-2.16,0-3.18,0c-0.51,0-1.01,0-1.52,0
					c-1.15,0-2.3,0.01-3.44,0.01c-0.81,0-1.61-0.01-2.42-0.02C35.77,24.99,35.74,24.99,35.71,24.99L35.71,24.99z M35.71,23.21
					l0.13,0c0.79,0.02,1.58,0.02,2.37,0.02c0.57,0,1.14,0,1.71-0.01c0.58,0,1.16-0.01,1.73-0.01h1.52h1.52h1.66l3.9,0.41l-2.56,2.69
					c-0.56,0.45-0.89,0.93-1.08,1.59c-0.32,1.1-0.21,2.3,0.37,3.89c0.36,1.01,0.76,2.04,1.15,3.04c0.44,1.15,0.9,2.33,1.32,3.52
					c0.86,2.44,1.17,4.37,1,6.28c-0.12,1.39-0.5,2.48-1.18,3.43c-0.99,1.38-3.52,1.58-4.94,1.58c-0.29,0-0.54-0.01-0.76-0.04
					c-1.36-0.15-1.79-0.97-1.91-1.32c-0.1-0.28-0.18-0.75,0.08-1.26l-1.55-2.01h3.8l0.53,0l0.06,0c-0.15-0.19-0.32-0.37-0.47-0.45
					c-0.75,0.02-1.6,0.03-2.64,0.03c-0.73,0-1.46,0-2.19-0.01c-0.69,0-1.37-0.01-2.03-0.01l-0.56,0h-1.27l-0.54-1.02
					c-0.06-0.1-0.23-0.38-0.26-0.77c-0.17-2.03-0.84-3.73-1.62-5.69c-0.14-0.35-0.28-0.71-0.43-1.08c-0.14-0.37-0.29-0.73-0.44-1.09
					c-0.58-1.42-1.18-2.88-1.41-4.51c-0.31-2.09,0.07-3.83,1.15-5.31C33.01,23.54,34.59,23.21,35.71,23.21L35.71,23.21z"/>
			</g>
		</g>
		<path class="st0" d="M44.66,49.21l-10.7-0.1c-2.33-0.02-4.19-1.71-4.17-3.78v0c0.02-2.07,1.93-3.72,4.25-3.7l10.7,0.1
			c2.33,0.02,4.19,1.71,4.17,3.78v0C48.89,47.58,46.99,49.23,44.66,49.21z"/>
		<g>
			<g>
				<path class="st13" d="M44.38,48.75l0.25-0.08l1.45-0.49l-1.01-1c-1.73-1.53-1.47-2.52-1.06-3.21l0.7-1.17l-1.6-0.15
					c-0.14-0.02-0.27-0.03-0.4-0.03l-10.95,0c-1.17,0-1.98,0.67-2.08,1.72c-0.14,1.58,0.43,2.86,1.67,3.71
					c0.6,0.41,1.37,0.67,2.06,0.67c1.77,0.02,3.55,0.02,5.32,0.02L44.38,48.75z"/>
			</g>
			<path class="st0" d="M36.67,43.52c-1.64,0-4.19-0.01-5.83-0.01c-0.62,0-1.03,0.3-1.08,0.9c-0.1,1.15,0.22,2.2,1.28,2.94
				c0.4,0.27,0.96,0.48,1.46,0.49c1.77,0.02,4.46,0.04,6.23,0.04c1.82,0,2.43-0.02,4.25-0.02c0.03,0-0.05,0.03,0.04,0
				c-1.65-1.47-2.1-2.91-1.27-4.3c-0.15-0.01-0.28-0.04-0.42-0.04C39.32,43.52,38.68,43.52,36.67,43.52L36.67,43.52z M36.67,41.75
				l6.04,0c0.17,0,0.34,0.01,0.52,0.04l0.09,0.01l2.97,0.27l-1.41,2.34c-0.19,0.32-0.54,0.9,0.88,2.17l2.31,2.05l-3.11,0.89
				c-0.1,0.03-0.39,0.13-0.77,0.13l-2.45,0c-1.01,0-2.01,0-3.02,0c-1.78,0-3.56-0.01-5.34-0.03c-0.9-0.01-1.89-0.33-2.66-0.86
				c-1.05-0.73-2.27-2.09-2.05-4.48c0.14-1.49,1.4-2.53,3.07-2.53L36.67,41.75L36.67,41.75z"/>
		</g>
		<path class="st17" d="M47,26.44c0.57,0,1.23,0.02,1.89,0.02c-0.11,0.16-0.22,0.21-0.28,0.26c-0.42,0.43-0.68,0.94-0.42,1.5
			c0.27,0.57,0.74,0.79,1.38,0.7c0.85-0.13,1.54-0.76,1.71-1.55c0.18-0.83-0.26-1.63-1.16-2.1c-0.8-0.42-1.67-0.38-2.35,0.16
			c-0.34,0.28-0.7,0.62-0.95,1.01C46.84,26.5,46.84,26.44,47,26.44z"/>
		<path class="st15" d="M47.6,28.95c-0.5-0.52-0.63-1.04-0.29-1.67c-0.27,0-0.5-0.03-0.71,0.01c-0.13,0.02-0.31,0.13-0.35,0.22
			c-0.14,0.46-0.24,0.93-0.36,1.44C46.49,28.95,47.01,28.95,47.6,28.95z"/>
		<path class="st17" d="M43.26,45.99c0.57,0,1.15,0,1.81,0c-0.11-0.15-0.13-0.23-0.2-0.27c-0.59-0.35-0.72-0.7-0.47-1.22
			c0.27-0.54,0.85-0.83,1.49-0.74c0.85,0.12,1.54,0.72,1.71,1.47c0.18,0.79-0.26,1.54-1.16,1.99c-0.8,0.4-1.67,0.36-2.35-0.16
			c-0.34-0.26-0.61-0.6-0.91-0.91C43.21,46.1,43.23,46.04,43.26,45.99z"/>
		<path class="st15" d="M43.93,43.72c-0.5,0.49-0.63,0.99-0.29,1.58c-0.27,0-0.5,0.03-0.71-0.01c-0.13-0.02-0.37-0.12-0.44-0.2
			c-0.34-0.37-0.29-0.67,0.13-1.37C43.22,43.72,43.34,43.72,43.93,43.72z"/>
	</g>
</g>
</svg>
