<svg width="48" height="48" viewBox="0 0 48 48" fill="none" xmlns="http://www.w3.org/2000/svg">
<rect width="48" height="48" rx="4" fill="white"/>
<rect x="0.75" y="0.75" width="46.5" height="46.5" rx="3.25" stroke="#979797" stroke-opacity="0.65" stroke-width="1.5"/>
<mask id="mask0" mask-type="alpha" maskUnits="userSpaceOnUse" x="6" y="6" width="36" height="36">
<rect x="6" y="6" width="36" height="36" fill="#B2B2B2"/>
</mask>
<g mask="url(#mask0)">
<path fill-rule="evenodd" clip-rule="evenodd" d="M16.9771 29.0526C17.0677 28.8796 17.1818 28.7143 17.3018 28.5519C17.596 28.1578 17.8934 27.7668 18.1918 27.3745C18.3179 27.2087 18.4443 27.0426 18.5706 26.876C18.6271 26.7989 18.6802 26.7185 18.7324 26.6396C18.7527 26.6089 18.7728 26.5784 18.793 26.5484C18.7832 26.5389 18.7717 26.5311 18.7603 26.5232C18.7488 26.5153 18.7374 26.5074 18.7276 26.498C18.6164 26.5862 18.5052 26.6807 18.4006 26.7752C18.2066 26.9557 18.0156 27.1384 17.8247 27.3208C17.4429 27.6858 17.0621 28.0499 16.6609 28.3944C15.5033 29.3898 14.3783 29.4528 13.103 28.5897C12.7625 28.3573 12.4528 28.0854 12.1441 27.8145L12.1441 27.8145L12.1441 27.8145C12.0259 27.7108 11.9079 27.6072 11.7884 27.506C11.7566 27.4841 11.7342 27.4469 11.7104 27.4073C11.6999 27.3899 11.6892 27.3721 11.6772 27.3548C11.6947 27.3485 11.7099 27.3422 11.7235 27.3366L11.7235 27.3366C11.7506 27.3254 11.771 27.317 11.7884 27.317C13.3853 27.4175 14.8458 26.9235 16.3122 26.4275L16.3273 26.4224C16.8492 26.2447 17.3782 26.0875 17.9072 25.9302C18.2598 25.8254 18.6125 25.7205 18.963 25.6096C19.023 25.5919 19.0732 25.5459 19.1228 25.5004L19.1229 25.5004C19.1436 25.4814 19.1642 25.4625 19.1854 25.4458C19.1556 25.4376 19.1243 25.4247 19.0929 25.4117C19.0277 25.3848 18.9615 25.3575 18.9042 25.3702C18.3274 25.5016 17.7506 25.645 17.1772 25.7877L17.1771 25.7877C17.0354 25.823 16.8938 25.8582 16.7524 25.8932C16.3808 25.9864 16.0109 26.0846 15.6414 26.1827L15.6413 26.1827C14.7622 26.416 13.8851 26.6489 12.9918 26.813C11.7099 27.0461 10.5196 26.7626 9.52552 25.8995C9.44011 25.8254 9.36586 25.7433 9.28273 25.6514L9.28272 25.6514C9.23854 25.6025 9.19185 25.5509 9.13965 25.4962L9.31078 25.5226L9.31084 25.5226C9.69178 25.5814 10.0338 25.6342 10.3757 25.6726C11.6053 25.8049 12.8087 25.6096 14.0121 25.4143L14.1484 25.3922C15.7315 25.1348 17.3155 24.8772 18.9303 24.8221C19.0028 24.8177 19.072 24.7772 19.1425 24.7359C19.1739 24.7175 19.2055 24.699 19.2377 24.6835C19.2032 24.6678 19.168 24.6473 19.1325 24.6266C19.054 24.5808 18.9742 24.5343 18.8976 24.5386C17.2168 24.6646 15.536 24.7906 13.8551 24.9481C13.6744 24.965 13.4937 24.9828 13.3132 25.0005L13.313 25.0006H13.313C12.0823 25.1215 10.8547 25.2422 9.61708 25.0993C8.91728 25.0174 8.29596 24.7528 7.7662 24.3055C7.66661 24.2221 7.57848 24.1248 7.46956 24.0046C7.41396 23.9433 7.35295 23.876 7.28223 23.8015C7.35201 23.8063 7.40944 23.8074 7.45814 23.8084C7.53727 23.81 7.59336 23.8111 7.64194 23.8267C9.48628 24.3496 11.3699 24.2677 13.2534 24.1417C13.5741 24.1211 13.8951 24.0977 14.2163 24.0743L14.2164 24.0743H14.2164C15.5655 23.9759 16.9188 23.8773 18.2763 23.9842L18.3855 23.9923L18.3855 23.9923C18.6033 24.0085 18.8211 24.0247 19.0677 24.0409C19.0219 23.7322 18.8388 23.6818 18.6229 23.6818C17.8767 23.6818 17.1311 23.6848 16.3858 23.6879H16.3856C14.7466 23.6947 13.1088 23.7014 11.468 23.6755C10.3561 23.6566 9.23121 23.5432 8.12591 23.3919C7.21683 23.2659 6.3993 22.8816 5.71912 22.2705C5.6374 22.1997 5.56334 22.119 5.47461 22.0223C5.42131 21.9642 5.36273 21.9004 5.29401 21.8295C5.35865 21.8387 5.41101 21.8446 5.45528 21.8495L5.45531 21.8495C5.53197 21.8581 5.58435 21.8639 5.6341 21.8799C7.26261 22.4154 8.94998 22.5603 10.6504 22.6044C11.0985 22.6152 11.5465 22.6229 11.9944 22.6306L11.9945 22.6306H11.9946C13.1157 22.6499 14.236 22.6692 15.3528 22.7367C16.0153 22.7758 16.6747 22.8807 17.3332 22.9854C17.6303 23.0327 17.9271 23.0799 18.224 23.121C18.309 23.1336 18.4006 23.1399 18.4921 23.1462C18.4987 23.1305 18.5036 23.1147 18.5085 23.099C18.5134 23.0832 18.5183 23.0675 18.5248 23.0517C18.4809 23.0323 18.4375 23.0114 18.3941 22.9906C18.2826 22.937 18.1717 22.8836 18.0539 22.8564C16.3208 22.4847 14.5549 22.3209 12.7825 22.2075C12.4467 22.1858 12.1107 22.1656 11.7748 22.1454C9.67718 22.0194 7.58145 21.8935 5.52945 21.3885C4.14293 21.0483 2.90029 20.4434 1.93234 19.3787C1.86043 19.2968 1.78852 19.2024 1.71661 19.1079L1.71652 19.1078C1.68075 19.0618 1.65041 19.0159 1.57597 18.9031L1.57595 18.9031L1.57595 18.9031L1.55302 18.8684C1.64308 18.9036 1.71739 18.9295 1.78222 18.9521L1.78223 18.9521C1.86804 18.982 1.93723 19.0062 2.0043 19.0385C4.18872 20.1158 6.54973 20.5568 8.95652 20.8592C9.30178 20.9029 9.64714 20.9458 9.99248 20.9887C12.3358 21.2795 14.6776 21.5702 16.9748 22.1193C17.014 22.1319 17.0598 22.1382 17.1252 22.0752C17.0227 22.0404 16.9206 22.003 16.8185 21.9655L16.8185 21.9655C16.569 21.874 16.319 21.7823 16.0592 21.7287C15.7777 21.6695 15.4963 21.6102 15.215 21.551L15.215 21.551C13.5489 21.2 11.8862 20.8497 10.2188 20.5316C9.5617 20.4043 8.90121 20.2912 8.24063 20.1779L8.24062 20.1779C6.4816 19.8765 4.72197 19.5749 3.02456 19.007C2.20049 18.7298 1.40259 18.3958 0.624304 18.0241C-0.605253 17.4319 -1.5732 16.5877 -1.93945 15.252V15C-0.755678 16.4932 0.918612 17.2303 2.71717 17.7154C4.41108 18.169 6.12461 18.5785 7.85122 18.8873C9.75098 19.2284 11.6613 19.5286 13.5705 19.8287C14.6584 19.9996 15.746 20.1705 16.8309 20.3489C17.9951 20.5379 19.12 20.8655 20.101 21.5397C20.6962 21.9492 21.1017 22.5036 21.1867 23.1903C21.2521 23.7448 21.2848 24.337 21.1409 24.8662C21.138 24.8767 21.135 24.8872 21.1321 24.8977L22.661 23.3687L24.0752 21.9545L25.4894 23.3687L26.402 24.2813C26.3786 23.9199 26.4072 23.5473 26.4493 23.1903C26.5343 22.5036 26.9398 21.9492 27.5349 21.5397C28.516 20.8655 29.6409 20.5379 30.805 20.3489C31.8899 20.1705 32.9775 19.9996 34.0654 19.8287L34.0655 19.8286C35.9746 19.5286 37.885 19.2284 39.7847 18.8873C41.5113 18.5785 43.2249 18.169 44.9188 17.7154C46.7173 17.2303 48.3916 16.4932 49.5754 15V15.252C49.2092 16.5877 48.2412 17.4319 47.0116 18.0241C46.2334 18.3958 45.4355 18.7298 44.6114 19.007C42.914 19.5749 41.1543 19.8765 39.3953 20.1779C38.7347 20.2912 38.0742 20.4043 37.4172 20.5316C35.7497 20.8496 34.0871 21.1999 32.4211 21.551L32.421 21.551C32.1397 21.6102 31.8583 21.6695 31.5768 21.7287C31.3169 21.7823 31.0669 21.874 30.8175 21.9655L30.8174 21.9656C30.7153 22.003 30.6133 22.0404 30.5107 22.0752C30.5761 22.1382 30.6219 22.1319 30.6611 22.1193C32.9583 21.5702 35.3002 21.2795 37.6435 20.9887C37.9888 20.9458 38.3342 20.9029 38.6794 20.8592C41.0862 20.5568 43.4472 20.1158 45.6317 19.0385C45.6987 19.0062 45.7679 18.982 45.8537 18.9521C45.9186 18.9295 45.9929 18.9036 46.0829 18.8684L46.06 18.9031C45.9855 19.0159 45.9552 19.0618 45.9194 19.1078L45.9193 19.1079L45.9193 19.108C45.8474 19.2024 45.7755 19.2968 45.7036 19.3787C44.7357 20.4434 43.493 21.0483 42.1065 21.3885C40.0545 21.8935 37.9588 22.0194 35.8612 22.1454C35.5253 22.1656 35.1893 22.1858 34.8534 22.2075C33.081 22.3209 31.3152 22.4847 29.582 22.8564C29.4643 22.8836 29.3533 22.937 29.2418 22.9906C29.1985 23.0114 29.1551 23.0323 29.1111 23.0517C29.1177 23.0675 29.1226 23.0832 29.1275 23.099C29.1324 23.1147 29.1373 23.1305 29.1438 23.1462C29.2354 23.1399 29.3269 23.1336 29.412 23.121C29.7088 23.0799 30.0056 23.0327 30.3026 22.9854L30.3028 22.9854C30.9612 22.8807 31.6206 22.7758 32.2831 22.7367C33.4 22.6692 34.5202 22.6499 35.6414 22.6306L35.6415 22.6306C36.0894 22.6229 36.5375 22.6152 36.9855 22.6044C38.686 22.5603 40.3733 22.4154 42.0018 21.8799C42.0516 21.8639 42.104 21.8581 42.1806 21.8495C42.2249 21.8446 42.2773 21.8387 42.3419 21.8295C42.2732 21.9004 42.2146 21.9642 42.1614 22.0223C42.0726 22.119 41.9985 22.1997 41.9168 22.2705C41.2366 22.8816 40.4191 23.2659 39.51 23.3919C38.4047 23.5432 37.2798 23.6566 36.168 23.6755C34.5271 23.7014 32.8893 23.6947 31.2503 23.6879H31.2502C30.5048 23.6848 29.7592 23.6818 29.013 23.6818C28.7972 23.6818 28.6141 23.7322 28.5683 24.0409C28.8149 24.0247 29.0326 24.0085 29.2504 23.9923L29.2504 23.9923L29.3596 23.9842C30.7172 23.8773 32.0705 23.9759 33.4195 24.0743C33.7408 24.0977 34.0618 24.1211 34.3825 24.1417C36.2661 24.2677 38.1497 24.3496 39.994 23.8267C40.0426 23.8111 40.0987 23.81 40.1778 23.8084C40.2265 23.8074 40.2839 23.8063 40.3537 23.8015C40.2831 23.8759 40.2221 23.9432 40.1665 24.0045L40.1664 24.0047L40.1663 24.0047C40.0574 24.1249 39.9693 24.2221 39.8697 24.3055C39.34 24.7528 38.7187 25.0174 38.0189 25.0993C36.7813 25.2422 35.5536 25.1215 34.3229 25.0006L34.3227 25.0005C34.1422 24.9828 33.9616 24.965 33.7808 24.9481C32.1 24.7906 30.4192 24.6646 28.7383 24.5386C28.6617 24.5343 28.582 24.5808 28.5034 24.6266C28.468 24.6473 28.4328 24.6678 28.3982 24.6835C28.4305 24.699 28.462 24.7175 28.4934 24.7359C28.5639 24.7772 28.6332 24.8177 28.7056 24.8221C30.3205 24.8772 31.9044 25.1348 33.4875 25.3922L33.6239 25.4143C34.8272 25.6096 36.0306 25.8049 37.2602 25.6726C37.6022 25.6342 37.9441 25.5814 38.325 25.5226L38.3252 25.5226L38.4963 25.4962C38.4441 25.5509 38.3974 25.6025 38.3532 25.6514L38.3532 25.6514C38.2701 25.7433 38.1958 25.8254 38.1104 25.8995C37.1163 26.7626 35.926 27.0461 34.6441 26.813C33.7508 26.6489 32.8737 26.416 31.9946 26.1827C31.625 26.0846 31.2551 25.9864 30.8835 25.8932C30.7422 25.8582 30.6006 25.823 30.4587 25.7877L30.4586 25.7876C29.8853 25.645 29.3085 25.5016 28.7318 25.3702C28.6745 25.3575 28.6082 25.3848 28.5431 25.4117C28.5116 25.4247 28.4804 25.4376 28.4506 25.4458C28.4717 25.4625 28.4924 25.4814 28.5131 25.5004L28.5131 25.5004C28.5627 25.5459 28.613 25.5919 28.6729 25.6096C29.0235 25.7205 29.3761 25.8254 29.7288 25.9302C30.2577 26.0875 30.7867 26.2447 31.3086 26.4224L31.3237 26.4275C32.7902 26.9235 34.2506 27.4175 35.8475 27.317C35.865 27.317 35.8853 27.3254 35.9124 27.3366C35.926 27.3422 35.9413 27.3485 35.9587 27.3548C35.9468 27.3721 35.936 27.3899 35.9256 27.4073C35.9017 27.4469 35.8794 27.4841 35.8475 27.506C35.7281 27.6071 35.6102 27.7106 35.4921 27.8143L35.4918 27.8145C35.1832 28.0854 34.8735 28.3573 34.5329 28.5897C33.2576 29.4528 32.1327 29.3898 30.9751 28.3944C30.5739 28.0499 30.193 27.6858 29.8112 27.3208L29.8112 27.3208C29.6204 27.1384 29.4293 26.9557 29.2354 26.7752C29.1307 26.6807 29.0196 26.5862 28.9084 26.498C28.8986 26.5074 28.8871 26.5153 28.8757 26.5232C28.8642 26.5311 28.8528 26.5389 28.843 26.5484C28.863 26.5783 28.8831 26.6086 28.9033 26.6392L28.9036 26.6396C28.9557 26.7185 29.0088 26.7989 29.0653 26.876C29.1375 26.9712 29.2097 27.0663 29.2819 27.1612L32.1207 30L34.1207 32H31.2923H16.8582H14.0298L16.0298 30L16.9771 29.0526ZM24.0752 24.7829L29.2923 30H18.8582L24.0752 24.7829Z" fill="#177FE6"/>
</g>
</svg>
