<svg width="48" height="48" viewBox="0 0 48 48" fill="none" xmlns="http://www.w3.org/2000/svg">
<rect width="48" height="48" rx="4" fill="white"/>
<rect x="0.75" y="0.75" width="46.5" height="46.5" rx="3.25" stroke="#979797" stroke-opacity="0.65" stroke-width="1.5"/>
<path d="M18.7638 24.0845C18.7638 24.3726 18.7957 24.6062 18.8516 24.7775C18.9154 24.9488 18.9953 25.1357 19.107 25.3382C19.1469 25.4005 19.1629 25.4627 19.1629 25.5173C19.1629 25.5951 19.115 25.673 19.0112 25.7508L18.5083 26.0779C18.4365 26.1246 18.3647 26.148 18.3008 26.148C18.221 26.148 18.1412 26.109 18.0613 26.0389C17.9496 25.9221 17.8538 25.7976 17.774 25.673C17.6942 25.5406 17.6143 25.3927 17.5265 25.2136C16.9039 25.9299 16.1217 26.2881 15.1798 26.2881C14.5093 26.2881 13.9745 26.1012 13.5834 25.7275C13.1922 25.3537 12.9927 24.8554 12.9927 24.2325C12.9927 23.5706 13.2321 23.0334 13.7191 22.6285C14.206 22.2236 14.8525 22.0211 15.6747 22.0211C15.9461 22.0211 16.2254 22.0445 16.5208 22.0834C16.8161 22.1224 17.1194 22.1847 17.4387 22.2547V21.6863C17.4387 21.0946 17.311 20.6819 17.0636 20.4405C16.8081 20.1991 16.3771 20.0823 15.7625 20.0823C15.4831 20.0823 15.1957 20.1135 14.9004 20.1835C14.6051 20.2536 14.3177 20.3393 14.0383 20.4483C13.9106 20.5028 13.8148 20.5339 13.759 20.5495C13.7031 20.5651 13.6632 20.5729 13.6312 20.5729C13.5195 20.5729 13.4636 20.495 13.4636 20.3315V19.9499C13.4636 19.8254 13.4796 19.7319 13.5195 19.6774C13.5594 19.6229 13.6312 19.5684 13.743 19.5139C14.0224 19.3737 14.3576 19.257 14.7487 19.1635C15.1399 19.0623 15.5549 19.0156 15.994 19.0156C16.9438 19.0156 17.6383 19.2258 18.0853 19.6463C18.5243 20.0667 18.7478 20.7052 18.7478 21.5617V24.0845H18.7638ZM15.523 25.2681C15.7864 25.2681 16.0578 25.2214 16.3452 25.1279C16.6325 25.0345 16.888 24.8632 17.1035 24.6296C17.2312 24.4817 17.327 24.3181 17.3749 24.1313C17.4228 23.9444 17.4547 23.7186 17.4547 23.4538V23.1268C17.2232 23.0723 16.9758 23.0256 16.7203 22.9944C16.4649 22.9633 16.2175 22.9477 15.97 22.9477C15.4352 22.9477 15.0441 23.0489 14.7807 23.2592C14.5173 23.4694 14.3896 23.7653 14.3896 24.1546C14.3896 24.5206 14.4853 24.7931 14.6849 24.98C14.8765 25.1746 15.1558 25.2681 15.523 25.2681ZM21.9327 26.109C21.789 26.109 21.6932 26.0857 21.6294 26.0312C21.5655 25.9844 21.5096 25.8754 21.4617 25.7275L19.5859 19.7086C19.538 19.5528 19.5141 19.4516 19.5141 19.3971C19.5141 19.2725 19.5779 19.2024 19.7057 19.2024H20.4879C20.6396 19.2024 20.7433 19.2258 20.7992 19.2803C20.8631 19.327 20.911 19.436 20.9589 19.584L22.2999 24.7386L23.5451 19.584C23.585 19.4283 23.6329 19.327 23.6967 19.2803C23.7606 19.2336 23.8723 19.2024 24.016 19.2024H24.6546C24.8063 19.2024 24.91 19.2258 24.9739 19.2803C25.0377 19.327 25.0936 19.436 25.1255 19.584L26.3867 24.8009L27.7676 19.584C27.8155 19.4283 27.8714 19.327 27.9273 19.2803C27.9911 19.2336 28.0949 19.2024 28.2386 19.2024H28.9809C29.1086 19.2024 29.1805 19.2647 29.1805 19.3971C29.1805 19.436 29.1725 19.475 29.1645 19.5217C29.1565 19.5684 29.1406 19.6307 29.1086 19.7164L27.1849 25.7353C27.137 25.891 27.0812 25.9922 27.0173 26.0389C26.9535 26.0857 26.8497 26.1168 26.714 26.1168H26.0275C25.8759 26.1168 25.7721 26.0934 25.7082 26.0389C25.6444 25.9844 25.5885 25.8832 25.5566 25.7275L24.3193 20.7052L23.0901 25.7197C23.0502 25.8754 23.0023 25.9767 22.9384 26.0312C22.8746 26.0857 22.7628 26.109 22.6191 26.109H21.9327V26.109ZM32.1897 26.3193C31.7747 26.3193 31.3596 26.2725 30.9605 26.1791C30.5614 26.0857 30.2501 25.9844 30.0425 25.8676C29.9148 25.7976 29.827 25.7197 29.7951 25.6496C29.7632 25.5795 29.7472 25.5017 29.7472 25.4316V25.0345C29.7472 24.871 29.8111 24.7931 29.9308 24.7931C29.9787 24.7931 30.0266 24.8009 30.0745 24.8165C30.1224 24.832 30.1942 24.8632 30.274 24.8943C30.5454 25.0111 30.8408 25.1046 31.1521 25.1669C31.4714 25.2292 31.7827 25.2603 32.1019 25.2603C32.6048 25.2603 32.9959 25.1746 33.2673 25.0033C33.5387 24.832 33.6824 24.5829 33.6824 24.2636C33.6824 24.0456 33.6106 23.8665 33.4669 23.7186C33.3232 23.5706 33.0518 23.4383 32.6607 23.3137L31.5033 22.9633C30.9206 22.7842 30.4895 22.5195 30.2261 22.1691C29.9627 21.8265 29.827 21.4449 29.827 21.04C29.827 20.713 29.8989 20.4249 30.0425 20.1758C30.1862 19.9266 30.3778 19.7086 30.6173 19.5373C30.8567 19.3582 31.1281 19.2258 31.4474 19.1324C31.7667 19.0389 32.1019 19 32.4532 19C32.6288 19 32.8124 19.0078 32.988 19.0311C33.1715 19.0545 33.3392 19.0857 33.5068 19.1168C33.6664 19.1557 33.8181 19.1947 33.9618 19.2414C34.1055 19.2881 34.2172 19.3348 34.297 19.3815C34.4088 19.4438 34.4886 19.5061 34.5365 19.5762C34.5844 19.6385 34.6083 19.7241 34.6083 19.8331V20.1991C34.6083 20.3626 34.5445 20.4483 34.4247 20.4483C34.3609 20.4483 34.2571 20.4171 34.1214 20.3548C33.6664 20.1524 33.1556 20.0512 32.5889 20.0512C32.1339 20.0512 31.7747 20.1212 31.5272 20.2692C31.2798 20.4171 31.1521 20.6429 31.1521 20.9622C31.1521 21.1802 31.2319 21.3671 31.3915 21.515C31.5512 21.663 31.8465 21.8109 32.2696 21.9433L33.403 22.2937C33.9777 22.4728 34.3928 22.7219 34.6403 23.0412C34.8877 23.3604 35.0074 23.7264 35.0074 24.1313C35.0074 24.4661 34.9356 24.7698 34.7999 25.0345C34.6562 25.2992 34.4647 25.5328 34.2172 25.7197C33.9698 25.9144 33.6744 26.0545 33.3312 26.1557C32.972 26.2648 32.5968 26.3193 32.1897 26.3193Z" fill="#252F3E"/>
<path d="M33.698 30.1034C31.0719 31.9955 27.2564 33 23.9758 33C19.3781 33 15.2353 31.3415 12.1063 28.5851C11.8589 28.3671 12.0824 28.0712 12.3777 28.2425C15.7621 30.1579 19.9368 31.3181 24.2552 31.3181C27.1686 31.3181 30.3695 30.7264 33.3149 29.5117C33.7539 29.317 34.1291 29.792 33.698 30.1034ZM34.7916 28.8887C34.4563 28.4683 32.5725 28.6863 31.7185 28.7875C31.463 28.8187 31.4231 28.6007 31.6546 28.4371C33.1552 27.4093 35.6217 27.7052 35.9091 28.0478C36.1964 28.3982 35.8293 30.8042 34.4244 31.9566C34.2089 32.1357 34.0014 32.0423 34.0971 31.8087C34.4164 31.0378 35.1268 29.3014 34.7916 28.8887Z" fill="#FF9900"/>
</svg>
