<svg width="48" height="48" viewBox="0 0 48 48" fill="none" xmlns="http://www.w3.org/2000/svg">
<rect width="48" height="48" rx="4" fill="white"/>
<rect x="0.75" y="0.75" width="46.5" height="46.5" rx="3.25" stroke="#979797" stroke-opacity="0.65" stroke-width="1.5"/>
<path d="M15 24.1632C15 31.4095 19.7863 35 25.4367 35C28.0957 35 30.5886 33.9555 32.4167 31.8665L29.2923 28.4718C28.3616 29.451 27.1651 30.1691 25.5032 30.1691C22.7112 30.1691 20.8499 27.9496 20.8499 23.9674C20.8499 20.1157 23.0436 17.8309 25.6361 17.8309C27.0321 17.8309 27.9628 18.3531 29.0264 19.2671L32.1508 15.8071C30.6218 14.3056 28.2952 13 25.5697 13C19.9857 13 15 17.0475 15 24.1632Z" fill="#F96500"/>
</svg>
