<svg width="48" height="48" viewBox="0 0 48 48" fill="none" xmlns="http://www.w3.org/2000/svg">
<rect width="48" height="48" rx="4" fill="white"/>
<rect x="0.75" y="0.75" width="46.5" height="46.5" rx="3.25" stroke="#979797" stroke-opacity="0.65" stroke-width="1.5"/>
<g clip-path="url(#clip0)">
<path d="M35.4226 23C35.7799 23.6188 35.7799 24.3812 35.4226 25L30.5773 33.3923C30.2201 34.0111 29.5598 34.3923 28.8453 34.3923L19.1547 34.3923C18.4402 34.3923 17.7799 34.0111 17.4226 33.3923L12.5773 25C12.2201 24.3812 12.2201 23.6188 12.5773 23L17.4226 14.6077C17.7799 13.9889 18.4402 13.6077 19.1547 13.6077L28.8453 13.6077C29.5598 13.6077 30.2201 13.9889 30.5774 14.6077L35.4226 23Z" fill="#177FE6"/>
<path fill-rule="evenodd" clip-rule="evenodd" d="M29.4276 24.76L20.664 29.464L19.8203 28.12L28.5926 23.408L29.4276 24.76Z" fill="white"/>
<path fill-rule="evenodd" clip-rule="evenodd" d="M20.6294 27.928V18.52H22.2392V26.8L20.6294 27.928Z" fill="white"/>
<path fill-rule="evenodd" clip-rule="evenodd" d="M22.2907 21.152L22.0669 19.264L30.8392 23.96L30.0041 25.304L22.2907 21.152Z" fill="white"/>
<path opacity="0.2" fill-rule="evenodd" clip-rule="evenodd" d="M26.4487 21.608L22.0669 19.264L22.2907 21.152L23.5906 21.84C24.057 21.9946 24.5537 22.0539 25.0469 22.0138C25.5401 21.9738 26.0183 21.8354 26.4487 21.608V21.608Z" fill="#177FE6"/>
<path fill-rule="evenodd" clip-rule="evenodd" d="M21.06 20.032C20.7018 19.4554 20.5583 18.785 20.6519 18.1249C20.7455 17.4648 21.0709 16.8519 21.5777 16.3812C22.0844 15.9105 22.7441 15.6084 23.4545 15.5217C24.1649 15.435 24.8862 15.5687 25.5065 15.9018C26.1268 16.235 26.6114 16.7491 26.8852 17.3644C27.159 17.9797 27.2066 18.6617 27.0207 19.3047C26.8348 19.9477 26.4257 20.5157 25.8569 20.9206C25.2882 21.3255 24.5915 21.5446 23.875 21.544C23.3047 21.5419 22.7449 21.4012 22.2511 21.136C21.7573 20.8708 21.3467 20.4902 21.06 20.032ZM25.2524 17.792C25.1137 17.5686 24.9142 17.3831 24.6739 17.2539C24.4337 17.1247 24.1612 17.0565 23.8836 17.056C23.676 17.0549 23.4703 17.092 23.2781 17.1651C23.086 17.2382 22.9113 17.3459 22.7641 17.4819C22.6169 17.618 22.5001 17.7797 22.4204 17.9579C22.3407 18.136 22.2996 18.327 22.2996 18.52C22.2836 18.7219 22.3125 18.9247 22.3846 19.1157C22.4568 19.3067 22.5705 19.4819 22.7188 19.6302C22.867 19.7785 23.0466 19.8968 23.2463 19.9778C23.446 20.0587 23.6615 20.1004 23.8793 20.1004C24.0972 20.1004 24.3127 20.0587 24.5124 19.9778C24.7121 19.8968 24.8917 19.7785 25.0399 19.6302C25.1882 19.4819 25.3019 19.3067 25.374 19.1157C25.4461 18.9247 25.4751 18.7219 25.459 18.52C25.4609 18.2646 25.3895 18.0133 25.2524 17.792Z" fill="white"/>
<path opacity="0.2" fill-rule="evenodd" clip-rule="evenodd" d="M20.6294 23.752V27.928L22.2392 26.8V25.496C22.1302 25.1111 21.9288 24.7542 21.6499 24.4521C21.3711 24.15 21.0222 23.9106 20.6294 23.752V23.752Z" fill="#177FE6"/>
<path opacity="0.2" fill-rule="evenodd" clip-rule="evenodd" d="M25.5365 26.848L29.4276 24.76L27.5251 23.96L26.449 24.6C25.8492 25.2306 25.5239 26.0464 25.5365 26.888V26.848Z" fill="#177FE6"/>
<path fill-rule="evenodd" clip-rule="evenodd" d="M16.2218 28.36C16.0073 28.0167 15.8679 27.6373 15.8116 27.2438C15.7552 26.8503 15.783 26.4503 15.8934 26.0668C16.0038 25.6833 16.1945 25.3238 16.4547 25.0089C16.715 24.6941 17.0395 24.43 17.4098 24.232C17.7777 24.0315 18.185 23.9014 18.6078 23.8492C19.0306 23.797 19.4604 23.8238 19.8719 23.928C20.3901 24.055 20.8665 24.2989 21.2589 24.6381C21.6513 24.9773 21.9474 25.4013 22.121 25.8725C22.2947 26.3437 22.3404 26.8474 22.2541 27.3389C22.1678 27.8304 21.9523 28.2945 21.6266 28.69C21.3008 29.0855 20.8751 29.4001 20.387 29.6059C19.899 29.8117 19.3639 29.9023 18.8291 29.8696C18.2943 29.837 17.7765 29.6821 17.3217 29.4187C16.8668 29.1554 16.489 28.7917 16.2218 28.36ZM20.397 26.112C20.2985 25.9389 20.1629 25.7865 19.9986 25.664C19.8342 25.5415 19.6446 25.4517 19.4414 25.4C19.1395 25.3237 18.82 25.3326 18.5235 25.4256C18.2271 25.5187 17.9672 25.6917 17.777 25.9225C17.5867 26.1534 17.4748 26.4316 17.4554 26.7219C17.436 27.0121 17.51 27.3011 17.668 27.552V27.552C17.772 27.7185 17.9103 27.8644 18.075 27.9812C18.2396 28.0981 18.4275 28.1837 18.6277 28.2331C18.8279 28.2825 19.0367 28.2947 19.2421 28.2692C19.4474 28.2436 19.6453 28.1807 19.8245 28.084C20.0037 27.9874 20.1606 27.8589 20.2864 27.7058C20.4121 27.5528 20.5042 27.3783 20.5574 27.1922C20.6105 27.0061 20.6237 26.8121 20.5962 26.6213C20.5687 26.4305 20.501 26.2465 20.397 26.08V26.112Z" fill="white"/>
<path fill-rule="evenodd" clip-rule="evenodd" d="M26.397 28.088C26.1138 27.629 25.9648 27.1091 25.9648 26.58C25.9648 26.0509 26.1138 25.531 26.397 25.072C26.8292 24.379 27.539 23.873 28.3713 23.6647C29.2036 23.4563 30.0908 23.5625 30.8391 23.96C31.5852 24.3615 32.1293 25.0217 32.352 25.7956C32.5748 26.5696 32.4579 27.3941 32.0271 28.088C31.7411 28.5464 31.3305 28.9269 30.8364 29.1914C30.3424 29.4559 29.7822 29.5951 29.2121 29.5951C28.6419 29.5951 28.0817 29.4559 27.5877 29.1914C27.0936 28.9269 26.683 28.5464 26.397 28.088V28.088ZM30.5808 25.84C30.4376 25.621 30.2397 25.4372 30.0041 25.304C29.6393 25.1123 29.2079 25.0619 28.8035 25.1637C28.399 25.2655 28.054 25.5114 27.8433 25.848C27.7075 26.0714 27.6361 26.3235 27.6361 26.58C27.6361 26.8365 27.7075 27.0887 27.8433 27.312C28.0175 27.5926 28.2869 27.8116 28.6094 27.9346C28.9319 28.0577 29.2891 28.0779 29.6253 27.992C29.8249 27.9428 30.0121 27.8574 30.1761 27.7407C30.3401 27.624 30.4777 27.4783 30.5808 27.312C30.7166 27.0872 30.7879 26.8338 30.7879 26.576C30.7879 26.3183 30.7166 26.0648 30.5808 25.84V25.84Z" fill="white"/>
<path opacity="0.2" fill-rule="evenodd" clip-rule="evenodd" d="M22.2307 26.3199C22.2307 26.3199 20.2163 27.9199 19.8203 28.1199L22.2824 26.7999C22.278 26.639 22.2607 26.4785 22.2307 26.3199V26.3199Z" fill="#177FE6"/>
<path opacity="0.2" fill-rule="evenodd" clip-rule="evenodd" d="M22.7989 21.4C22.7989 21.4 22.291 18.776 22.291 18.52V21.152C22.4527 21.2386 22.6227 21.3109 22.7989 21.368V21.4Z" fill="#177FE6"/>
<path opacity="0.2" fill-rule="evenodd" clip-rule="evenodd" d="M27.2324 24.1759C27.2324 24.1759 29.6084 25.0959 30.0044 25.3039L27.5423 23.9919C27.4311 24.0408 27.3269 24.1027 27.2324 24.1759Z" fill="#177FE6"/>
</g>
<defs>
<clipPath id="clip0">
<rect width="24" height="24" fill="white" transform="translate(12 12)"/>
</clipPath>
</defs>
</svg>
