<svg width="48" height="48" viewBox="0 0 48 48" fill="none" xmlns="http://www.w3.org/2000/svg">
<rect width="48" height="48" rx="4" fill="white"/>
<rect x="0.75" y="0.75" width="46.5" height="46.5" rx="3.25" stroke="#979797" stroke-opacity="0.65" stroke-width="1.5"/>
<rect x="16" y="15" width="15" height="4" fill="#009845"/>
<rect x="16" y="15" width="15" height="4" fill="white" fill-opacity="0.7"/>
<path d="M31 15V29H16V15H31Z" stroke="#404040" stroke-width="2" stroke-miterlimit="10" stroke-linecap="round"/>
<path d="M30 19H16M30 24H16" stroke="#404040" stroke-width="2"/>
<path d="M26 29L26 18M21 29L21 18" stroke="#404040" stroke-width="2"/>
<path d="M26 36L19 32.64V24.36L26 21L33 24.36V32.64L26 36Z" fill="#009845"/>
<path d="M26 36L19 32.64V24.36L26 21L33 24.36V32.64L26 36Z" fill="white" fill-opacity="0.7"/>
<path d="M26 36V27.42L33 24.36V32.64L26 36Z" fill="#009845"/>
<path fill-rule="evenodd" clip-rule="evenodd" d="M25 28.0742L21 26.3257V31.3815L25 33.3015V28.0742ZM26 36L19 32.64V24.36L26 21L33 24.36V32.64L26 36ZM27 33.3015L31 31.3815V26.3257L27 28.0742V33.3015ZM29.3911 24.8462L26 23.2185L22.6089 24.8462L26 26.3286L29.3911 24.8462Z" fill="#404040"/>
</svg>
