<svg width="48" height="48" viewBox="0 0 48 48" fill="none" xmlns="http://www.w3.org/2000/svg">
<rect width="48" height="48" rx="4" fill="white"/>
<rect x="0.75" y="0.75" width="46.5" height="46.5" rx="3.25" stroke="#979797" stroke-opacity="0.65" stroke-width="1.5"/>
<path d="M12 13H18.5455L22.5 16V28H12V13Z" fill="#0AAF54"/>
<path d="M12 13H18.5455L22.5 16V28H12V13Z" fill="white" fill-opacity="0.7"/>
<path d="M22 15H20.5H29C30.1046 15 31 15.8954 31 17V28H22V15Z" fill="#009845"/>
<path fill-rule="evenodd" clip-rule="evenodd" d="M29.5 16.5H21.635C20.8931 16.5 20.1895 16.1704 19.7145 15.6005L17.9641 13.5H13.5V27.5H29.5V16.5ZM13 12C12.4477 12 12 12.4477 12 13V28C12 28.5523 12.4477 29 13 29H30C30.5523 29 31 28.5523 31 28V16C31 15.4477 30.5523 15 30 15H21.635C21.3383 15 21.0568 14.8682 20.8668 14.6402L18.9665 12.3598C18.7765 12.1318 18.4951 12 18.1983 12H13Z" fill="#404040"/>
<path fill-rule="evenodd" clip-rule="evenodd" d="M27.5 20.5L23 21V35H31V27H33L29.8333 23.8333L27.5 20.5Z" fill="#B9D8F7"/>
<path d="M30.5 27H33.5V35H30.5V27Z" fill="#177FE6"/>
<path fill-rule="evenodd" clip-rule="evenodd" d="M28 20H23C22.4477 20 22 20.4477 22 21V35C22 35.5523 22.4477 36 23 36H34C34.5523 36 35 35.5523 35 35V27.3333L28 20ZM33.5 28.0833H29C28.0335 28.0833 27.25 27.2998 27.25 26.3333V21.5H23.5V34.5H33.5V28.0833ZM28.75 22.9581V26.3333C28.75 26.4714 28.8619 26.5833 29 26.5833H32.2104L28.75 22.9581Z" fill="#404040"/>
</svg>
