<svg width="48" height="48" viewBox="0 0 48 48" fill="none" xmlns="http://www.w3.org/2000/svg">
<rect width="48" height="48" rx="4" fill="white"/>
<rect x="0.75" y="0.75" width="46.5" height="46.5" rx="3.25" stroke="#979797" stroke-opacity="0.65" stroke-width="1.5"/>
<path d="M27.2266 15.9951C27.2266 17.652 25.8834 18.9951 24.2266 18.9951C22.5697 18.9951 21.2266 17.652 21.2266 15.9951C21.2266 14.3383 22.5697 12.9951 24.2266 12.9951C25.8834 12.9951 27.2266 14.3383 27.2266 15.9951Z" fill="#4D4D4D"/>
<path d="M33.9656 26.8905C33.9656 28.5474 32.6224 29.8905 30.9656 29.8905C29.3087 29.8905 27.9656 28.5474 27.9656 26.8905C27.9656 25.2336 29.3087 23.8905 30.9656 23.8905C32.6224 23.8905 33.9656 25.2336 33.9656 26.8905Z" fill="#4D4D4D"/>
<path d="M20.4878 26.8905C20.4878 28.5474 19.1446 29.8905 17.4878 29.8905C15.8309 29.8905 14.4878 28.5474 14.4878 26.8905C14.4878 25.2336 15.8309 23.8905 17.4878 23.8905C19.1446 23.8905 20.4878 25.2336 20.4878 26.8905Z" fill="#4D4D4D"/>
<path d="M21.1245 19.2823L19.2051 22.6068C20.8075 23.1286 21.9656 24.6346 21.9656 26.4111C21.9656 26.735 21.9271 27.0499 21.8545 27.3515H26C25.9774 27.1797 25.9658 27.0045 25.9658 26.8265C25.9658 24.9751 27.2236 23.4176 28.9312 22.9616L26.807 19.2825C26.0822 20.0139 25.0769 20.4669 23.9658 20.4669C22.8547 20.4669 21.8493 20.0138 21.1245 19.2823Z" fill="#469DCD"/>
<path d="M19.9752 32.273C21.1965 31.5679 21.9053 30.3159 21.9709 29.005H26.0182C26.0827 29.5187 26.2486 30.0284 26.5237 30.505C27.0407 31.4003 27.8515 32.0202 28.764 32.3132L26.5209 35.005H21.5209L19.4549 32.5257C19.6316 32.4551 19.8055 32.371 19.9752 32.273Z" fill="#469DCD"/>
<path d="M17.5699 14.5821C17.5699 15.9924 18.2998 17.2322 19.4023 17.9444L17.3787 21.4495C16.9015 21.2484 16.3771 21.1373 15.8268 21.1373C14.7929 21.1373 13.8507 21.5296 13.1407 22.1734L11.9312 18.8849L14.4312 14.5547L17.6112 14.0051C17.584 14.1935 17.5699 14.3862 17.5699 14.5821Z" fill="#469DCD"/>
<path d="M30.4301 14.7257C30.4301 16.1359 29.7002 17.3757 28.5977 18.088L30.6213 21.593C31.0985 21.392 31.6229 21.2809 32.1732 21.2809C33.2071 21.2809 34.1493 21.6731 34.8593 22.3169L36.0688 19.0284L33.5688 14.6983L30.3888 14.1487C30.416 14.3371 30.4301 14.5297 30.4301 14.7257Z" fill="#469DCD"/>
</svg>
