<svg width="48" height="48" viewBox="0 0 48 48" fill="none" xmlns="http://www.w3.org/2000/svg">
<rect width="48" height="48" rx="4" fill="white"/>
<rect x="0.75" y="0.75" width="46.5" height="46.5" rx="3.25" stroke="#979797" stroke-opacity="0.65" stroke-width="1.5"/>
<g clip-path="url(#clip0)">
<mask id="mask0" mask-type="alpha" maskUnits="userSpaceOnUse" x="15" y="14" width="17" height="16">
<path fill-rule="evenodd" clip-rule="evenodd" d="M30.8018 30C30.5787 29.8196 30.3983 29.5913 30.2673 29.3279C30.0614 28.9139 29.9894 28.4365 30.1085 27.9576C30.2069 27.562 30.4108 27.2642 30.599 27.0578C30.9976 26.5577 31.3958 26.0674 31.7927 25.5836L31.446 25.1706C30.6117 24.1767 29.3851 23.5619 28 23.5619C25.5536 23.5619 23.5513 25.5634 23.5513 28.0412C23.5513 28.7585 23.7098 29.4158 24.0016 30H30.8018ZM18.6975 30C18.5675 29.3697 18.5 28.7153 18.5 28.0412C18.5 22.7665 22.7335 18.5 28 18.5C29.4362 18.5 30.789 18.826 32 19.393V15C32 14.4477 31.5523 14 31 14H16C15.4477 14 15 14.4477 15 15V29C15 29.5523 15.4477 30 16 30H18.6975Z" fill="#404040"/>
</mask>
<g mask="url(#mask0)">
<rect x="16" y="15" width="15" height="4" fill="#177FE6"/>
<rect x="16" y="15" width="15" height="4" fill="white" fill-opacity="0.7"/>
<path d="M31.25 15V29C31.25 29.1381 31.1381 29.25 31 29.25H16C15.8619 29.25 15.75 29.1381 15.75 29V15C15.75 14.8619 15.8619 14.75 16 14.75H31C31.1381 14.75 31.25 14.8619 31.25 15Z" stroke="#404040" stroke-width="1.5" stroke-miterlimit="10" stroke-linecap="round"/>
<path d="M31 19H16M31 24H16" stroke="#404040" stroke-width="1.5"/>
<path d="M26 29L26 19M21 29L21 19" stroke="#404040" stroke-width="1.5"/>
</g>
<path d="M22.0513 28.0412C22.0513 29.3608 22.4615 30.5567 23.2 31.5464C23.1799 31.5464 23.1697 31.5563 23.1644 31.5664C25.1993 33.9187 27.6727 34.6617 30.5847 33.3608C32.4719 32.5361 33.5385 31.0103 33.9488 28.9485H32.1847C31.9385 28.9485 31.7334 28.9072 31.6103 28.6598C31.4872 28.4124 31.5693 28.2062 31.7334 28.0413C32.5539 27.0103 33.3744 26.0207 34.1949 25.031C34.3385 24.866 34.4719 24.701 34.6052 24.5361C34.7385 24.3712 34.8719 24.2062 35.0154 24.0413C35.7539 25.4846 36.0821 26.9691 35.959 28.5361C35.7949 30.7629 34.8103 32.6598 33.0872 34.1031C29.477 37.1134 24.4308 36.3712 21.7642 33.1547C21.7768 33.1397 21.7894 33.1246 21.8019 33.1095C20.6552 31.7081 20 29.9776 20 28.0412C20 23.5876 23.5692 20 28 20C30.3385 20 32.4308 21.0309 33.9077 22.5979L32.5949 24.2062C31.4872 22.8866 29.8462 22.0619 28 22.0619C24.7179 22.0619 22.0513 24.7423 22.0513 28.0412Z" fill="#177FE6"/>
</g>
<defs>
<clipPath id="clip0">
<rect width="24" height="24" fill="white" transform="translate(12 12)"/>
</clipPath>
</defs>
</svg>
