<svg width="48" height="48" viewBox="0 0 48 48" fill="none" xmlns="http://www.w3.org/2000/svg">
<rect width="48" height="48" rx="4" fill="white"/>
<rect x="0.75" y="0.75" width="46.5" height="46.5" rx="3.25" stroke="#979797" stroke-opacity="0.65" stroke-width="1.5"/>
<mask id="mask0" mask-type="alpha" maskUnits="userSpaceOnUse" x="15" y="14" width="17" height="16">
<path fill-rule="evenodd" clip-rule="evenodd" d="M32 15V29C32 29.5523 31.5523 30 31 30H26V28.8333L29.3685 25.8391L25.3685 21.3391L23.607 19.3574L21.7322 21.2322L17.7322 25.2322L21 28.5V30H16C15.4477 30 15 29.5523 15 29V15C15 14.4477 15.4477 14 16 14H31C31.5523 14 32 14.4477 32 15Z" fill="#404040"/>
</mask>
<g mask="url(#mask0)">
<rect x="16" y="15" width="15" height="4" fill="#009845"/>
<rect x="16" y="15" width="15" height="4" fill="white" fill-opacity="0.7"/>
<path d="M31.25 15V29C31.25 29.1381 31.1381 29.25 31 29.25H16C15.8619 29.25 15.75 29.1381 15.75 29V15C15.75 14.8619 15.8619 14.75 16 14.75H31C31.1381 14.75 31.25 14.8619 31.25 15Z" stroke="#404040" stroke-width="1.5" stroke-miterlimit="10" stroke-linecap="round"/>
<path d="M31 19H16M31 24H16" stroke="#404040" stroke-width="1.5"/>
<path d="M26 29L26 19M21 29L21 19" stroke="#404040" stroke-width="1.5"/>
</g>
<path d="M23.5 31.7273V23M23.5 31.7273L26.5 35M23.5 31.7273L20.5 35M23.5 23L27 26.5936M23.5 23L20 26.5936" stroke="#009845" stroke-width="1.5"/>
</svg>
