<svg width="48" height="48" viewBox="0 0 48 48" fill="none" xmlns="http://www.w3.org/2000/svg">
<rect width="48" height="48" rx="4" fill="white"/>
<rect x="0.75" y="0.75" width="46.5" height="46.5" rx="3.25" stroke="#979797" stroke-opacity="0.65" stroke-width="1.5"/>
<path fill-rule="evenodd" clip-rule="evenodd" d="M17.5029 13.8391C17.7924 13.5482 18.1141 13.2572 18.4358 13.0309C20.2373 13.1602 22.1996 13.8715 22.5213 14.1624L22.5867 14.1937C23.2363 14.5046 23.8247 14.7861 24.3228 15.0677C24.741 15.3587 25.1914 15.6496 25.6739 15.876C25.8533 15.7558 26.0258 15.6006 26.201 15.4431C26.4027 15.2616 26.6082 15.0768 26.832 14.9384C27.1537 14.7767 27.4754 14.6474 27.8614 14.6474C28.3761 14.6151 28.8909 14.6797 29.3734 14.8091C30.242 15.197 30.6923 15.8113 31.2392 16.5872C31.4644 16.9105 31.6574 17.2662 31.8183 17.6218C31.9791 17.8804 32.1078 18.2037 32.1721 18.4947C32.1721 18.5758 32.1342 18.6442 32.09 18.7238C32.0637 18.7711 32.0353 18.8224 32.0113 18.8827C31.7539 19.5293 31.5609 20.2082 31.4322 20.9195C31.4322 20.9776 31.4192 21.0358 31.4049 21.0998C31.3874 21.1781 31.3679 21.2653 31.3679 21.3721V21.4368C31.3679 21.4368 31.6252 21.6954 31.7218 21.7601C31.9019 21.9411 32.019 22.2806 32.0951 22.5013C32.1277 22.5958 32.1528 22.6686 32.1721 22.6977C32.2448 22.8437 32.3311 23.008 32.4225 23.1821C32.574 23.4704 32.7394 23.7854 32.8798 24.0879C32.9442 24.4112 32.9764 24.7345 32.912 25.0578H32.6868C33.1273 25.1181 33.3933 24.9907 33.7098 24.839C33.9018 24.747 34.1124 24.6461 34.3918 24.5728C34.5848 24.5405 34.81 24.8315 35.003 25.1548C35.1317 25.2841 34.6492 27.9675 33.2015 29.6487C32.0756 30.6186 30.435 30.3923 29.4056 29.6487C29.3853 29.6765 29.3652 29.7045 29.3451 29.7325C29.0148 30.1934 28.6811 30.6592 27.3467 30.263C27.0412 30.074 26.9417 29.8161 26.8351 29.5396C26.7957 29.4375 26.7554 29.333 26.7033 29.2284C26.3816 29.2607 26.0599 29.2607 25.7704 29.1961C25.6096 29.1961 25.5452 29.1961 25.4487 29.4224L25.8026 29.972C26.0921 30.36 26.4781 30.6509 26.9285 30.8126C27.0572 30.8449 27.1859 30.8772 27.3146 30.8449L27.218 30.8772C26.8963 30.9096 26.5425 30.8772 26.2208 30.7479C25.8026 30.6186 25.4166 30.36 25.1592 30.0043C25.1592 30.2953 25.1914 30.6186 25.2879 30.9096C25.3844 31.1036 25.4166 31.1682 25.4809 31.3299C25.5452 31.346 25.6096 31.3703 25.6739 31.3945C25.7383 31.4188 25.8026 31.443 25.8669 31.4592C26.0278 31.5239 26.1565 31.5562 26.3173 31.5885C26.6068 31.6208 26.8963 31.6208 27.1859 31.5885C26.8963 31.8472 26.1243 31.8148 25.7704 31.7825C25.9107 32.0081 26.0265 32.2828 26.1179 32.4995C26.1312 32.5313 26.1441 32.5618 26.1565 32.5908C26.1591 32.5961 26.1616 32.6013 26.164 32.6062C26.2196 32.7203 26.2221 32.7255 26.9929 32.8494C26.9681 32.8529 26.943 32.8565 26.9176 32.8601C26.7116 32.8892 26.4856 32.9212 26.2851 32.9787C26.2746 32.9787 26.2684 32.9839 26.2655 32.9927C26.599 33.3567 27.5003 33.3281 28.697 33.2902C28.9332 33.2827 29.1808 33.2749 29.4378 33.2696L30.5959 33.2049C30.1134 33.4151 29.6067 33.5848 29.1001 33.7545C28.5934 33.9243 28.0867 34.094 27.6042 34.3042C25.9861 34.8045 25.3613 34.7301 24.8563 34.5199C24.6962 34.4772 24.5392 34.4308 24.3854 34.381C24.4657 34.4034 24.5466 34.424 24.6278 34.4427C24.1934 34.3028 23.7739 34.1355 23.3693 33.9615C23.3117 33.9416 23.2544 33.9221 23.1975 33.9034C23.5679 34.0829 23.9646 34.2446 24.3854 34.381C23.9678 34.2644 23.5634 34.099 23.1786 33.8972C23.1306 33.8815 23.0829 33.8662 23.0357 33.8516C22.9574 33.8015 22.8806 33.7515 22.8053 33.7016C21.6293 33.0604 20.757 32.2503 20.2695 31.5562C20.2134 31.4717 20.1588 31.3856 20.1062 31.298C19.8133 30.836 19.6272 30.3806 19.4906 29.9352C19.4723 29.8822 19.455 29.8292 19.4386 29.7763C19.2634 29.2259 19.1531 28.6568 19.0798 28.0693L19.0469 27.9351C19.0545 27.9407 19.0621 27.9463 19.0697 27.9519C18.9294 26.2053 19.1945 25.0631 20.0764 23.7969C20.1227 23.7194 20.2059 23.6568 20.2835 23.5984C20.3664 23.536 20.4429 23.4784 20.4615 23.4125C20.4521 23.4146 20.4426 23.4168 20.4329 23.4189C20.3606 23.4435 20.2864 23.4698 20.2114 23.4965C19.9941 23.5737 19.7696 23.6535 19.5617 23.6999C19.2349 23.8193 18.8807 23.8836 18.5497 23.9437C18.5223 23.9487 18.495 23.9536 18.468 23.9585C18.2428 23.9909 17.9854 23.9909 17.7603 23.9909C17.7325 23.9887 17.7046 23.9866 17.6766 23.9844C17.2824 23.9541 16.8639 23.9219 16.4735 23.8616C16.31 23.8342 16.3081 23.83 16.2722 23.7507C16.2657 23.7364 16.2581 23.7197 16.2483 23.6999C16.1962 23.5743 16.1442 23.4318 16.0899 23.2833C15.9766 22.9731 15.8537 22.6367 15.7014 22.3744C15.4441 21.7601 15.0259 21.3398 14.3503 20.6609C13.5782 19.8526 12.774 18.818 13.0957 17.5248C13.2887 16.9105 13.5782 16.3609 13.8999 15.8113C14.1573 15.488 14.4146 15.391 14.7042 15.5527C14.9294 15.585 15.1224 15.585 15.3154 15.5527C15.6049 15.5527 15.8623 15.4557 16.0874 15.294C16.4682 15.0239 16.7553 14.6912 17.0684 14.3284C17.205 14.1701 17.3465 14.0061 17.5029 13.8391ZM22.6198 33.5833C22.6406 33.5974 22.6613 33.6114 22.6822 33.6253L22.7185 33.6436C22.7118 33.6391 22.7051 33.6345 22.6984 33.63C22.672 33.6145 22.6458 33.5989 22.6198 33.5833ZM19.2115 23.6537C19.053 23.6997 18.8826 23.7472 18.6932 23.7969C18.4812 23.8273 18.2692 23.8291 18.0572 23.8023C18.435 23.7699 18.8348 23.7153 19.2115 23.6537ZM16.7014 23.7587C16.644 23.7424 16.5925 23.723 16.5475 23.7004C16.5549 23.7112 16.5624 23.7218 16.57 23.7322C16.577 23.7463 16.6251 23.7543 16.7014 23.7587ZM14.5165 20.4976C14.3907 20.3383 14.264 20.1803 14.1373 20.0222C14.1315 20.015 14.1257 20.0078 14.12 20.0006C14.2391 20.1661 14.3724 20.3316 14.5165 20.4976ZM31.3488 21.6973C31.3784 21.7529 31.4084 21.809 31.4386 21.8656L31.5202 22.0186C31.5211 22.0201 31.5221 22.0215 31.5231 22.023C31.5032 21.9678 31.4836 21.9125 31.4644 21.8571C31.4396 21.7322 31.3763 21.7038 31.3488 21.6973ZM32.4298 23.9914C32.4826 24.1519 32.5266 24.3102 32.5595 24.4648C32.5477 24.3051 32.5157 24.1428 32.4298 23.9914Z" fill="black"/>
<path d="M24.3854 34.381C24.5392 34.4308 24.6962 34.4772 24.8563 34.5199C25.3613 34.7301 25.9861 34.8045 27.6042 34.3042C28.0867 34.094 28.5934 33.9243 29.1001 33.7545C29.6067 33.5848 30.1134 33.4151 30.5959 33.2049L29.4378 33.2696C29.1808 33.2749 28.9332 33.2827 28.697 33.2902C27.5003 33.3281 26.599 33.3567 26.2655 32.9927C26.2684 32.9839 26.2746 32.9787 26.2851 32.9787C26.4856 32.9212 26.7116 32.8892 26.9176 32.8601C26.943 32.8565 26.9681 32.8529 26.9929 32.8494C26.2221 32.7255 26.2196 32.7203 26.164 32.6062C26.1616 32.6013 26.1591 32.5961 26.1565 32.5908C26.1441 32.5618 26.1312 32.5313 26.1179 32.4995C26.0265 32.2828 25.9107 32.0081 25.7704 31.7825C26.1243 31.8148 26.8963 31.8472 27.1859 31.5885C26.8963 31.6208 26.6068 31.6208 26.3173 31.5885C26.1565 31.5562 26.0278 31.5239 25.8669 31.4592C25.8026 31.443 25.7383 31.4188 25.6739 31.3945C25.6096 31.3703 25.5452 31.346 25.4809 31.3299C25.4166 31.1682 25.3844 31.1036 25.2879 30.9096C25.1914 30.6186 25.1592 30.2953 25.1592 30.0043C25.4166 30.36 25.8026 30.6186 26.2208 30.7479C26.5425 30.8772 26.8963 30.9096 27.218 30.8772L27.3146 30.8449C27.1859 30.8772 27.0572 30.8449 26.9285 30.8126C26.4781 30.6509 26.0921 30.36 25.8026 29.972L25.4487 29.4224C25.5452 29.1961 25.6096 29.1961 25.7704 29.1961C26.0599 29.2607 26.3816 29.2607 26.7033 29.2284C26.7554 29.333 26.7957 29.4375 26.8351 29.5396C26.9417 29.8161 27.0412 30.074 27.3467 30.263C28.6811 30.6592 29.0148 30.1934 29.3451 29.7325C29.3652 29.7045 29.3853 29.6765 29.4056 29.6487C30.435 30.3923 32.0756 30.6186 33.2015 29.6487C34.6492 27.9675 35.1317 25.2841 35.003 25.1548C34.81 24.8315 34.5848 24.5405 34.3918 24.5728C34.1124 24.6461 33.9018 24.747 33.7098 24.839C33.3933 24.9907 33.1273 25.1181 32.6868 25.0578H32.912C32.9764 24.7345 32.9442 24.4112 32.8798 24.0879C32.7394 23.7854 32.574 23.4704 32.4225 23.1821C32.3311 23.008 32.2448 22.8437 32.1721 22.6977C32.1528 22.6686 32.1277 22.5958 32.0951 22.5013C32.019 22.2806 31.9019 21.9411 31.7218 21.7601C31.6252 21.6954 31.3679 21.4368 31.3679 21.4368V21.3721C31.3679 21.2653 31.3874 21.1781 31.4049 21.0998C31.4192 21.0358 31.4322 20.9776 31.4322 20.9195C31.5609 20.2082 31.7539 19.5293 32.0113 18.8827C32.0353 18.8224 32.0637 18.7711 32.09 18.7238C32.1342 18.6442 32.1721 18.5758 32.1721 18.4947C32.1078 18.2037 31.9791 17.8804 31.8183 17.6218C31.6574 17.2662 31.4644 16.9105 31.2392 16.5872C30.6923 15.8113 30.242 15.197 29.3734 14.8091C28.8909 14.6797 28.3761 14.6151 27.8614 14.6474C27.4754 14.6474 27.1537 14.7767 26.832 14.9384C26.6082 15.0768 26.4027 15.2616 26.201 15.4431C26.0258 15.6006 25.8533 15.7558 25.6739 15.876C25.1914 15.6496 24.741 15.3587 24.3228 15.0677C23.8247 14.7861 23.2363 14.5046 22.5867 14.1937L22.5213 14.1624C22.1996 13.8715 20.2373 13.1602 18.4358 13.0309C18.1141 13.2572 17.7924 13.5482 17.5029 13.8391C17.3465 14.0061 17.205 14.1701 17.0684 14.3284C16.7553 14.6912 16.4682 15.0239 16.0874 15.294C15.8623 15.4557 15.6049 15.5527 15.3154 15.5527C15.1224 15.585 14.9294 15.585 14.7042 15.5527C14.4146 15.391 14.1573 15.488 13.8999 15.8113C13.5782 16.3609 13.2887 16.9105 13.0957 17.5248C12.774 18.818 13.5782 19.8526 14.3503 20.6609C15.0259 21.3398 15.4441 21.7601 15.7014 22.3744C15.8537 22.6367 15.9766 22.9731 16.0899 23.2833C16.1442 23.4318 16.1962 23.5743 16.2483 23.6999C16.2581 23.7197 16.2657 23.7364 16.2722 23.7507C16.3081 23.83 16.31 23.8342 16.4735 23.8616C16.8639 23.9219 17.2824 23.9541 17.6766 23.9844C17.7046 23.9866 17.7325 23.9887 17.7603 23.9909C17.9854 23.9909 18.2428 23.9909 18.468 23.9585C18.495 23.9536 18.5223 23.9487 18.5497 23.9437C18.8807 23.8836 19.2349 23.8193 19.5617 23.6999C19.7696 23.6535 19.9941 23.5737 20.2114 23.4965C20.2864 23.4698 20.3606 23.4435 20.4329 23.4189C20.4426 23.4168 20.4521 23.4146 20.4615 23.4125C20.4429 23.4784 20.3664 23.536 20.2835 23.5984C20.2059 23.6568 20.1227 23.7194 20.0764 23.7969C19.1945 25.0631 18.9294 26.2053 19.0697 27.9519C19.0621 27.9463 19.0545 27.9407 19.0469 27.9351L19.0798 28.0693C19.1531 28.6568 19.2634 29.2259 19.4386 29.7763C19.455 29.8292 19.4723 29.8822 19.4906 29.9352C19.6272 30.3806 19.8133 30.836 20.1062 31.298C20.1588 31.3856 20.2134 31.4717 20.2695 31.5562C20.757 32.2503 21.6293 33.0604 22.8053 33.7016C22.8806 33.7515 22.9574 33.8015 23.0357 33.8516C23.0829 33.8662 23.1306 33.8815 23.1786 33.8972C23.5634 34.099 23.9678 34.2644 24.3854 34.381ZM24.3854 34.381C24.4657 34.4034 24.5466 34.424 24.6278 34.4427C24.1934 34.3028 23.7739 34.1355 23.3693 33.9615C23.3117 33.9416 23.2544 33.9221 23.1975 33.9034C23.5679 34.0829 23.9646 34.2446 24.3854 34.381ZM22.6822 33.6253C22.6613 33.6114 22.6406 33.5974 22.6198 33.5833C22.6458 33.5989 22.672 33.6145 22.6984 33.63C22.7051 33.6345 22.7118 33.6391 22.7185 33.6436L22.6822 33.6253ZM19.2115 23.6537C19.053 23.6997 18.8826 23.7472 18.6932 23.7969C18.4812 23.8273 18.2692 23.8291 18.0572 23.8023C18.435 23.7699 18.8348 23.7153 19.2115 23.6537ZM16.7014 23.7587C16.644 23.7424 16.5925 23.723 16.5475 23.7004C16.5549 23.7112 16.5624 23.7218 16.57 23.7322C16.577 23.7463 16.6251 23.7543 16.7014 23.7587ZM14.5165 20.4976C14.3907 20.3383 14.264 20.1803 14.1373 20.0222C14.1315 20.015 14.1257 20.0078 14.12 20.0006C14.2391 20.1661 14.3724 20.3316 14.5165 20.4976ZM31.3488 21.6973C31.3784 21.7529 31.4084 21.809 31.4386 21.8656L31.5202 22.0186C31.5211 22.0201 31.5221 22.0215 31.5231 22.023C31.5032 21.9678 31.4836 21.9125 31.4644 21.8571C31.4396 21.7322 31.3763 21.7038 31.3488 21.6973ZM32.4298 23.9914C32.4826 24.1519 32.5266 24.3102 32.5595 24.4648C32.5477 24.3051 32.5157 24.1428 32.4298 23.9914Z" stroke="black"/>
<path d="M25.6097 16.0375C25.4166 15.4879 18.7898 12.9015 18.6933 13.1924C17.4708 13.5157 16.9883 14.9059 16.1519 15.8112L14.2861 15.7142C13.4496 16.7488 13.0314 17.848 13.321 18.9796C14.3826 20.4021 15.605 21.6307 16.3449 23.4412C16.4092 24.2817 19.98 23.5381 20.7521 23.3442C19.6905 24.0878 18.7898 25.284 19.1758 28.6463C19.5297 30.2305 19.787 32.0087 22.9718 33.7869C23.5508 34.0455 24.162 34.3042 24.8054 34.4981C25.3201 34.7244 25.9314 34.8214 27.6042 34.3042C28.5692 33.8839 29.6308 33.6252 30.5959 33.2049L29.4378 33.2696C27.8615 33.3019 26.6391 33.4312 26.2531 32.9786L24.8054 30.4568L25.6418 28.808C26.8321 28.9373 27.2181 29.8749 28.2476 30.2629L29.47 29.3576C33.0086 31.4591 34.4241 28.0321 34.8423 25.3163C34.8101 24.2171 32.4939 25.6719 32.6226 25.1547C32.6869 23.9908 31.7218 22.4389 31.1106 21.2427L31.8183 18.4946C32.14 18.2036 30.3386 15.1322 28.8266 14.7443C27.572 14.3886 25.6097 16.0052 25.6097 16.0375Z" fill="#FDEE21"/>
<path d="M31.4317 21.8894C31.4317 22.1804 31.4317 22.536 31.4639 22.7623C31.4639 22.924 31.3352 22.924 31.2065 22.9886L31.9143 23.2473C32.0429 23.4736 32.1716 23.6999 32.2681 23.9585C32.3968 24.5405 32.3003 24.5405 32.2038 24.6052C31.9464 24.6052 31.7213 24.6052 31.4639 24.5405C31.5604 24.6052 31.5926 24.6375 31.5926 24.7021C31.5926 24.8961 31.5282 25.0578 31.3996 25.1871C31.6891 25.3164 31.9786 25.4134 32.2681 25.5104L32.5898 24.7991C32.429 23.7646 32.0429 22.7623 31.4317 21.8894Z" fill="#C8C037"/>
<path d="M32.7188 25.3811C33.1048 25.5427 33.6195 25.4781 34.3594 25.1224C34.4559 25.0578 34.5846 25.0901 34.3594 25.2194C33.3943 26.0923 32.9439 25.6397 32.7188 25.3811Z" fill="#C8C037"/>
<path d="M34.456 24.9932C34.5203 25.1871 34.5203 25.3811 34.456 25.5751C34.3594 26.4804 34.0378 27.321 33.4909 28.0322C31.6251 31.0713 29.7271 29.1638 28.2473 27.9352L27.6361 29.4871C27.6039 29.6164 27.4752 29.7457 28.4403 30.166L29.4054 29.4871C33.1692 32.3645 35.8392 25.4458 34.456 24.9932Z" fill="#C8C037"/>
<path d="M28.6978 27.6766C28.4405 27.7089 27.7006 27.9676 27.6362 28.0969L27.9901 27.5796L28.6978 27.6766Z" fill="#C8C037"/>
<path d="M28.1831 24.5081C28.2474 24.5081 28.4405 24.5728 28.4405 24.5404C28.4405 24.5081 28.4405 24.8638 28.5048 25.0254L28.2474 25.6074C28.7622 24.9931 29.5986 25.0254 30.3706 24.9607L30.0168 24.7344C30.0489 24.5404 30.0489 24.3465 29.9524 24.1848L28.1831 24.5081Z" fill="#C8C037"/>
<path d="M29.4701 22.6976C28.8589 22.8593 28.3442 23.2149 28.0225 23.7645C28.312 22.7623 28.3442 22.7946 28.4407 22.7623C28.8267 22.5683 29.1484 22.6976 29.4701 22.6976Z" fill="#C8C037"/>
<path d="M27.0575 20.8871C26.6714 20.5961 26.3498 19.5292 25.7707 19.3353C25.256 19.3029 25.063 19.1413 24.3553 19.2706C24.6126 19.1413 24.8378 19.012 25.0951 18.8826C25.256 18.8503 25.449 18.8826 25.6099 18.915C25.642 18.8826 25.6742 18.8826 25.6742 18.818C24.9665 18.3977 23.551 18.3654 22.5859 18.139C23.7119 18.1714 24.9343 18.1067 25.7707 18.3977C26.4784 18.9796 26.7036 20.1112 27.0575 20.8871Z" fill="black"/>
<path d="M29.1167 15.8436C29.2775 15.8436 30.114 17.1692 30.1461 17.3955C30.2105 17.8804 30.4035 18.4301 30.4356 18.915C30.307 18.4301 30.1461 17.9451 29.9531 17.4601C29.8244 17.1368 29.6314 16.8459 29.3741 16.5872C29.2454 16.3609 29.1489 16.1023 29.1167 15.8436Z" fill="black"/>
<path d="M31.9471 23.0533H31.5933L31.9793 23.1503L31.9471 23.0533Z" fill="black"/>
<path d="M29.5025 22.6977C29.1487 22.6331 28.7626 22.6654 28.4088 22.7301C28.3123 22.924 28.2158 23.118 28.1836 23.312C28.634 22.827 28.7948 22.7947 29.5025 22.6977Z" fill="black"/>
<path d="M34.392 25.1871C34.199 25.4458 33.9095 25.6074 33.5878 25.7044C33.2661 25.8014 32.9123 25.6721 32.7192 25.3811C33.0409 25.4781 33.0731 25.7044 33.9095 25.4458L34.392 25.1871Z" fill="black"/>
<path d="M32.6227 25.2841C32.4618 25.672 32.3332 26.0923 32.1723 26.448C31.7863 26.9006 31.9471 26.6419 31.4003 27.3209C31.5933 27.0622 31.7863 26.7713 31.9471 26.4803C32.0436 26.2863 32.108 26.1246 32.1723 25.9307C32.0115 25.866 31.8185 25.866 31.6576 25.8983C31.1751 26.1893 31.0786 26.5126 30.789 26.8036C30.9821 26.448 31.2072 26.1246 31.4324 25.8013C31.4646 25.769 31.6576 25.7367 31.7541 25.7367C31.5933 25.7044 31.2716 25.6397 31.2394 25.6397C30.9177 25.7044 30.7247 25.9953 30.4995 26.1893C30.6604 25.9307 30.8534 25.672 31.0464 25.4457C31.3681 25.4457 31.6898 25.5104 31.9793 25.6074V25.7367L32.1402 25.8013L32.2688 25.478L32.6227 25.2841Z" fill="black"/>
<path d="M28.6978 27.7089C28.4404 27.6443 28.1831 27.6119 27.9257 27.6119C27.7327 27.7089 27.604 27.9352 27.604 28.1616C28.0544 27.6766 28.0222 27.6766 28.6978 27.7089Z" fill="black"/>
<path d="M28.1514 24.5081C28.1514 24.5081 28.6661 24.4435 28.6339 24.4758C28.6017 24.6698 28.6339 24.8638 28.6982 25.0254L28.4409 25.2517C29.0521 24.9608 29.6633 24.9931 30.3067 24.9608C30.3067 24.9608 29.7598 24.7991 29.792 24.7991C29.9207 24.7991 29.7598 24.2495 29.7277 24.2172C29.8242 24.1848 29.9207 24.1525 30.0494 24.1202C29.2773 23.9585 28.8269 24.0555 28.1514 24.5081Z" fill="black"/>
<path d="M32.5586 24.8638L32.4621 24.9285C32.4621 24.6052 32.0761 24.6052 31.7865 24.6052L31.5292 24.5405C31.5935 24.6052 31.8509 24.6052 31.7544 24.7668C31.69 24.7992 31.6579 24.9932 31.5935 25.1548H31.4648C31.69 25.2518 31.9152 25.3165 32.1726 25.4458L32.3334 25.4781L32.6873 25.2841L32.5586 24.8638Z" fill="black"/>
<path d="M29.1802 24.6375C29.1159 24.5082 28.8263 24.5405 28.762 24.6052C28.6977 24.6698 28.762 25.0578 28.8263 24.9931C28.9228 24.8961 29.0515 24.8638 29.1802 24.8961C29.2124 24.8315 29.2124 24.7345 29.1802 24.6375Z" fill="white"/>
<path d="M31.9474 25.2196C31.9795 25.1549 32.0117 25.0579 32.0117 24.9609C31.9795 24.8316 31.69 24.8639 31.69 24.8639C31.6257 24.9609 31.5613 25.0579 31.5935 25.1872C31.5935 25.2519 31.883 25.2519 31.9152 25.2519L31.9474 25.2196Z" fill="white"/>
<path d="M20.4941 31.8472H20.655C22.1991 32.6878 23.9684 32.9787 25.7056 32.7201L26.0916 33.302C25.03 33.8193 23.9041 33.69 22.8425 33.7223L20.4941 31.8472Z" fill="black"/>
<path d="M19.0469 27.9352L19.5616 30.0367C20.9127 30.8772 23.1967 31.8472 25.1269 31.7825L24.7087 30.8126C20.6875 29.972 20.3658 28.9051 19.0469 27.9352Z" fill="black"/>
<path d="M20.3013 23.6029C20.5587 25.2518 20.8804 26.4803 22.2958 27.5472C23.1644 28.2261 24.0973 28.8081 25.0946 29.3254C25.0946 29.3254 24.9981 29.8103 24.9337 29.8103C21.8133 29.4547 19.5293 26.8683 19.2397 25.672C19.4328 24.8961 19.8188 24.2172 20.3013 23.6029Z" fill="black"/>
<path d="M21.814 22.6977C22.2322 24.5082 23.2294 26.351 24.1945 28.0322C24.5805 28.4848 24.6449 28.6788 25.2239 28.9698C25.803 29.1314 26.4464 29.1961 27.0576 29.0991C26.8967 28.8081 26.768 28.5171 26.6072 28.2585C25.3848 27.2886 25.9638 26.3833 26.2855 25.8337C25.6099 25.6721 24.7092 25.2841 24.5805 24.7992C24.3875 23.215 24.484 22.73 24.677 21.9218C23.712 22.1481 22.7469 22.4067 21.814 22.6977Z" fill="black"/>
<path d="M18.4358 13.0309C18.1141 13.2572 17.7924 13.5482 17.5029 13.8391C16.9882 14.3888 16.6343 14.906 16.0874 15.294C15.8623 15.4557 15.6049 15.5527 15.3154 15.5527C15.1224 15.585 14.9294 15.585 14.7042 15.5527C14.4146 15.391 14.1573 15.488 13.8999 15.8113C13.5782 16.3609 13.2887 16.9105 13.0957 17.5248C12.774 18.818 13.5782 19.8526 14.3503 20.6609C15.0259 21.3398 15.4441 21.7601 15.7014 22.3744C15.9266 22.7623 16.0874 23.3119 16.2483 23.6999C16.3126 23.8292 16.2805 23.8292 16.4735 23.8616C16.8917 23.9262 17.3421 23.9585 17.7603 23.9909C17.9854 23.9909 18.2428 23.9909 18.468 23.9585C18.8218 23.8939 19.2079 23.8292 19.5617 23.6999C19.8513 23.6352 20.173 23.5059 20.4625 23.4089C20.4303 23.5383 20.173 23.6352 20.0764 23.7969C19.1757 25.0901 18.9184 26.254 19.0792 28.0645C19.1757 28.8404 19.3366 29.584 19.6261 30.2953C19.7869 30.7479 20.0121 31.1682 20.2695 31.5562C21.0415 32.6554 22.7787 34.0456 25.1592 34.5952C25.6096 34.6599 26.0599 34.6276 26.5103 34.4982C27.7006 34.1426 30.1133 33.302 30.1133 33.302C29.0839 33.399 28.0223 33.4313 26.9929 33.399C26.7677 33.399 26.5425 33.3344 26.3495 33.205C26.3173 33.1727 26.2208 32.9787 26.2851 32.9787C26.5103 32.9141 26.7677 32.8817 26.9929 32.8494C26.1886 32.7201 26.2208 32.7201 26.1565 32.5908C26.0599 32.3644 25.9313 32.0411 25.7704 31.7825C26.1243 31.8148 26.8963 31.8472 27.1859 31.5885C26.8963 31.6208 26.6068 31.6208 26.3173 31.5885C26.1565 31.5562 26.0278 31.5239 25.8669 31.4592C25.7383 31.4269 25.6096 31.3622 25.4809 31.3299C25.4166 31.1682 25.3844 31.1036 25.2879 30.9096C25.1914 30.6186 25.1592 30.2953 25.1592 30.0043C25.4166 30.36 25.8026 30.6186 26.2208 30.7479C26.5425 30.8772 26.8963 30.9096 27.218 30.8772L27.3146 30.8449C27.1859 30.8772 27.0572 30.8449 26.9285 30.8126C26.4781 30.6509 26.0921 30.36 25.8026 29.972L25.4487 29.4224C25.5452 29.1961 25.6096 29.1961 25.7704 29.1961C26.0599 29.2607 26.3816 29.2607 26.7033 29.2284C26.8963 29.6164 26.9285 30.0043 27.3467 30.263C28.7622 30.6833 29.0517 30.1336 29.4056 29.6487C30.435 30.3923 32.0756 30.6186 33.2015 29.6487C34.6492 27.9675 35.1317 25.2841 35.003 25.1548C34.81 24.8315 34.5848 24.5405 34.3918 24.5728C33.6519 24.7668 33.3946 25.1548 32.6868 25.0578C32.7512 25.0578 32.8477 25.0578 32.912 25.0578C32.9764 24.7345 32.9442 24.4112 32.8798 24.0879C32.6547 23.6029 32.3651 23.0856 32.1721 22.6977C32.1078 22.6007 31.9791 22.0187 31.7218 21.7601C31.6252 21.6954 31.3679 21.4368 31.3679 21.4368L31.3357 21.6954C31.3357 21.6954 31.4322 21.6954 31.4644 21.8571C31.7218 22.6007 32.0434 23.3119 32.4295 23.9909C32.6868 24.4435 32.4616 24.9931 32.6547 25.2841C32.912 25.2841 33.1372 25.2841 33.3946 25.2841C33.9093 25.1871 33.8771 24.9608 34.3275 24.9285C34.617 24.8961 34.6492 25.4781 34.6492 25.5104C34.5848 26.1893 34.3918 26.8683 34.1023 27.5149C33.4911 28.6788 32.8155 29.7134 31.8826 29.875C30.7245 30.069 30.1133 29.584 29.5021 29.2284L29.2769 29.4224C28.4726 30.2306 27.5076 30.166 27.0894 29.0991C26.8963 28.7434 26.6712 28.3878 26.4138 28.0645L25.2235 28.9374C25.127 29.1314 24.9984 29.4547 24.8697 29.8103C24.741 30.1336 24.6767 30.4893 24.6767 30.8449C24.5158 31.1036 25.1914 32.1381 25.6096 32.7847C25.7383 32.9787 25.9634 33.302 25.9634 33.3344C26.0278 33.496 26.1243 33.6253 26.253 33.7547C27.025 34.7892 25.2557 34.5306 24.9018 34.4982C24.162 34.3689 23.4542 34.078 22.8108 33.69L22.6822 33.6253C21.9101 33.108 21.2024 32.5261 20.559 31.8472C20.2051 31.4269 19.8513 30.5539 19.5939 29.972C19.2079 28.5171 18.661 25.963 20.173 24.0555C20.2695 23.9585 20.366 23.7646 20.4625 23.7322C20.9129 23.4413 21.3954 23.215 21.9101 23.0856L21.8458 22.7623C21.3632 22.8916 20.9129 23.0856 20.4625 23.2796C19.8834 23.4413 19.4331 23.6029 18.6932 23.7969C18.468 23.8292 18.2428 23.8292 18.0176 23.7969C17.5029 23.7322 16.6022 23.7969 16.57 23.7322C16.2161 23.2473 16.1196 22.342 15.7979 21.8894C15.6049 21.6631 15.4119 21.4368 15.1867 21.2105C14.4146 20.4345 13.7713 19.6909 13.5782 18.915C13.4496 18.527 13.4174 18.1391 13.4817 17.7511C13.6426 17.1045 13.9964 16.4902 14.479 16.0376C14.9615 16.0376 15.4441 16.0699 15.9266 16.1346C16.2483 16.1669 16.6022 16.2639 16.9239 16.3609C17.9533 16.7489 19.3044 17.3632 19.3044 17.3632C18.3071 16.8135 17.149 16.0699 16.4413 15.9406C16.3448 15.9406 16.2805 15.876 16.2483 15.779C17.3421 15.1324 17.5351 14.3888 18.2428 13.7098C18.468 13.5805 18.7253 13.5158 18.9827 13.4512C21.5241 13.8715 23.1325 14.8737 24.3871 15.5527C24.9019 15.8436 25.3522 16.0376 25.8026 16.2963C26.5425 16.6842 27.1859 17.1692 27.7328 17.8158C28.0544 18.5594 28.344 19.3353 28.5692 20.1436C28.6335 20.5315 28.7622 20.8872 28.8908 21.2428C28.8265 20.9842 28.7943 20.7255 28.7622 20.4669C28.9552 20.5639 29.1804 20.5962 29.4056 20.6285C29.4056 20.6285 28.7622 20.3052 28.6657 19.9819C28.4083 19.0443 28.1188 17.5571 28.0544 17.4601C27.5719 16.9752 27.025 16.5872 26.446 16.2316C26.253 16.1023 26.1243 16.0376 26.1243 16.0053C26.2851 15.8113 26.4781 15.6173 26.7033 15.4557C26.8642 15.294 27.0894 15.1647 27.2824 15.0677C28.3761 14.5827 29.0195 15.2617 29.1482 15.1324C29.1482 15.1324 28.923 14.8737 29.0195 14.906C29.116 14.9384 29.4699 15.0354 29.5021 15.0677C30.3385 15.8436 31.0462 16.7489 31.5931 17.7511C31.7539 18.0098 31.8183 18.3007 31.7218 18.5917C31.6574 18.8504 31.5931 19.1413 31.5287 19.4C31.3357 19.8526 31.207 20.3375 31.0784 20.8225C31.0462 21.2751 31.1427 21.7601 31.3357 22.1804C31.3357 22.0187 31.3357 21.8571 31.3357 21.7278L31.3679 21.4691C31.3679 21.4368 31.3679 21.4044 31.3679 21.3721C31.3679 21.1781 31.4322 21.0488 31.4322 20.9195C31.5609 20.2082 31.7539 19.5293 32.0113 18.8827C32.0756 18.721 32.1721 18.624 32.1721 18.4947C32.1078 18.2037 31.9791 17.8804 31.8183 17.6218C31.6574 17.2662 31.4644 16.9105 31.2392 16.5872C30.6923 15.8113 30.242 15.197 29.3734 14.8091C28.8908 14.6797 28.3761 14.6151 27.8614 14.6474C27.4754 14.6474 27.1537 14.7767 26.832 14.9384C26.4138 15.197 26.0599 15.6173 25.6739 15.876C25.1914 15.6496 24.741 15.3587 24.3228 15.0677C23.8081 14.7767 23.1969 14.4858 22.5213 14.1624C22.1996 13.8715 20.2373 13.1602 18.4358 13.0309ZM29.4699 29.2284C28.9874 28.8728 28.537 28.4201 28.1831 27.9352C28.0544 28.3878 27.7971 28.8404 27.4754 29.1961C27.4111 29.2931 27.3789 29.3901 27.6362 29.778C27.7006 29.875 27.9579 29.875 28.151 29.875C27.9901 29.7457 27.7006 29.584 27.6684 29.4547C27.9258 29.6487 28.2153 29.7457 28.537 29.7134C28.6335 29.681 28.6978 29.6164 28.73 29.5517C28.7943 29.3901 28.8908 29.2607 29.0517 29.1637L29.2769 29.4224L29.4699 29.2284Z" fill="black" stroke="black" stroke-width="0.11"/>
</svg>
