<?xml version="1.0" encoding="utf-8"?>
<!-- Generator: Adobe Illustrator 19.1.0, SVG Export Plug-In . SVG Version: 6.00 Build 0)  -->
<svg version="1.1" id="Layer_1" xmlns="http://www.w3.org/2000/svg" xmlns:xlink="http://www.w3.org/1999/xlink" x="0px" y="0px"
	 viewBox="-1 2 21 22" style="enable-background:new -1 2 21 22;" xml:space="preserve">
<style type="text/css">
	.st0{fill:#58595B;}
</style>
<path id="XMLID_7633_" class="st0" d="M16.4,2H1.6C0.2,2-1,3.2-1,4.6v15.8c0,1.4,1.2,2.6,2.6,2.6h14.8c1.4,0,2.6-1.2,2.6-2.6V4.6
	C19,3.2,17.8,2,16.4,2z M1,20V9h16v11l-3.5-3c0.3-0.6,0.5-1.2,0.5-1.9c0-2.3-1.8-4.1-4.1-4.1c-0.4,0-0.8,0.1-1.2,0.2l2.4,2.4
	c0.4,0.4,0.4,0.9,0,1.3l-1.4,1.4c-0.4,0.4-0.9,0.4-1.3,0L6,13.9c-0.1,0.4-0.2,0.8-0.2,1.2c0,2.3,1.8,4.1,4.1,4.1
	c0.7,0,1.3-0.2,1.9-0.5l2.1,2.3H2C1.4,21,1,20.6,1,20z"/>
</svg>
