<?xml version="1.0" encoding="utf-8"?>
<!-- Generator: Adobe Illustrator 19.1.0, SVG Export Plug-In . SVG Version: 6.00 Build 0)  -->
<svg version="1.1" id="Layer_1" xmlns="http://www.w3.org/2000/svg" xmlns:xlink="http://www.w3.org/1999/xlink" x="0px" y="0px"
	 viewBox="0 1 20 21" style="enable-background:new 0 1 20 21;" xml:space="preserve">
<style type="text/css">
	.st0{display:none;}
	.st1{display:inline;fill:#58595B;}
	.st2{fill:#58595B;}
</style>
<g class="st0">
	<path class="st1" d="M-267,430.3c0,1.4-1.2,2.6-2.6,2.6h-14.8c-1.4,0-2.6-1.2-2.6-2.6v-15.8c0-1.4,1.2-2.6,2.6-2.6h14.8
		c1.4,0,2.6,1.2,2.6,2.6V430.3z M-284,413.9c-0.6,0-1,0.4-1,1v15c0,0.5,0.4,1,1,1h14c0.5,0,1-0.4,1-1v-15c0-0.5-0.4-1-1-1H-284z"/>
	<path class="st1" d="M-272,425c0-2.3-1.8-4.1-4.1-4.1c-0.4,0-0.8,0.1-1.2,0.2l2.4,2.4c0.4,0.4,0.4,0.9,0,1.3l-1.4,1.4
		c-0.4,0.4-0.9,0.4-1.3,0l-2.4-2.4c-0.1,0.4-0.2,0.8-0.2,1.2c0,2.3,1.8,4.1,4.1,4.1c0.7,0,1.3-0.2,1.9-0.5l3.2,3.5l2.4-1.1l0.4-0.4
		l-4.3-3.7C-272.2,426.3-272,425.7-272,425z"/>
	<rect x="-286" y="413.9" class="st1" width="18" height="5"/>
	<circle class="st1" cx="-270.6" cy="415.1" r="1.2"/>
	<circle class="st1" cx="-274.6" cy="415.1" r="1.2"/>
</g>
<g>
	<g>
		<path class="st2" d="M20,14c0,1.7-1.4,3-3,3H3c-1.7,0-3-1.4-3-3V4c0-1.7,1.4-3,3-3h14c1.7,0,3,1.4,3,3V14z M18,4c0-0.6-0.5-1-1-1
			H3C2.5,3,2,3.5,2,4v10c0,0.6,0.5,1,1,1h14c0.6,0,1-0.5,1-1V4z"/>
	</g>
	<g>
		<g>
			<rect x="1" y="11" class="st2" width="17" height="5"/>
		</g>
	</g>
	<g>
		<circle class="st2" cx="9.6" cy="14.6" r="1.2"/>
	</g>
	<g>
		<rect x="6" y="5" class="st2" width="2" height="9"/>
	</g>
	<g>
		<rect x="9" y="7" class="st2" width="2" height="6"/>
	</g>
	<g>
		<rect x="12" y="7" class="st2" width="2" height="7"/>
	</g>
	<g>
		<path class="st2" d="M15.2,21c-1.7,0-3.2-1.8-3.2-3.5V17H9.6H7v0.5C7,19.2,5.5,21,3.8,21H2v1h2h5.6h5.8H17v-1H15.2z"/>
	</g>
</g>
</svg>
