<?xml version="1.0" encoding="utf-8"?>
<!-- Generator: Adobe Illustrator 19.1.0, SVG Export Plug-In . SVG Version: 6.00 Build 0)  -->
<svg version="1.1" id="Layer_1" xmlns="http://www.w3.org/2000/svg" xmlns:xlink="http://www.w3.org/1999/xlink" x="0px" y="0px"
	 viewBox="-287 410.9 20 21" style="enable-background:new -287 410.9 20 21;" xml:space="preserve">
<style type="text/css">
	.st0{fill:#FFFFFF;}
	.st1{fill:#58595B;}
</style>
<g>
	<rect x="-285" y="412.9" class="st0" width="16" height="13"/>
	<path class="st1" d="M-270.1,410.9H-284c-1.7,0-3,1.1-3,2.8v9.9c0,1.7,1.3,3.3,3,3.3h4v0.6c0,1.7-1.5,3-3.2,3h-1.8v1.4h1.9h5.6h5.8
		h1.7v-1.5h-1.8c-1.7,0-3.2-1.3-3.2-3v-0.6h4.9c1.7,0,3.1-1.6,3.1-3.3v-9.8C-267,412-268.4,410.9-270.1,410.9z M-285,413.7
		c0-0.6,0.4-0.8,1-0.8h13.9c0.6,0,1.1,0.2,1.1,0.8v7.2h-4v-4h-2v4h-1v-4h-2v4h-1v-6h-2v6h-4V413.7z"/>
</g>
</svg>
