<?xml version="1.0" encoding="utf-8"?>
<!-- Generator: Adobe Illustrator 19.1.0, SVG Export Plug-In . SVG Version: 6.00 Build 0)  -->
<svg version="1.1" id="Layer_1" xmlns="http://www.w3.org/2000/svg" xmlns:xlink="http://www.w3.org/1999/xlink" x="0px" y="0px"
	 viewBox="-287 409.9 21 22" style="enable-background:new -287 409.9 21 22;" xml:space="preserve">
<style type="text/css">
	.st0{fill:#FFFFFF;}
	.st1{fill:#58595B;}
</style>
<g>
	<rect x="-285" y="416.9" class="st0" width="16" height="12"/>
	<path class="st1" d="M-269.6,409.9h-14.8c-1.4,0-2.6,1.2-2.6,2.6v15.8c0,1.4,1.2,2.6,2.6,2.6h14.8c1.4,0,2.6-1.2,2.6-2.6v-15.8
		C-267,411.1-268.2,409.9-269.6,409.9z M-284.1,428.9c-0.5,0-0.9-0.4-0.9-1v-11h16v11l-3.5-3c0.3-0.6,0.5-1.2,0.5-1.9
		c0-2.3-1.8-4.1-4.1-4.1c-0.5,0-0.9,0.1-1.3,0.2l2.4,2.4c0.4,0.4,0.4,0.9,0,1.3l-1.4,1.4c-0.2,0.2-0.4,0.3-0.6,0.3s-0.5-0.1-0.6-0.3
		l-2.4-2.4c-0.1,0.4-0.2,0.8-0.2,1.2c0,2.3,1.8,4.1,4.1,4.1c0.7,0,1.3-0.2,1.9-0.5l2.1,2.3H-284.1z"/>
</g>
</svg>
