<?xml version="1.0" encoding="utf-8"?>
<!-- Generator: Adobe Illustrator 15.1.0, SVG Export Plug-In . SVG Version: 6.00 Build 0)  -->
<!DOCTYPE svg PUBLIC "-//W3C//DTD SVG 1.1//EN" "http://www.w3.org/Graphics/SVG/1.1/DTD/svg11.dtd">
<svg version="1.1" id="Layer_2" xmlns="http://www.w3.org/2000/svg" xmlns:xlink="http://www.w3.org/1999/xlink" x="0px" y="0px"
	 width="25px" height="20px" viewBox="0 0 25 20" enable-background="new 0 0 25 20" xml:space="preserve">
<g display="none" opacity="0.5">
	<g display="inline">
		<g>
			<path fill="#0099CC" d="M760.545,824.681c0.606,0,0.751,0,0.751,0.847c0,0.52-0.1,0.762-0.13,0.801
				c-0.03,0.023-0.225,0.116-0.621,0.116c-0.398,0-0.594-0.093-0.62-0.113c-0.035-0.043-0.135-0.284-0.135-0.804
				C759.79,824.707,759.91,824.681,760.545,824.681 M760.545,821.681c-2.141,0-3.755,1.227-3.755,3.847
				c0,3.078,2.002,3.917,3.755,3.917s3.751-0.839,3.751-3.917C764.296,822.906,762.688,821.681,760.545,821.681L760.545,821.681z"/>
		</g>
		<path fill="none" stroke="#0099CC" stroke-width="3" stroke-miterlimit="10" d="M756.342,830.455
			c0.928-0.854,2.271-1.477,3.81-1.477l0,0c2.606,0,4.85,1.516,4.85,3.476v3.046"/>
	</g>
	<g display="inline">
		<g>
			<path fill="#58595B" d="M751.564,823.168c1.164,0,1.501,0.362,1.501,1.615c0,1.441-0.395,1.699-1.501,1.699
				c-1.197,0-1.508-0.351-1.508-1.699C750.058,823.545,750.41,823.168,751.564,823.168 M751.564,820.168
				c-2.568,0-4.508,1.471-4.508,4.615c0,3.693,2.403,4.699,4.508,4.699c2.104,0,4.501-1.006,4.501-4.699
				C756.065,821.639,754.135,820.168,751.564,820.168L751.564,820.168z"/>
		</g>
		<path fill="none" stroke="#58595B" stroke-width="3" stroke-miterlimit="10" d="M745,836.5v-3.403c0-2.352,2.871-4.258,6-4.258
			l0,0c3.129,0,6,1.906,6,4.258v3.403"/>
	</g>
</g>
<g display="none" opacity="0.5">
	<g display="inline">
		<g>
			<path fill="#0099CC" d="M17.545,6.597c0.605,0,0.751,0,0.751,0.846c0,0.52-0.101,0.762-0.13,0.801
				c-0.029,0.024-0.225,0.116-0.621,0.116c-0.398,0-0.594-0.092-0.62-0.113c-0.034-0.044-0.135-0.285-0.135-0.805
				C16.79,6.623,16.91,6.597,17.545,6.597 M17.545,3.597c-2.141,0-3.755,1.226-3.755,3.846c0,3.079,2.002,3.917,3.755,3.917
				s3.751-0.838,3.751-3.917C21.296,4.822,19.688,3.597,17.545,3.597L17.545,3.597z"/>
		</g>
		<path fill="none" stroke="#0099CC" stroke-width="3" stroke-miterlimit="10" d="M13.342,11.913
			c0.928-0.854,2.271-1.247,3.809-1.247l0,0c2.607,0,4.851,1.744,4.851,3.704v2.13"/>
	</g>
	<g display="inline">
		<g>
			<path fill="#58595B" d="M8.564,5.084c1.164,0,1.501,0.362,1.501,1.615c0,1.442-0.393,1.699-1.501,1.699
				c-1.197,0-1.507-0.35-1.507-1.699C7.058,5.461,7.41,5.084,8.564,5.084 M8.564,2.084c-2.568,0-4.507,1.471-4.507,4.615
				c0,3.694,2.403,4.699,4.507,4.699s4.5-1.005,4.5-4.699C13.064,3.555,11.135,2.084,8.564,2.084L8.564,2.084z"/>
		</g>
		<path fill="none" stroke="#58595B" stroke-width="3" stroke-miterlimit="10" d="M2,17.5v-2.486c0-2.353,2.871-4.259,6-4.259l0,0
			c3.129,0,6,1.906,6,4.259V17.5"/>
	</g>
</g>
<g opacity="0.5">
	<g>
		<g>
			<path fill="#58595B" d="M12.614,5c1.164,0,1.501,0.362,1.501,1.615c0,1.442-0.394,1.699-1.501,1.699
				c-1.196,0-1.506-0.35-1.506-1.699C11.108,5.377,11.46,5,12.614,5 M12.614,2c-2.568,0-4.506,1.471-4.506,4.615
				c0,3.694,2.402,4.699,4.506,4.699c2.104,0,4.501-1.005,4.501-4.699C17.115,3.471,15.186,2,12.614,2L12.614,2z"/>
		</g>
		<path fill="none" stroke="#58595B" stroke-width="3" stroke-miterlimit="10" d="M6.5,17.5v-2.571c0-2.352,2.371-4.257,5.5-4.257
			l0,0c3.129,0,5.5,1.905,5.5,4.257V17.5"/>
	</g>
</g>
</svg>
